<svg height="57.116" viewBox="0 0 59.729 57.116" width="59.729" xmlns="http://www.w3.org/2000/svg"><g fill="#414042"><path d="m3.221 8.044a5.35 5.35 0 0 1 -2.474-.614c-2.424-1.25-3.99-4.176-3.99-7.456 0-4.451 2.9-8.072 6.464-8.072s6.464 3.621 6.464 8.071c0 3.281-1.567 6.207-3.99 7.456a5.344 5.344 0 0 1 -2.474.614m0-14.387c-2.607 0-4.73 2.834-4.73 6.316 0 2.587 1.224 4.955 3.046 5.892a3.575 3.575 0 0 0 3.368 0c1.822-.937 3.046-3.3 3.046-5.892 0-3.482-2.123-6.316-4.73-6.316" transform="translate(9.053 8.099)"/><path d="m11.8 5.505h-22.814a.872.872 0 0 1 -.867-.877v-4.664a5.483 5.483 0 0 1 5.445-5.507h4.75a.871.871 0 0 1 .867.877v.231a1.216 1.216 0 0 0 .4.907 1.184 1.184 0 0 0 .935.311 1.277 1.277 0 0 0 1.084-1.307v-.142a.872.872 0 0 1 .867-.877h4.75a5.481 5.481 0 0 1 5.45 5.507v4.664a.871.871 0 0 1 -.867.877m-21.947-1.754h21.08v-3.787a3.738 3.738 0 0 0 -3.712-3.753h-3.968a3 3 0 0 1 -2.573 2.32 2.943 2.943 0 0 1 -2.268-.761 3 3 0 0 1 -.895-1.559h-3.953a3.738 3.738 0 0 0 -3.711 3.753z" transform="translate(11.881 22.934)"/><path d="m1.468 3.792a2.967 2.967 0 0 1 -2.946-2.98v-3.753a.875.875 0 0 1 .415-.747.857.857 0 0 1 .847-.034 3.586 3.586 0 0 0 3.368 0 .862.862 0 0 1 .848.034.875.875 0 0 1 .415.747v3.753a2.967 2.967 0 0 1 -2.946 2.98m-1.213-5.479v2.5a1.221 1.221 0 0 0 1.212 1.225 1.221 1.221 0 0 0 1.212-1.226v-2.5a5.242 5.242 0 0 1 -2.424 0" transform="translate(10.806 17.687)"/><path d="m3.221 8.044a5.361 5.361 0 0 1 -2.472-.614c-2.425-1.248-3.992-4.176-3.992-7.457 0-4.451 2.9-8.072 6.464-8.072s6.464 3.622 6.464 8.072c0 3.281-1.567 6.207-3.99 7.456a5.381 5.381 0 0 1 -2.474.614m0-14.387c-2.607 0-4.73 2.832-4.73 6.316 0 2.587 1.224 4.955 3.046 5.892a3.575 3.575 0 0 0 3.368 0c1.822-.937 3.046-3.3 3.046-5.892 0-3.484-2.123-6.316-4.73-6.316" transform="translate(44.234 36.775)"/><path d="m11.8 5.505h-22.814a.872.872 0 0 1 -.867-.877v-4.664a5.481 5.481 0 0 1 5.445-5.507h4.75a.872.872 0 0 1 .867.877v.231a1.222 1.222 0 0 0 .4.907 1.2 1.2 0 0 0 .937.313 1.282 1.282 0 0 0 1.082-1.309v-.142a.871.871 0 0 1 .867-.877h4.75a5.483 5.483 0 0 1 5.45 5.507v4.664a.872.872 0 0 1 -.867.877m-21.947-1.754h21.08v-3.787a3.738 3.738 0 0 0 -3.712-3.753h-3.97a3 3 0 0 1 -2.571 2.32 2.928 2.928 0 0 1 -2.268-.761 2.985 2.985 0 0 1 -.895-1.559h-3.953a3.738 3.738 0 0 0 -3.711 3.753z" transform="translate(47.062 51.611)"/><path d="m1.468 3.792a2.967 2.967 0 0 1 -2.946-2.98v-3.753a.88.88 0 0 1 .415-.747.862.862 0 0 1 .847-.034 3.581 3.581 0 0 0 3.368 0 .856.856 0 0 1 .848.034.875.875 0 0 1 .415.747v3.753a2.967 2.967 0 0 1 -2.946 2.98m-1.213-5.479v2.5a1.221 1.221 0 0 0 1.212 1.225 1.221 1.221 0 0 0 1.212-1.226v-2.5a5.242 5.242 0 0 1 -2.424 0" transform="translate(45.987 46.363)"/><path d="m.432 11.573a.872.872 0 0 1 -.867-.873v-21.47a.874.874 0 0 1 .867-.879.874.874 0 0 1 .867.879v21.47a.872.872 0 0 1 -.867.877" transform="translate(5.428 38.337)"/><path d="m13.077.874h-25.377a.872.872 0 0 1 -.867-.874.872.872 0 0 1 .867-.88h25.377a.871.871 0 0 1 .867.88.871.871 0 0 1 -.867.877" transform="translate(21.813 52.934)"/><path d="m.432 3.863a.861.861 0 0 1 -.632-.279.885.885 0 0 1 .04-1.24l2.492-2.358-2.494-2.357a.885.885 0 0 1 -.038-1.24.86.86 0 0 1 1.226-.042l3.171 3a.879.879 0 0 1 .275.64.886.886 0 0 1 -.272.641l-3.171 3a.855.855 0 0 1 -.592.237" transform="translate(30.834 52.943)"/><path d="m.432 9.468a.872.872 0 0 1 -.867-.877v-17.247a.872.872 0 0 1 .867-.877.871.871 0 0 1 .867.877v17.247a.871.871 0 0 1 -.867.877" transform="translate(46.919 19.662)"/><path d="m11.936.874h-23.085a.873.873 0 0 1 -.869-.874.873.873 0 0 1 .869-.877h23.085a.872.872 0 0 1 .864.877.872.872 0 0 1 -.867.877" transform="translate(32.048 7.326)"/><path d="m1.973 3.466a.851.851 0 0 1 -.554-.2l-3.093-2.602a.881.881 0 0 1 -.313-.676.873.873 0 0 1 .313-.674l3.093-2.6a.86.86 0 0 1 1.222.114.884.884 0 0 1 -.112 1.236l-2.292 1.924 2.292 1.925a.885.885 0 0 1 .112 1.236.86.86 0 0 1 -.668.317" transform="translate(21.62 7.333)"/><path d="m1.814 2.271a.862.862 0 0 1 -.614-.257l-2.772-2.8a.885.885 0 0 1 0-1.242.861.861 0 0 1 1.228 0l2.158 2.181 2.159-2.183a.861.861 0 0 1 1.228 0 .885.885 0 0 1 0 1.242l-2.772 2.8a.862.862 0 0 1 -.614.257" transform="translate(45.537 27.569)"/><path d="m2.121 4.289a4.286 4.286 0 0 1 -4.257-4.305 4.284 4.284 0 0 1 4.257-4.3 4.284 4.284 0 0 1 4.257 4.3 4.286 4.286 0 0 1 -4.257 4.305m0-6.854a2.539 2.539 0 0 0 -2.521 2.549 2.54 2.54 0 0 0 2.521 2.551 2.54 2.54 0 0 0 2.522-2.551 2.539 2.539 0 0 0 -2.522-2.549" transform="translate(4.004 52.595)"/><path d="m2.121 4.29a4.286 4.286 0 0 1 -4.257-4.305 4.286 4.286 0 0 1 4.257-4.305 4.286 4.286 0 0 1 4.258 4.305 4.286 4.286 0 0 1 -4.258 4.305m0-6.854a2.539 2.539 0 0 0 -2.521 2.549 2.54 2.54 0 0 0 2.521 2.551 2.538 2.538 0 0 0 2.522-2.551 2.538 2.538 0 0 0 -2.522-2.549" transform="translate(45.23 7.336)"/></g></svg>