<svg height="57.669" viewBox="0 0 58.253 57.669" width="58.253" xmlns="http://www.w3.org/2000/svg"><g fill="#414042"><path d="m13.391 26.513a.819.819 0 0 1 -.655-.326l-28.3-37.349a.825.825 0 0 1 0-.994l14.147-18.672a.825.825 0 0 1 .657-.326h28.3a.825.825 0 0 1 .657.326l14.154 18.673a.825.825 0 0 1 0 .994l-28.3 37.349a.819.819 0 0 1 -.655.326m-27.27-38.17 27.27 35.984 27.27-35.984-13.533-17.851h-27.484z" transform="translate(15.735 31.155)"/><path d="m10.025 9.03h-20.982a.826.826 0 0 1 -.715-.413.827.827 0 0 1 0-.826l10.494-17.991a.823.823 0 0 1 .711-.409.826.826 0 0 1 .713.409l10.49 17.992a.822.822 0 0 1 -.711 1.238m-19.549-1.647h18.116l-9.059-15.536z" transform="translate(29.634 11.123)"/><path d="m2.081 9.265a.824.824 0 0 1 -.808-.665l-3.7-18.5a.823.823 0 0 1 .646-.968.827.827 0 0 1 .97.644l3.7 18.504a.823.823 0 0 1 -.646.968.811.811 0 0 1 -.163.017" transform="translate(16.596 10.888)"/><path d="m.379 9.266a.944.944 0 0 1 -.159-.015.825.825 0 0 1 -.65-.966l3.619-18.507a.821.821 0 0 1 .966-.65.824.824 0 0 1 .65.966l-3.619 18.506a.823.823 0 0 1 -.807.665" transform="translate(39.28 10.888)"/><path d="m26.4.757h-56.6a.823.823 0 0 1 -.824-.824.823.823 0 0 1 .824-.823h56.6a.823.823 0 0 1 .824.824.823.823 0 0 1 -.824.823" transform="translate(31.025 19.564)"/><path d="m5.182 18.005a.824.824 0 0 1 -.792-.6l-10.449-37.518a.821.821 0 0 1 .572-1.013.823.823 0 0 1 1.014.572l10.45 37.515a.821.821 0 0 1 -.794 1.044" transform="translate(23.943 39.663)"/><path d="m.379 18.005a.833.833 0 0 1 -.222-.03.823.823 0 0 1 -.57-1.016l10.53-37.515a.825.825 0 0 1 1.016-.57.824.824 0 0 1 .57 1.014l-10.532 37.512a.823.823 0 0 1 -.792.6" transform="translate(28.748 39.664)"/></g></svg>