<svg height="57.668" viewBox="0 0 74.655 57.668" width="74.655" xmlns="http://www.w3.org/2000/svg"><g fill="#414042"><path d="m38.176 11.369a59.765 59.765 0 0 0 -3.987-4.611.977.977 0 1 0 -1.422 1.342c1.623 1.72 2.789 3.117 3.388 3.862-2.742 3.438-17.481 20.804-35.109 20.804s-32.364-17.366-35.11-20.804c2.781-3.435 17.719-20.813 35.11-20.813 10.764 0 20.534 6.645 26.837 12.219a.978.978 0 0 0 1.294-1.468c-6.554-5.8-16.756-12.705-28.131-12.705-10.583 0-20.128 6.046-26.27 11.117a72.841 72.841 0 0 0 -10.86 11.057.976.976 0 0 0 0 1.17 70.6 70.6 0 0 0 10.755 11.061c6.111 5.073 15.648 11.119 26.375 11.119s20.263-6.046 26.375-11.119a70.6 70.6 0 0 0 10.759-11.061.976.976 0 0 0 0-1.17" transform="translate(36.282 16.877)"/><path d="m0 4.834a9.428 9.428 0 1 0 18.856 0 .977.977 0 1 0 -1.954 0 7.474 7.474 0 1 1 -7.474-7.474.975.975 0 0 0 .977-.977.977.977 0 0 0 -.977-.977 9.439 9.439 0 0 0 -9.428 9.428" transform="translate(27.9 24)"/><path d="m0 8.425a16.432 16.432 0 1 0 16.432-16.432 16.451 16.451 0 0 0 -16.432 16.432m30.91 0a14.478 14.478 0 1 1 -14.478-14.478 14.494 14.494 0 0 1 14.478 14.478" transform="translate(20.896 20.409)"/><path d="m.5 1.662a.977.977 0 0 0 .978-.976v-1.286a.977.977 0 0 0 -.978-.98.977.977 0 0 0 -.976.98v1.286a.977.977 0 0 0 .976.976" transform="translate(36.827 1.58)"/><path d="m.36 1.616a.989.989 0 0 0 .275.039.979.979 0 0 0 .938-.7l.361-1.239a.978.978 0 0 0 -.663-1.216.979.979 0 0 0 -1.212.668l-.359 1.238a.976.976 0 0 0 .66 1.21" transform="translate(49.071 3.394)"/><path d="m.246 1.5a.966.966 0 0 0 .495.135.98.98 0 0 0 .843-.48l.655-1.107a.978.978 0 0 0 -.345-1.34.981.981 0 0 0 -1.338.345l-.656 1.11a.978.978 0 0 0 .346 1.337" transform="translate(60.519 9.017)"/><path d="m.5 1.507a.979.979 0 0 0 .747-.347l.832-.985a.977.977 0 0 0 -.117-1.375.978.978 0 0 0 -1.377.117l-.831.983a.977.977 0 0 0 .746 1.607" transform="translate(70.018 16.436)"/><path d="m.206 1.276a.979.979 0 0 0 .938.7.993.993 0 0 0 .275-.041.975.975 0 0 0 .662-1.207l-.361-1.236a.976.976 0 0 0 -1.213-.665.977.977 0 0 0 -.663 1.211z" transform="translate(23.807 3.071)"/><path d="m.406 1.325a.98.98 0 0 0 .843.48.966.966 0 0 0 .495-.135.978.978 0 0 0 .344-1.339l-.654-1.11a.979.979 0 0 0 -1.334-.345.976.976 0 0 0 -.349 1.338z" transform="translate(12.146 8.849)"/><path d="m.544 1.329a.972.972 0 0 0 .747.347.963.963 0 0 0 .63-.23.978.978 0 0 0 .117-1.377l-.831-.985a.979.979 0 0 0 -1.377-.117.977.977 0 0 0 -.117 1.377z" transform="translate(2.845 16.266)"/><path d="m.5 0a.977.977 0 0 0 -.976.977v1.289a.977.977 0 0 0 1.954 0v-1.289a.977.977 0 0 0 -.978-.977" transform="translate(36.827 54.425)"/><path d="m.827.02a.981.981 0 0 0 -1.212.663l-.362 1.237a.975.975 0 0 0 .663 1.211.922.922 0 0 0 .275.041.979.979 0 0 0 .938-.7l.361-1.241a.976.976 0 0 0 -.663-1.211" transform="translate(24.397 52.638)"/><path d="m1.092.07a.977.977 0 0 0 -1.338.344l-.654 1.109a.978.978 0 0 0 .345 1.34.987.987 0 0 0 .493.137.98.98 0 0 0 .843-.48l.655-1.11a.978.978 0 0 0 -.344-1.34" transform="translate(12.798 47.081)"/><path d="m.544.178-.831.985a.978.978 0 0 0 .117 1.377.967.967 0 0 0 .63.23.972.972 0 0 0 .747-.347l.831-.985a.977.977 0 1 0 -1.494-1.26" transform="translate(2.846 39.895)"/><path d="m.982.36a.978.978 0 0 0 -1.213-.66.975.975 0 0 0 -.663 1.208l.361 1.235a.979.979 0 0 0 .938.7.989.989 0 0 0 .275-.035.977.977 0 0 0 .663-1.208z" transform="translate(49.661 52.962)"/><path d="m.932.246a.979.979 0 0 0 -1.338-.346.978.978 0 0 0 -.344 1.339l.65 1.111a.98.98 0 0 0 .843.48.977.977 0 0 0 .839-1.473z" transform="translate(61.171 47.25)"/><path d="m.884.178a.977.977 0 0 0 -1.377-.117.978.978 0 0 0 -.117 1.377l.831.985a.977.977 0 0 0 1.494-1.26z" transform="translate(70.382 39.894)"/></g></svg>