<svg height="57.668" viewBox="0 0 57.671 57.668" width="57.671" xmlns="http://www.w3.org/2000/svg"><g fill="#414042"><path d="m2.108 4.215a4.477 4.477 0 0 1 -4.471-4.471 4.477 4.477 0 0 1 4.471-4.469 4.476 4.476 0 0 1 4.471 4.469 4.476 4.476 0 0 1 -4.471 4.471m0-7.258a2.791 2.791 0 0 0 -2.787 2.787 2.79 2.79 0 0 0 2.787 2.787 2.79 2.79 0 0 0 2.792-2.787 2.791 2.791 0 0 0 -2.792-2.787" transform="translate(51.092 4.725)"/><path d="m2.108 4.215a4.477 4.477 0 0 1 -4.471-4.471 4.477 4.477 0 0 1 4.471-4.469 4.474 4.474 0 0 1 4.469 4.469 4.474 4.474 0 0 1 -4.469 4.471m0-7.258a2.791 2.791 0 0 0 -2.787 2.787 2.79 2.79 0 0 0 2.787 2.787 2.79 2.79 0 0 0 2.792-2.787 2.791 2.791 0 0 0 -2.792-2.787" transform="translate(2.363 53.453)"/><path d="m22.072 25.7c-7.417 0-18.94-6.412-29.67-17.143-14.151-14.146-20.793-29.675-15.12-35.347s21.2.969 35.35 15.12c6.655 6.654 11.915 13.922 14.811 20.47 3.007 6.793 3.116 12.079.31 14.885a7.743 7.743 0 0 1 -5.681 2.015m-28.48-18.328c13.035 13.028 28.132 19.958 32.972 15.12 2.246-2.246 2.006-6.989-.66-13.014-2.816-6.36-7.951-13.447-14.46-19.958-13.035-13.033-28.134-19.956-32.972-15.12s2.087 19.937 15.12 32.972" transform="translate(26.466 30.24)"/><path d="m.4 21.655a.89.89 0 0 1 -.1-.006.843.843 0 0 1 -.736-.937c.911-7.641 7.436-18.352 17.036-27.951 9.544-9.544 20.215-16.07 27.85-17.029a.843.843 0 0 1 .94.73.84.84 0 0 1 -.73.938c-7.171.9-17.718 7.4-26.87 16.55-9.2 9.2-15.7 19.786-16.562 26.963a.842.842 0 0 1 -.834.742" transform="translate(2.266 25.809)"/><path d="m.4 21.52a.842.842 0 0 1 -.112-1.676c7.268-.985 17.512-7.317 26.723-16.53s15.536-19.438 16.527-26.707a.838.838 0 0 1 .948-.721.841.841 0 0 1 .721.948c-1.041 7.617-7.555 18.219-17.007 27.666s-20.071 15.981-27.69 17.012a.762.762 0 0 1 -.11.008" transform="translate(10.898 34.298)"/><path d="m2.19 5.354a3.921 3.921 0 0 1 -1.8-.441 5.788 5.788 0 0 1 -2.845-5.238c0-3.129 2.083-5.675 4.645-5.675s4.647 2.546 4.647 5.675a5.79 5.79 0 0 1 -2.851 5.238 3.921 3.921 0 0 1 -1.8.441m0-9.672c-1.629-.001-2.959 1.791-2.959 3.993a4.166 4.166 0 0 0 1.932 3.739 2.2 2.2 0 0 0 2.062 0 4.161 4.161 0 0 0 1.932-3.739c0-2.2-1.328-3.994-2.963-3.994" transform="translate(26.793 23.372)"/><path d="m7.71 3.739h-15.51a.841.841 0 0 1 -.842-.839v-3.136a3.959 3.959 0 0 1 3.955-3.955h3.227a.841.841 0 0 1 .842.84v.157a.562.562 0 0 0 .187.422.573.573 0 0 0 .445.146.617.617 0 0 0 .511-.63v-.095a.842.842 0 0 1 .842-.84h3.233a3.959 3.959 0 0 1 3.952 3.955v3.136a.841.841 0 0 1 -.842.842m-14.668-1.687h13.826v-2.291a2.274 2.274 0 0 0 -2.268-2.273h-2.514a2.277 2.277 0 0 1 -1.913 1.559 2.26 2.26 0 0 1 -1.735-.577 2.236 2.236 0 0 1 -.632-.982h-2.493a2.274 2.274 0 0 0 -2.271 2.273z" transform="translate(29.029 33.253)"/><path d="m1.063 2.649a2.259 2.259 0 0 1 -2.255-2.255v-2.522a.841.841 0 0 1 .4-.717.836.836 0 0 1 .821-.032 2.209 2.209 0 0 0 2.062 0 .836.836 0 0 1 .821.032.841.841 0 0 1 .4.717v2.522a2.259 2.259 0 0 1 -2.249 2.255m-.571-3.629v1.374a.571.571 0 1 0 1.143 0v-1.374a3.856 3.856 0 0 1 -1.143 0" transform="translate(27.92 29.664)"/></g></svg>