<svg height="57.669" viewBox="0 0 53.947 57.669" width="53.947" xmlns="http://www.w3.org/2000/svg"><g fill="#414042"><path d="m2.6.821h-4.961a.931.931 0 0 1 -.929-.931.931.931 0 0 1 .929-.929h4.961a.931.931 0 0 1 .931.929.931.931 0 0 1 -.931.931" transform="translate(23.132 41.965)"/><path d="m2.6.821h-4.961a.93.93 0 0 1 -.929-.931.93.93 0 0 1 .929-.929h4.961a.931.931 0 0 1 .931.929.931.931 0 0 1 -.931.931" transform="translate(30.573 41.965)"/><path d="m2.6.821h-4.961a.93.93 0 0 1 -.929-.931.93.93 0 0 1 .929-.929h4.961a.931.931 0 0 1 .931.929.931.931 0 0 1 -.931.931" transform="translate(38.014 41.965)"/><path d="m6.981.821h-14.881a.931.931 0 0 1 -.932-.931.931.931 0 0 1 .932-.929h14.881a.931.931 0 0 1 .931.929.931.931 0 0 1 -.931.931" transform="translate(27.433 50.647)"/><path d="m2.6.821h-4.961a.93.93 0 0 1 -.929-.931.93.93 0 0 1 .929-.929h4.961a.931.931 0 0 1 .931.929.931.931 0 0 1 -.931.931" transform="translate(19.412 45.686)"/><path d="m2.6.821h-4.961a.93.93 0 0 1 -.929-.931.93.93 0 0 1 .929-.929h4.961a.931.931 0 0 1 .931.929.931.931 0 0 1 -.931.931" transform="translate(15.691 41.965)"/><path d="m2.6.821h-4.961a.93.93 0 0 1 -.929-.931.93.93 0 0 1 .929-.929h4.961a.931.931 0 0 1 .931.929.931.931 0 0 1 -.931.931" transform="translate(26.853 45.686)"/><path d="m2.6.821h-4.961a.931.931 0 0 1 -.929-.931.931.931 0 0 1 .929-.929h4.961a.931.931 0 0 1 .931.929.931.931 0 0 1 -.931.931" transform="translate(34.294 45.686)"/><path d="m22.311 11.771h-47.126a3.413 3.413 0 0 1 -3.411-3.411v-3.21a3.375 3.375 0 0 1 .272-1.336c1.16-2.707 7.172-17.963 7.233-18.117a.928.928 0 0 1 .865-.589h8.682a.926.926 0 0 1 .591.211 14.4 14.4 0 0 0 9.33 3.509 14.41 14.41 0 0 0 9.332-3.509.926.926 0 0 1 .591-.211h8.68a.935.935 0 0 1 .868.593c.054.14 6.059 15.378 7.232 18.114a3.375 3.375 0 0 1 .272 1.336v3.209a3.413 3.413 0 0 1 -3.411 3.411m-41.533-24.8c-1.137 2.884-5.969 15.12-7.022 17.578a1.5 1.5 0 0 0 -.122.6v3.211a1.551 1.551 0 0 0 1.551 1.551h47.126a1.551 1.551 0 0 0 1.55-1.551v-3.21a1.5 1.5 0 0 0 -.122-.6c-.492-1.15-1.863-4.56-4.075-10.13-1.672-4.215-2.514-6.335-2.9-7.452h-7.764a16.091 16.091 0 0 1 -10.253 3.721 16.081 16.081 0 0 1 -10.252-3.721z" transform="translate(28.226 45.898)"/><path d="m9.171.821h-19.844a.93.93 0 0 1 -.927-.931.93.93 0 0 1 .929-.929h19.842a.931.931 0 0 1 .929.929.931.931 0 0 1 -.931.931" transform="translate(27.724 9.721)"/><path d="m9.171.821h-19.844a.93.93 0 0 1 -.927-.931.93.93 0 0 1 .929-.929h19.842a.931.931 0 0 1 .929.929.931.931 0 0 1 -.931.931" transform="translate(27.724 14.681)"/><path d="m4.791.821h-9.921a.931.931 0 0 1 -.931-.931.931.931 0 0 1 .931-.929h9.921a.931.931 0 0 1 .931.929.931.931 0 0 1 -.931.931" transform="translate(22.182 19.642)"/><path d="m1.506 4.106h-1.241a.93.93 0 0 1 0-1.86h1.241c.816 0 1.551-.213 1.551-2.791s-.735-2.79-1.551-2.79h-2.48a.931.931 0 0 1 -.926-.931.931.931 0 0 1 .931-.929h2.48c3.411 0 3.411 3.5 3.411 4.65s0 4.652-3.411 4.652" transform="translate(47.79 27.519)"/><path d="m2.054 4.106h-1.241c-3.413 0-3.413-3.5-3.413-4.651s0-4.65 3.411-4.65h2.483a.93.93 0 0 1 .929.929.93.93 0 0 1 -.929.931h-2.481c-.813 0-1.551.213-1.551 2.79s.738 2.791 1.551 2.791h1.241a.93.93 0 1 1 0 1.86" transform="translate(3.837 27.519)"/><path d="m15.741 11.224a.931.931 0 0 1 -.931-.931v-22.633h-32.864v22.633a.931.931 0 0 1 -.931.931.93.93 0 0 1 -.929-.931v-23.562a.93.93 0 0 1 .929-.931h34.726a.931.931 0 0 1 .931.931v23.562a.931.931 0 0 1 -.931.931" transform="translate(28.595 14.2)"/><path d="m17.931.821h-39.685a.931.931 0 0 1 -.931-.931.931.931 0 0 1 .931-.929h39.685a.931.931 0 0 1 .931.929.931.931 0 0 1 -.931.931" transform="translate(28.885 27.083)"/></g></svg>