<svg xmlns="http://www.w3.org/2000/svg" width="78.445" height="59.235" viewBox="0 0 78.445 59.235">
  <path id="Union_35" data-name="Union 35" d="M3.153,58.027l-.688-.561-.265.326A.926.926,0,0,1,.763,56.622l.265-.327L.34,55.735a.927.927,0,0,1-.133-1.3L10.946,41.217a.923.923,0,0,1,1.3-.134l.688.561.336-.413A12.954,12.954,0,0,1,12.1,23.66,12.913,12.913,0,1,1,23.432,44.673a13.149,13.149,0,0,1-1.343.07A12.773,12.773,0,0,1,14.707,42.4l-.336.413.689.561a.927.927,0,0,1,.133,1.3L4.455,57.893a.927.927,0,0,1-.623.338c-.032,0-.063.005-.095.005A.928.928,0,0,1,3.153,58.027Zm-.925-3.145L3.6,56l9.569-11.776L11.8,43.105ZM23.243,42.828A10.973,10.973,0,0,0,30.688,38.8h0A11.061,11.061,0,1,0,15.1,40.377l.033.026.032.027A10.966,10.966,0,0,0,23.243,42.828Zm6.643,3.1a.927.927,0,0,1,0-1.854H74.079a1.433,1.433,0,0,0,1.43-1.432V9.533H14.753v9.014a.926.926,0,1,1-1.851,0V3.286A3.287,3.287,0,0,1,16.183,0h57.9A3.287,3.287,0,0,1,77.36,3.286h0V42.642a3.287,3.287,0,0,1-3.281,3.286ZM14.753,3.286V7.679H75.509V3.286a1.434,1.434,0,0,0-1.43-1.433h-57.9A1.434,1.434,0,0,0,14.753,3.286Zm1.1,36.235a9.922,9.922,0,1,1,13.955-1.436h0a9.921,9.921,0,0,1-13.955,1.435ZM21.29,23.78a8.046,8.046,0,1,0,.84-.043A8.2,8.2,0,0,0,21.29,23.78ZM29.1,37.5H29.09ZM26.022,4.766A1.432,1.432,0,1,1,27.454,6.2,1.433,1.433,0,0,1,26.022,4.766Zm-4.66,0A1.432,1.432,0,1,1,22.793,6.2,1.433,1.433,0,0,1,21.361,4.766Zm-4.66,0A1.432,1.432,0,1,1,18.133,6.2,1.433,1.433,0,0,1,16.7,4.766Z" transform="translate(0.584 0.5)" fill="#fff" stroke="rgba(0,0,0,0)" stroke-miterlimit="10" stroke-width="1"/>
</svg>
