<svg xmlns="http://www.w3.org/2000/svg" width="83.649" height="50.087" viewBox="0 0 83.649 50.087">
  <path id="Union_37" data-name="Union 37" d="M10.034,49.087c-4.013,0-7.725-2.458-9.929-6.574a.91.91,0,0,1,.8-1.335H9.458V5.072A5.079,5.079,0,0,1,14.533,0H68.089A5.077,5.077,0,0,1,73.16,5.072V41.179h8.553a.911.911,0,0,1,.777.442.9.9,0,0,1,.022.893c-2.2,4.116-5.913,6.574-9.926,6.574Zm-7.368-5.9a9.261,9.261,0,0,0,7.368,4.087H72.586a9.261,9.261,0,0,0,7.368-4.087l.143-.2H2.523ZM11.274,5.072V41.18H71.347V5.072a3.262,3.262,0,0,0-3.258-3.258H14.533A3.263,3.263,0,0,0,11.274,5.072ZM11.4,41.057h0Zm22.4-5.781v-.005l-3.453-9.055-.731-.056A3.268,3.268,0,0,1,26.637,23.4l-.521-3.409a3.268,3.268,0,0,1,2.019-3.529l11.406-4.552.006,0,8.569-3.957a1.474,1.474,0,0,1,.649-.268,1.445,1.445,0,0,1,.216-.016,2.2,2.2,0,0,1,1.656.982,9.172,9.172,0,0,1,1.205,2.134,29.065,29.065,0,0,1,1.792,6.746,28.69,28.69,0,0,1,.291,7.123c-.254,2.313-.926,3.568-1.991,3.732a1.466,1.466,0,0,1-.217.016,2.207,2.207,0,0,1-.386-.067l-.028,0L41.914,27.1h0l-4.433-.34,1.186,4.786a5.346,5.346,0,0,1,.1.561v.012a3.8,3.8,0,0,1-3.1,4.361,1.8,1.8,0,0,1-.184.013A1.846,1.846,0,0,1,33.8,35.276Zm1.335-.52c.076.192.229.319.368.3h0a1.965,1.965,0,0,0,1.4-.885,2.833,2.833,0,0,0,.446-1.886,3.54,3.54,0,0,0-.076-.4l-1.3-5.242-4.047-.31Zm16.61-7.821a1.316,1.316,0,0,0,.325-.521,7.57,7.57,0,0,0,.432-2,27.413,27.413,0,0,0-.291-6.676,27.635,27.635,0,0,0-1.694-6.4c-.722-1.691-1.3-2.162-1.5-2.236l-.141.065a1.63,1.63,0,0,0-.269.467,7.564,7.564,0,0,0-.433,2,27.409,27.409,0,0,0-.054,3.445c2.075.1,3.669,1.164,3.9,2.685a2.921,2.921,0,0,1-.928,2.492,5.731,5.731,0,0,1-1.99,1.247,27.7,27.7,0,0,0,1.054,3.208,4.864,4.864,0,0,0,1.434,2.2Zm-11.3-13.87a15.674,15.674,0,0,0,1.935,12.654l7.158.93a9.227,9.227,0,0,1-.686-1.371,29.086,29.086,0,0,1-1.791-6.746,28.649,28.649,0,0,1-.292-7.123A11.429,11.429,0,0,1,47,10.038Zm.173,12.5a17.11,17.11,0,0,1-1.808-11.829l-10.148,4.05a1.829,1.829,0,0,0-1.135,1.983l.522,3.409a1.827,1.827,0,0,0,1.674,1.553l1.026.078a.712.712,0,0,1,.3.023Zm7.851-7.255q.124.9.307,1.78c1.18-.482,1.953-1.333,1.833-2.106s-1.109-1.353-2.379-1.461Q48.324,17.421,48.473,18.311Zm11.564,7.5-4.395-2.874a.716.716,0,1,1,.783-1.2h0l4.395,2.87a.716.716,0,0,1-.392,1.316v0A.711.711,0,0,1,60.037,25.811Zm-5.485-8.428a.716.716,0,0,1,.6-.816l3.2-.491a.716.716,0,0,1,.216,1.417l-3.2.49a.73.73,0,0,1-.109.008A.717.717,0,0,1,54.553,17.383Zm-.522-4.62a.717.717,0,0,1-.1-1.008L57.267,7.7a.718.718,0,0,1,1.11.91l0,0-3.335,4.055a.717.717,0,0,1-.554.262A.709.709,0,0,1,54.031,12.763Z" transform="translate(0.514 0.5)" fill="#fff" stroke="rgba(0,0,0,0)" stroke-miterlimit="10" stroke-width="1"/>
</svg>
