<svg height="57.668" viewBox="0 0 57.216 57.668" width="57.216" xmlns="http://www.w3.org/2000/svg"><g fill="#fff"><path d="m1.658 1.662v48.728a5.627 5.627 0 0 0 5.62 5.62h40.046a5.809 5.809 0 0 1 -1.759-4.167v-49.923zm49.731 56.006h-44.111a7.287 7.287 0 0 1 -7.278-7.278v-49.561a.826.826 0 0 1 .244-.587.8.8 0 0 1 .589-.242l45.567.268a.828.828 0 0 1 .825.828v50.747a4.172 4.172 0 0 0 4.167 4.167.829.829 0 0 1 0 1.658"/><path d="m514.154 422.954v12.729a4.168 4.168 0 0 0 8.336 0v-12.729zm4.167 18.554a5.831 5.831 0 0 1 -5.825-5.825v-13.557a.83.83 0 0 1 .828-.83h9.994a.83.83 0 0 1 .83.83v13.557a5.833 5.833 0 0 1 -5.827 5.825" transform="translate(-466.932 -383.839)"/><path d="m69.116 387.641h-14.593a.829.829 0 0 1 0-1.658h14.593a.829.829 0 0 1 0 1.658" transform="translate(-48.921 -351.666)"/><path d="m69.116 468.626h-14.593a.829.829 0 0 1 0-1.658h14.593a.829.829 0 0 1 0 1.658" transform="translate(-48.921 -425.451)"/><path d="m304.266 387.641h-14.593a.829.829 0 0 1 0-1.658h14.593a.829.829 0 0 1 0 1.658" transform="translate(-263.165 -351.666)"/><path d="m304.266 468.626h-14.593a.829.829 0 0 1 0-1.658h14.593a.829.829 0 0 1 0 1.658" transform="translate(-263.165 -425.451)"/><path d="m69.116 547.145h-14.593a.829.829 0 0 1 0-1.658h14.593a.829.829 0 0 1 0 1.658" transform="translate(-48.921 -496.989)"/><path d="m304.266 547.145h-14.593a.829.829 0 0 1 0-1.658h14.593a.829.829 0 0 1 0 1.658" transform="translate(-263.165 -496.989)"/><path d="m88.05 78.038h-35.05a1.267 1.267 0 0 1 -1.266-1.266v-21.883a1.267 1.267 0 0 1 1.266-1.266h35.05a1.267 1.267 0 0 1 1.266 1.266v21.883a1.267 1.267 0 0 1 -1.266 1.266m-34.718-1.6h34.384v-21.215h-34.384z" transform="translate(-47.133 -48.855)"/><path d="m179.746 120.331-5.548-2.56-2.113-5.733 2.56-5.548 5.733-2.113 5.548 2.56 2.113 5.733-2.56 5.548zm-4.276-3.731 4.344 2 4.489-1.654 2-4.344-1.654-4.489-4.344-2-4.489 1.654-2 4.344z" transform="translate(-156.785 -95.097)"/></g></svg>