<svg xmlns="http://www.w3.org/2000/svg" width="57.216" height="57.668" viewBox="0 0 57.216 57.668">
  <g id="Group_1564" data-name="Group 1564" transform="translate(12758 4616.834)">
    <path id="Path_3741" data-name="Path 3741" d="M1.658,1.662V50.39a5.627,5.627,0,0,0,5.62,5.62H47.324a5.809,5.809,0,0,1-1.759-4.167V1.92ZM51.389,57.668H7.278A7.287,7.287,0,0,1,0,50.39V.829A.826.826,0,0,1,.244.242.8.8,0,0,1,.833,0L46.4.268a.828.828,0,0,1,.825.828V51.843a4.172,4.172,0,0,0,4.167,4.167.829.829,0,0,1,0,1.658" transform="translate(-12758 -4616.834)" fill="#fff"/>
    <path id="Path_3742" data-name="Path 3742" d="M514.154,422.954v12.729a4.168,4.168,0,0,0,8.336,0V422.954Zm4.167,18.554a5.831,5.831,0,0,1-5.825-5.825V422.126a.83.83,0,0,1,.828-.83h9.994a.83.83,0,0,1,.83.83v13.557a5.833,5.833,0,0,1-5.827,5.825" transform="translate(-13224.932 -5000.673)" fill="#fff"/>
    <path id="Path_3743" data-name="Path 3743" d="M69.116,387.641H54.523a.829.829,0,0,1,0-1.658H69.116a.829.829,0,0,1,0,1.658" transform="translate(-12806.921 -4968.5)" fill="#fff"/>
    <path id="Path_3744" data-name="Path 3744" d="M69.116,468.626H54.523a.829.829,0,0,1,0-1.658H69.116a.829.829,0,0,1,0,1.658" transform="translate(-12806.921 -5042.285)" fill="#fff"/>
    <path id="Path_3745" data-name="Path 3745" d="M304.266,387.641H289.673a.829.829,0,0,1,0-1.658h14.593a.829.829,0,0,1,0,1.658" transform="translate(-13021.165 -4968.5)" fill="#fff"/>
    <path id="Path_3746" data-name="Path 3746" d="M304.266,468.626H289.673a.829.829,0,0,1,0-1.658h14.593a.829.829,0,0,1,0,1.658" transform="translate(-13021.165 -5042.285)" fill="#fff"/>
    <path id="Path_3747" data-name="Path 3747" d="M69.116,547.145H54.523a.829.829,0,0,1,0-1.658H69.116a.829.829,0,0,1,0,1.658" transform="translate(-12806.921 -5113.823)" fill="#fff"/>
    <path id="Path_3748" data-name="Path 3748" d="M304.266,547.145H289.673a.829.829,0,0,1,0-1.658h14.593a.829.829,0,0,1,0,1.658" transform="translate(-13021.165 -5113.823)" fill="#fff"/>
    <path id="Path_3749" data-name="Path 3749" d="M88.05,78.038H53a1.267,1.267,0,0,1-1.266-1.266V54.889A1.267,1.267,0,0,1,53,53.623H88.05a1.267,1.267,0,0,1,1.266,1.266V76.772a1.267,1.267,0,0,1-1.266,1.266m-34.718-1.6H87.716V55.223H53.332Z" transform="translate(-12805.133 -4665.689)" fill="#fff"/>
    <path id="Path_3750" data-name="Path 3750" d="M179.746,120.331l-5.548-2.56-2.113-5.733,2.56-5.548,5.733-2.113,5.548,2.56,2.113,5.733-2.56,5.548ZM175.47,116.6l4.344,2,4.489-1.654,2-4.344-1.654-4.489-4.344-2-4.489,1.654-2,4.344Z" transform="translate(-12914.785 -4711.931)" fill="#fff"/>
  </g>
</svg>
