<svg xmlns="http://www.w3.org/2000/svg" width="72.796" height="60.274" viewBox="0 0 72.796 60.274">
  <path id="Union_36" data-name="Union 36" d="M13465.871,5087.8a6.523,6.523,0,0,1-6.518-6.518v-1.917l-11.025,0a.85.85,0,0,1-.8-.552.825.825,0,0,1-.054-.294.861.861,0,0,1,.294-.647l11.581-9.975v-5.384h1.7v5.773a.857.857,0,0,1-.294.644l-10.142,8.739h9.586a.852.852,0,0,1,.85.85v2.767a4.823,4.823,0,0,0,4.818,4.818h19.88a4.826,4.826,0,0,0,4.822-4.818v-29.785a4.826,4.826,0,0,0-4.822-4.818h-4.4v-1.7h4.4a6.529,6.529,0,0,1,6.522,6.518v29.785a6.526,6.526,0,0,1-6.522,6.518Zm9.44-12.529-8.265-8.282a.852.852,0,0,1,0-1.2l2.645-2.648a.85.85,0,0,1,1.2,1.2l-2.046,2.049,7.666,7.68a4.143,4.143,0,1,0,5.855-5.858l-1.22-1.226a.85.85,0,0,1,0-1.2l1.216-1.215a4.2,4.2,0,0,0,.07-5.926,3.95,3.95,0,0,0-1.191-.823.85.85,0,0,1,.7-1.551,5.705,5.705,0,0,1,1.7,1.172,5.9,5.9,0,0,1-.071,8.33l-.619.617.619.626a5.891,5.891,0,0,1,.071,8.326,5.771,5.771,0,0,1-4.1,1.688A5.976,5.976,0,0,1,13475.312,5075.268Zm-23.919-16.446a6.528,6.528,0,0,1-6.519-6.518v-16.4l-11.577-9.979a.842.842,0,0,1-.3-.644.792.792,0,0,1,.055-.294.851.851,0,0,1,.795-.555h11.025v-1.917a6.526,6.526,0,0,1,6.519-6.519h19.88a6.526,6.526,0,0,1,6.521,6.519V5052.3a6.528,6.528,0,0,1-6.521,6.518Zm-5.113-23.946a.849.849,0,0,1,.291.643V5052.3a4.83,4.83,0,0,0,4.822,4.818h19.88a4.827,4.827,0,0,0,4.821-4.818V5022.52a4.825,4.825,0,0,0-4.821-4.819h-19.88a4.828,4.828,0,0,0-4.822,4.819v2.766a.848.848,0,0,1-.846.85h-9.587Zm16.026,13.538c-.48-.082-7.578-1.483-7.883-1.544a2.708,2.708,0,0,1-2.13-2.686v-10.575h1.7v10.575a.994.994,0,0,0,.793,1.023c2.021.4,7.426,1.462,7.8,1.527a1.983,1.983,0,0,0,1.053-.014c.193-.115.254-.284.261-.613v-6.247l1.229.616a10.244,10.244,0,0,0,4.733.576c.21-.021.772-.058.745-.687,0-.21,0-.583-.43-.637-5.146,0-6.867-4.4-7.271-5.75l1.629-.484a5.986,5.986,0,0,0,5.727,4.538,2.182,2.182,0,0,1,2.041,2.262,2.338,2.338,0,0,1-.515,1.6,2.473,2.473,0,0,1-1.743.854,13.522,13.522,0,0,1-4.446-.288v3.643a2.247,2.247,0,0,1-1.1,2.086,2.547,2.547,0,0,1-1.3.315A5.463,5.463,0,0,1,13462.306,5048.413Zm-10.839-16.223v-5.868h13.446v5.868Zm1.7-1.7h10.051v-2.468h-10.051Z" transform="translate(-5015.501 13492.773) rotate(-90)" fill="#fff" stroke="rgba(0,0,0,0)" stroke-miterlimit="10" stroke-width="1"/>
</svg>
