<svg xmlns="http://www.w3.org/2000/svg" width="65.312" height="61.646" viewBox="0 0 65.312 61.646">
  <path id="Union_38" data-name="Union 38" d="M15.711,59.937,11.933,46.687a.972.972,0,0,1,.668-1.2l10.274-2.93a.972.972,0,0,1,.533,1.869l-9.34,2.662L17.313,58.47,28.7,55.225l-.86-3.016a.972.972,0,1,1,1.869-.533l1.126,3.95a.972.972,0,0,1-.668,1.2L16.912,60.605a.943.943,0,0,1-.266.038A.971.971,0,0,1,15.711,59.937Zm6.153-9.257a.972.972,0,0,1,.01-1.163L32.736,35.225A.977.977,0,0,1,33,34.97l28.434-19.9a.971.971,0,0,1,1.113,1.592L36.369,34.984l1.5.093a.972.972,0,0,1,.841,1.337l-.472,1.157L62.735,20.81a.972.972,0,0,1,1.1,1.6L39.606,38.99l1.19-.08a.971.971,0,0,1,.98,1.294L41.3,41.551l21.4-15.085a.972.972,0,1,1,1.12,1.588L39.918,44.9a.941.941,0,0,1-.212.113l-.034.012-9.43,3.385-.032.012-7.234,2.6a.969.969,0,0,1-1.111-.339Zm3.541-2.6,3.3-1.185a4.381,4.381,0,0,0-1.178-1.609Zm5.134-1.843L38.6,43.348l.853-2.4-3.23.216a.97.97,0,0,1-.453-.062l-.011,0-.007,0-.02-.009h0a.97.97,0,0,1-.506-1.255l1.182-2.9-2.41-.149L28.706,43.74A6.314,6.314,0,0,1,30.539,46.241ZM9.763,39.077,5.985,25.826a.973.973,0,0,1,.668-1.2l11.459-3.267a.971.971,0,1,1,.533,1.868l-10.525,3L11.365,37.61l11.382-3.245L21.17,28.832a.971.971,0,0,1,1.868-.533l1.844,6.467a.971.971,0,0,1-.668,1.2L10.964,39.745a.943.943,0,0,1-.266.038A.971.971,0,0,1,9.763,39.077Zm5.275-4.536-2.88-1.6a.972.972,0,0,1,.944-1.7l2.031,1.13L21.259,21.36a.972.972,0,0,1,1.7.944l-6.6,11.861a.97.97,0,0,1-1.321.376ZM3.815,18.218.037,4.967A.972.972,0,0,1,.7,3.766L12.163.5A.972.972,0,0,1,12.7,2.368l-10.525,3L5.417,16.75,16.8,13.505,15.222,7.971a.971.971,0,1,1,1.868-.533l1.844,6.468a.97.97,0,0,1-.668,1.2L5.016,18.886a.969.969,0,0,1-1.2-.668ZM9.09,13.682l-2.88-1.6a.972.972,0,1,1,.944-1.7l2.032,1.13L15.312.5a.971.971,0,1,1,1.7.945l-6.6,11.86a.976.976,0,0,1-.583.463.961.961,0,0,1-.266.037A.973.973,0,0,1,9.09,13.682Z" transform="translate(0.504 0.503)" fill="#fff" stroke="rgba(0,0,0,0)" stroke-miterlimit="10" stroke-width="1"/>
</svg>
