<svg height="61.345" viewBox="0 0 60.896 61.345" width="60.896" xmlns="http://www.w3.org/2000/svg"><g fill="#fff"><path d="m210.985 61.345a13.779 13.779 0 0 1 -11.43-6.077 1.02 1.02 0 0 1 1.69-1.141 11.744 11.744 0 0 0 19.857-.6l.011-.018a11.761 11.761 0 0 0 .666-1.309l.028-.059 10.451-20.551a20.143 20.143 0 0 0 -34.7-20.382 1.02 1.02 0 0 1 -1.709-1.112 22.182 22.182 0 0 1 38.216 22.442l-.008.016-10.419 20.481a13.8 13.8 0 0 1 -.754 1.482l-.632 1.242-.109-.109a13.766 13.766 0 0 1 -11.159 5.695" transform="translate(-175.731)"/><path d="m261.143 353.909a6.057 6.057 0 0 1 -3.23-11.181 1.02 1.02 0 0 1 1.087 1.724 4.018 4.018 0 1 0 5.408 5.738 1.02 1.02 0 0 1 1.657 1.188 6.074 6.074 0 0 1 -4.925 2.53" transform="translate(-229.079 -307.642)"/><path d="m346.982 183.331a1.02 1.02 0 0 1 -.881-1.531 4.018 4.018 0 0 0 -6.74-4.356 1.02 1.02 0 0 1 -1.654-1.192 6.057 6.057 0 0 1 10.159 6.571 1.019 1.019 0 0 1 -.883.508" transform="translate(-303.101 -156.019)"/><path d="m259.035 101.986a1.02 1.02 0 0 1 -.559-1.873c3.724-2.432 3.591-5.136 3.576-5.332l-.007-.05v-.03a5.637 5.637 0 0 0 -2.4-2.771 8.424 8.424 0 0 1 -3.118-3.508 7.552 7.552 0 0 1 -.717-4.552 13.516 13.516 0 0 1 13.179-11.47h.186a13.521 13.521 0 0 1 12.674 18.21 1.02 1.02 0 0 1 -1.912-.709 11.5 11.5 0 0 0 -10.763-15.462h-.158a11.477 11.477 0 0 0 -11.184 9.736 5.523 5.523 0 0 0 .522 3.33 6.294 6.294 0 0 0 2.368 2.689l.07.045c.536.377 3.2 2.351 3.291 4.366.04.506.155 4.179-4.492 7.214a1.015 1.015 0 0 1 -.557.166" transform="translate(-229.655 -65.018)"/><path d="m433.539 240.569a1.02 1.02 0 0 1 -.9-1.5 100.226 100.226 0 0 0 5.311-11.485 27.084 27.084 0 0 0 1.152-3.622 1.02 1.02 0 0 1 2 .39c-.038.2-1 4.97-6.662 15.671a1.019 1.019 0 0 1 -.9.543" transform="translate(-388.421 -200.39)"/><path d="m345.677 244.548a1.02 1.02 0 0 1 -.843-1.592 42.694 42.694 0 0 0 3.59-8.011 22.535 22.535 0 0 1 1.892-3.925 23.416 23.416 0 0 0 2.755-7.043 1.02 1.02 0 0 1 2.007.359 25.072 25.072 0 0 1 -3.018 7.739 20.481 20.481 0 0 0 -1.721 3.569 46.155 46.155 0 0 1 -3.818 8.457 1.019 1.019 0 0 1 -.845.448" transform="translate(-309.518 -200.386)"/><path d="m97.816 181.339a1.02 1.02 0 0 1 -.732-1.729 21.405 21.405 0 0 0 0-29.79 1.02 1.02 0 0 1 1.464-1.419 23.444 23.444 0 0 1 0 32.628 1.016 1.016 0 0 1 -.732.31" transform="translate(-86.928 -132.992)"/><path d="m48.337 216.787a1.02 1.02 0 0 1 -.732-1.729 14.578 14.578 0 0 0 -.162-20.478 1.02 1.02 0 1 1 1.442-1.442 16.618 16.618 0 0 1 .184 23.34 1.017 1.017 0 0 1 -.732.31" transform="translate(-42.339 -173.177)"/><path d="m1.117 254.4a1.02 1.02 0 0 1 -.732-1.729 7.759 7.759 0 0 0 2.2-5.426 7.75 7.75 0 0 0 -2.285-5.519 1.02 1.02 0 0 1 1.442-1.442 9.776 9.776 0 0 1 2.885 6.956 9.788 9.788 0 0 1 -2.777 6.846 1.017 1.017 0 0 1 -.732.31" transform="translate(-.001 -215.516)"/></g></svg>