<svg xmlns="http://www.w3.org/2000/svg"
  xmlns:xlink="http://www.w3.org/1999/xlink" width="158.986" height="43.838" viewBox="0 0 158.986 43.838">
  <defs>
    <clipPath id="clip-path">
      <path id="Path_6" data-name="Path 6" d="M658.59,29.48l15.5,15.5v0L667.67,29.48Z" transform="translate(-658.59 -29.48)" fill="none"/>
    </clipPath>
  </defs>
  <g id="Group_662" data-name="Group 662" transform="translate(-760.522 -442.253)">
    <path id="Path_1" data-name="Path 1" d="M10.371,60.332l2.613,6.379H7.758Zm-1.939-5.2L0,74.946H4.413l1.8-4.413H14.53l1.8,4.413h4.526L12.422,55.132Z" transform="translate(760.522 399.133)" fill="#414042"/>
    <path id="Path_2" data-name="Path 2" d="M131.786,66.216a6.163,6.163,0,0,0,1.167-3.892v-.056a6.079,6.079,0,0,0-1.687-4.5,7.764,7.764,0,0,0-5.733-2h-8.994V75.449h4.328v-6.3h3.4l4.216,6.3h5.059l-4.806-7.026a6.75,6.75,0,0,0,3.049-2.207m-3.218-3.666a2.568,2.568,0,0,1-.858,2.022,3.593,3.593,0,0,1-2.459.759h-4.384V59.682h4.3a3.969,3.969,0,0,1,2.5.7,2.508,2.508,0,0,1,.9,2.107Z" transform="translate(669.374 398.629)" fill="#414042"/>
    <path id="Path_3" data-name="Path 3" d="M236.6,66.216a6.163,6.163,0,0,0,1.167-3.892v-.056a6.083,6.083,0,0,0-1.686-4.5,7.765,7.765,0,0,0-5.733-2H221.35V75.449h4.328v-6.3h3.4l4.216,6.3h5.06l-4.806-7.026a6.752,6.752,0,0,0,3.049-2.207m-3.218-3.666a2.57,2.57,0,0,1-.857,2.022,3.594,3.594,0,0,1-2.459.759h-4.385V59.682h4.3a3.972,3.972,0,0,1,2.5.7,2.509,2.509,0,0,1,.9,2.107Z" transform="translate(587.398 398.629)" fill="#414042"/>
    <path id="Path_4" data-name="Path 4" d="M325.667,55.132l-8.431,19.814h4.413l1.8-4.413h8.319l1.8,4.413h4.525l-8.432-19.814Zm-.674,11.579,2.614-6.379,2.614,6.379Z" transform="translate(512.403 399.133)" fill="#414042"/>
    <path id="Path_5" data-name="Path 5" d="M428.969,55.776l-4.778,7.9-4.693-7.9h-5.059L422,67.693V75.45h4.329V67.608l7.56-11.832Z" transform="translate(436.378 398.629)" fill="#414042"/>
  </g>
</svg>