<svg xmlns="http://www.w3.org/2000/svg" width="22.649" height="22.097" viewBox="0 0 22.649 22.097">
  <path id="Union_14" data-name="Union 14" d="M20.3,21.694l-6.41-6.4a8.561,8.561,0,1,1,3.278-6.73,8.487,8.487,0,0,1-1.416,4.707l6.493,6.479a1.374,1.374,0,0,1-1.945,1.94Zm-5.508-7.17,6.347,6.333a.193.193,0,0,0,.134.051.186.186,0,0,0,.133-.051.186.186,0,0,0,0-.267l-6.346-6.334ZM1.187,8.567a7.4,7.4,0,1,0,7.4-7.383A7.4,7.4,0,0,0,1.187,8.567Zm12.8,0a5.4,5.4,0,0,0-5.4-5.389.592.592,0,1,1,0-1.183,6.587,6.587,0,0,1,6.586,6.573.593.593,0,0,1-1.186,0Z" fill="#2c3a9f"/>
</svg>
