<svg xmlns="http://www.w3.org/2000/svg" width="99.275" height="111.151" viewBox="0 0 99.275 111.151">
    <g id="Group_1799" data-name="Group 1799" transform="translate(-1858.23 -3066.828)">
        <path id="Path_2402" data-name="Path 2402" d="M56.887,85.137v5.444H29.27V85.137a16.9,16.9,0,0,0,9.784-8.991,2.919,2.919,0,0,0,1.389.347h5.27a2.87,2.87,0,0,0,1.377-.347A16.964,16.964,0,0,0,56.887,85.137Z" transform="translate(1864.787 3084.62)" fill="none" stroke="#fff" stroke-linecap="round" stroke-linejoin="round" stroke-width="1.5"></path>
        <path id="Path_2403" data-name="Path 2403" d="M51.96,58.64c-.273,5.742-1.513,12.922-5.407,18.639a2.962,2.962,0,0,0-1.637-.5h-5.27a2.891,2.891,0,0,0-1.625.5c-3.894-5.717-5.146-12.9-5.419-18.639a9.687,9.687,0,1,1,19.358,0Z" transform="translate(1865.585 3077.994)" fill="none" stroke="#fff" stroke-linecap="round" stroke-linejoin="round" stroke-width="1.5"></path>
        <path id="Path_2404" data-name="Path 2404" d="M47.086,74.28v.409A2.937,2.937,0,0,1,45.5,77.306a2.871,2.871,0,0,1-1.376.347h-5.27a2.919,2.919,0,0,1-1.389-.347A2.953,2.953,0,0,1,35.9,74.689V74.28a2.93,2.93,0,0,1,1.327-2.468,2.891,2.891,0,0,1,1.625-.5h5.27a2.97,2.97,0,0,1,2.964,2.964Z" transform="translate(1866.379 3083.461)" fill="none" stroke="#fff" stroke-linecap="round" stroke-linejoin="round" stroke-width="1.5"></path>
        <path id="Path_2405" data-name="Path 2405" d="M66.267,35.69c.688,3.238-1.851,4.4-4.009,3.915a3.229,3.229,0,0,1-2.732-3.358c.439-6.674,14.291-11.028,19.729-15.383,6.177-4.949,6.63-11.571,3.633-15.253A7.913,7.913,0,0,0,69,9.918a2.22,2.22,0,0,1-4.416-.334V3.223A2.224,2.224,0,0,0,62.355,1h-2.83" transform="translate(1872.05 3066.578)" fill="none" stroke="#fff" stroke-linecap="round" stroke-linejoin="round" stroke-width="1.5"></path>
        <path id="Path_2406" data-name="Path 2406" d="M19.418,35.69c-.688,3.238,1.851,4.4,4.009,3.915a3.229,3.229,0,0,0,2.732-3.358C25.721,29.573,11.868,25.219,6.43,20.864.255,15.915-.2,9.293,2.8,5.611A7.913,7.913,0,0,1,16.688,9.918a2.221,2.221,0,0,0,4.417-.334V3.223A2.223,2.223,0,0,1,23.329,1h2.83" transform="translate(1858 3066.578)" fill="none" stroke="#fff" stroke-linecap="round" stroke-linejoin="round" stroke-width="1.5"></path>
        <path id="Path_2407" data-name="Path 2407" d="M21.288,1V36.247a23.708,23.708,0,1,0,47.416,0V1Z" transform="translate(1862.871 3066.578)" fill="none" stroke="#fff" stroke-linecap="round" stroke-linejoin="round" stroke-width="1.5"></path>
        <circle id="Ellipse_15" data-name="Ellipse 15" cx="17.169" cy="17.169" r="17.169" transform="translate(1890.698 3078.936)" fill="none" stroke="#fff" stroke-linecap="round" stroke-linejoin="round" stroke-width="1.5"></circle>
        <path id="Path_2408" data-name="Path 2408" d="M42.147,16.378l2.123,6.534h6.87L45.582,26.95,47.7,33.485l-5.558-4.039-5.558,4.039,2.123-6.535-5.558-4.038h6.87Z" transform="translate(1865.72 3070.27)" fill="none" stroke="#fff" stroke-linecap="round" stroke-linejoin="round" stroke-width="1.5"></path>
        <line id="Line_9" data-name="Line 9" x2="66.847" transform="translate(1874.443 3177.229)" fill="none" stroke="#fff" stroke-linecap="round" stroke-linejoin="round" stroke-width="1.5"></line>
        <path id="Path_2409" data-name="Path 2409" d="M13.086,37.849s2.527,12.324,13.4,16.622" transform="translate(1860.902 3075.426)" fill="none" stroke="#fff" stroke-linecap="round" stroke-linejoin="round" stroke-width="1.5"></path>
        <path id="Path_2410" data-name="Path 2410" d="M7.174,49.7S10.966,60.012,18.8,61.508" transform="translate(1859.482 3078.27)" fill="none" stroke="#fff" stroke-linecap="round" stroke-linejoin="round" stroke-width="1.5"></path>
        <path id="Path_2411" data-name="Path 2411" d="M70.319,37.849s-2.529,12.324-13.4,16.622" transform="translate(1871.426 3075.426)" fill="none" stroke="#fff" stroke-linecap="round" stroke-linejoin="round" stroke-width="1.5"></path>
        <path id="Path_2412" data-name="Path 2412" d="M75.888,49.7S72.1,60.012,64.26,61.508" transform="translate(1873.188 3078.27)" fill="none" stroke="#fff" stroke-linecap="round" stroke-linejoin="round" stroke-width="1.5"></path>
    </g>
</svg>