<svg height="111.151" viewBox="0 0 99.275 111.151" width="99.275" xmlns="http://www.w3.org/2000/svg"><g fill="none" stroke="#fff" stroke-linecap="round" stroke-linejoin="round" stroke-width="1.5"><path d="m56.887 85.137v5.444h-27.617v-5.444a16.9 16.9 0 0 0 9.784-8.991 2.919 2.919 0 0 0 1.389.347h5.27a2.87 2.87 0 0 0 1.377-.347 16.964 16.964 0 0 0 9.797 8.991z" transform="translate(6.557 17.792)"/><path d="m51.96 58.64c-.273 5.742-1.513 12.922-5.407 18.639a2.962 2.962 0 0 0 -1.637-.5h-5.27a2.891 2.891 0 0 0 -1.625.5c-3.894-5.717-5.146-12.9-5.419-18.639a9.687 9.687 0 1 1 19.358 0z" transform="translate(7.355 11.166)"/><path d="m47.086 74.28v.409a2.937 2.937 0 0 1 -1.586 2.617 2.871 2.871 0 0 1 -1.376.347h-5.27a2.919 2.919 0 0 1 -1.389-.347 2.953 2.953 0 0 1 -1.565-2.617v-.409a2.93 2.93 0 0 1 1.327-2.468 2.891 2.891 0 0 1 1.625-.5h5.27a2.97 2.97 0 0 1 2.964 2.964z" transform="translate(8.149 16.633)"/><path d="m66.267 35.69c.688 3.238-1.851 4.4-4.009 3.915a3.229 3.229 0 0 1 -2.732-3.358c.439-6.674 14.291-11.028 19.729-15.383 6.177-4.949 6.63-11.571 3.633-15.253a7.913 7.913 0 0 0 -13.888 4.307 2.22 2.22 0 0 1 -4.416-.334v-6.361a2.224 2.224 0 0 0 -2.229-2.223h-2.83" transform="translate(13.82 -.25)"/><path d="m19.418 35.69c-.688 3.238 1.851 4.4 4.009 3.915a3.229 3.229 0 0 0 2.732-3.358c-.438-6.674-14.291-11.028-19.729-15.383-6.175-4.949-6.63-11.571-3.63-15.253a7.913 7.913 0 0 1 13.888 4.307 2.221 2.221 0 0 0 4.417-.334v-6.361a2.223 2.223 0 0 1 2.224-2.223h2.83" transform="translate(-.23 -.25)"/><path d="m21.288 1v35.247a23.708 23.708 0 1 0 47.416 0v-35.247z" transform="translate(4.641 -.25)"/><circle cx="49.637" cy="29.277" r="17.169"/><path d="m42.147 16.378 2.123 6.534h6.87l-5.558 4.038 2.118 6.535-5.558-4.039-5.558 4.039 2.123-6.535-5.558-4.038h6.87z" transform="translate(7.49 3.442)"/><path d="m16.213 110.401h66.847"/><path d="m13.086 37.849s2.527 12.324 13.4 16.622" transform="translate(2.672 8.598)"/><path d="m7.174 49.7s3.792 10.312 11.626 11.808" transform="translate(1.252 11.442)"/><path d="m70.319 37.849s-2.529 12.324-13.4 16.622" transform="translate(13.196 8.598)"/><path d="m75.888 49.7s-3.788 10.312-11.628 11.808" transform="translate(14.958 11.442)"/></g></svg>