<svg xmlns="http://www.w3.org/2000/svg" width="89.926" height="93.044" viewBox="0 0 89.926 93.044">
    <g id="Group_1168" data-name="Group 1168" transform="translate(-1145.58 -234.308)">
        <g id="Group_1157" data-name="Group 1157" transform="translate(1148.272 284.994)">
            <path id="Path_2493" data-name="Path 2493" d="M22.5,23.058a9.354,9.354,0,0,1-5.971,2.1A9.51,9.51,0,0,1,7.994,19.9a12.712,12.712,0,0,1,.384-6,1.221,1.221,0,0,0-2.3-.823,14.519,14.519,0,0,0-.636,6.176A9.6,9.6,0,0,1-4.837,9.7a9.477,9.477,0,0,1,.451-2.8L1.208,3.959A1.22,1.22,0,1,0,.072,1.8L-5.581,4.774a9.616,9.616,0,0,1-6.376-8.995,9.55,9.55,0,0,1,1.6-5.294A6.655,6.655,0,0,1-4-12.237a1.23,1.23,0,0,0,1.384-1.033,1.223,1.223,0,0,0-1.033-1.384A9.044,9.044,0,0,0-12.4-10.845,11.968,11.968,0,0,0-14.4-4.221,12.1,12.1,0,0,0-6.939,6.9a11.817,11.817,0,0,0-.338,2.8A12.035,12.035,0,0,0,6.148,21.636,11.927,11.927,0,0,0,16.524,27.6a11.749,11.749,0,0,0,7.511-2.652,1.219,1.219,0,1,0-1.54-1.891" transform="translate(14.396 14.756)" fill="#fff"></path>
        </g>
        <g id="Group_1158" data-name="Group 1158" transform="translate(1145.58 234.31)">
            <path id="Path_2494" data-name="Path 2494" d="M1.835,30.349a9.533,9.533,0,0,1,3.19-10.83H9.94a1.22,1.22,0,0,0,0-2.44H5.209A9.5,9.5,0,0,1,3.956,12.4a9.614,9.614,0,0,1,6.086-8.882A9.336,9.336,0,0,0,16.859,6.8a7.937,7.937,0,0,0,1.425-.128,1.219,1.219,0,1,0-.425-2.4c-2.2.384-4.3-.51-6.24-2.642a9.568,9.568,0,0,1-.543-3.149,9.578,9.578,0,0,1,10.971-9.461l1.681,2.606a1.218,1.218,0,0,0,1.025.559,1.225,1.225,0,0,0,.661-.195A1.219,1.219,0,0,0,25.777-9.7l-1.6-2.486a9.487,9.487,0,0,1,8.264-4.8A9.56,9.56,0,0,1,41.9-7.35s0,.005,0,.008l.115,4.564a1.22,1.22,0,0,0,1.22,1.192.125.125,0,0,0,.031,0,1.22,1.22,0,0,0,1.189-1.251L44.34-7.434c0-.005-.005-.013-.005-.018a12,12,0,0,0-11.9-11.97,11.92,11.92,0,0,0-10.373,5.966A12.025,12.025,0,0,0,8.636-1.52a11.817,11.817,0,0,0,.338,2.8A12.1,12.1,0,0,0,1.517,12.4a11.953,11.953,0,0,0,1.42,5.663A12.053,12.053,0,0,0-1.174,27.1a11.921,11.921,0,0,0,.715,4.08,1.221,1.221,0,0,0,1.145.807,1.26,1.26,0,0,0,.418-.074,1.22,1.22,0,0,0,.73-1.563" transform="translate(1.174 19.422)" fill="#fff"></path>
        </g>
        <g id="Group_1159" data-name="Group 1159" transform="translate(1164.553 285.085)">
            <path id="Path_2495" data-name="Path 2495" d="M.55,4.723a8.826,8.826,0,0,0,2.283.32c2.5,0,5.5-1.251,7.014-6.509a1.218,1.218,0,0,0-.833-1.509A1.218,1.218,0,0,0,7.5-2.142C6.382,1.741,4.317,3.217,1.188,2.368A1.22,1.22,0,0,0,.55,4.723" transform="translate(0.352 3.023)" fill="#fff"></path>
        </g>
        <g id="Group_1160" data-name="Group 1160" transform="translate(1189.874 277.027)">
            <path id="Path_2496" data-name="Path 2496" d="M27.825,2.319a12,12,0,0,0-.349-2.875A1.219,1.219,0,0,0,26-1.448,1.22,1.22,0,0,0,25.109.028a9.519,9.519,0,0,1,.277,2.291,9.6,9.6,0,0,1-3.621,7.465l-4.5-.62a1.221,1.221,0,0,0-.333,2.419l4.431.61A9.513,9.513,0,0,1,22.7,17.019a9.632,9.632,0,0,1-6.788,9.156c-.659.062-4.413.315-6.089-2.194a1.22,1.22,0,0,0-2.03,1.356c1.93,2.888,5.379,3.319,7.26,3.319.077,0,.138,0,.21-.005a9.455,9.455,0,0,1,.318,2.288A9.591,9.591,0,0,1,4.764,40.42l-1.927-4.4A1.221,1.221,0,0,0,.6,37l1.958,4.461A9.493,9.493,0,0,1-5.786,46.4a9.59,9.59,0,0,1-9.579-9.576l.02-5.235a1.223,1.223,0,0,0-1.217-1.225h-.005a1.22,1.22,0,0,0-1.22,1.215l-.021,5.241A12.035,12.035,0,0,0-5.786,48.841,11.927,11.927,0,0,0,4.59,42.875,12.042,12.042,0,0,0,18.016,30.939a11.818,11.818,0,0,0-.338-2.8,12.1,12.1,0,0,0,7.457-11.117,11.953,11.953,0,0,0-1.42-5.663,12.048,12.048,0,0,0,4.11-9.036" transform="translate(17.807 1.484)" fill="#fff"></path>
        </g>
        <g id="Group_1161" data-name="Group 1161" transform="translate(1194.341 234.308)">
            <path id="Path_2497" data-name="Path 2497" d="M1.181,2.6A9.572,9.572,0,0,1,14.732,5c-2.106,1.051-4.451,3.5-3.711,8.062a1.22,1.22,0,0,0,1.2,1.025,1.28,1.28,0,0,0,.2-.015,1.22,1.22,0,0,0,1.01-1.4c-.766-4.72,2.85-5.722,3.324-5.832A9.5,9.5,0,0,1,27.716,19.02L21.046,23.1a4.615,4.615,0,0,0-.546-.618c-2.173-2.022-5.569-1.225-5.712-1.192a1.22,1.22,0,0,0,.569,2.373c.63-.149,2.486-.325,3.488.612s.94,2.852.7,4.28a1.221,1.221,0,0,0,1,1.4,1.313,1.313,0,0,0,.2.015,1.218,1.218,0,0,0,1.2-1.02A10.308,10.308,0,0,0,22,25.37a.137.137,0,0,0,.028-.013l6.868-4.195a9.614,9.614,0,0,1,6.389,9,9.492,9.492,0,0,1-1.55,5.225c-.264.343-2.7,3.3-7.419.9a1.219,1.219,0,1,0-1.107,2.173,9.974,9.974,0,0,0,4.541,1.184,7.532,7.532,0,0,0,5.981-2.855,11.97,11.97,0,0,0,1.994-6.627,12.1,12.1,0,0,0-7.457-11.117,11.78,11.78,0,0,0,.338-2.8A12.031,12.031,0,0,0,17.174,4.305,11.925,11.925,0,0,0,6.8-1.663,11.936,11.936,0,0,0-.252.623,1.22,1.22,0,0,0,1.181,2.6" transform="translate(0.756 1.663)" fill="#fff"></path>
        </g>
        <g id="Group_1162" data-name="Group 1162" transform="translate(1196.661 295.12)">
            <path id="Path_2498" data-name="Path 2498" d="M5.521,1.391A1.218,1.218,0,0,0,5.977-.272,1.216,1.216,0,0,0,4.314-.729a5.819,5.819,0,0,0-3.055,5.01H-2.313A1.219,1.219,0,0,0-3.533,5.5a1.219,1.219,0,0,0,1.22,1.22H1.615c.028.079.044.164.072.243a6.013,6.013,0,0,0,5.576,4.069,5.852,5.852,0,0,0,1.2-.126,1.221,1.221,0,0,0-.5-2.388A3.478,3.478,0,0,1,3.968,6.1,3.688,3.688,0,0,1,5.521,1.391" transform="translate(3.533 0.89)" fill="#fff"></path>
        </g>
        <g id="Group_1163" data-name="Group 1163" transform="translate(1160.269 265.8)">
            <path id="Path_2499" data-name="Path 2499" d="M2.2.245A1.22,1.22,0,0,0,.478.16C-1.47,1.926-2,5.79-.683,8.6A6.585,6.585,0,0,0,5.675,12.3a11.1,11.1,0,0,0,1.591-.118A1.219,1.219,0,1,0,6.92,9.77c-2.668.384-4.533-.382-5.394-2.212C.6,5.6,1.1,2.894,2.118,1.967A1.219,1.219,0,0,0,2.2.245" transform="translate(1.409 0.157)" fill="#fff"></path>
        </g>
        <g id="Group_1164" data-name="Group 1164" transform="translate(1211.985 279.206)">
            <path id="Path_2500" data-name="Path 2500" d="M1.1.026A1.223,1.223,0,0,0-.4.882,7.04,7.04,0,0,0,.324,6.651c.769,1.184,2.37,2.7,5.627,3.193a1.488,1.488,0,0,0,.185.013A1.22,1.22,0,0,0,6.315,7.43,5.4,5.4,0,0,1,2.369,5.318a4.738,4.738,0,0,1-.415-3.793A1.22,1.22,0,0,0,1.1.026" transform="translate(0.703 0.017)" fill="#fff"></path>
        </g>
        <g id="Group_1165" data-name="Group 1165" transform="translate(1167.234 302.608)">
            <path id="Path_2501" data-name="Path 2501" d="M1.34,2.525c1.107-1.479,2.311-2,3.575-1.54A3.711,3.711,0,0,1,7.29,3.871,1.222,1.222,0,0,0,8.448,5.149H8.51A1.219,1.219,0,0,0,9.727,3.991C9.829,1.933,8-.493,5.74-1.311,3.451-2.136,1.135-1.27-.613,1.062A1.22,1.22,0,1,0,1.34,2.525" transform="translate(0.857 1.616)" fill="#fff"></path>
        </g>
        <g id="Group_1166" data-name="Group 1166" transform="translate(1167.249 251.015)">
            <path id="Path_2502" data-name="Path 2502" d="M3.206,3.173H3.3C6.274,3.109,8.237.067,8.319-.064A1.22,1.22,0,0,0,7.94-1.748a1.221,1.221,0,0,0-1.684.379C5.918-.833,4.636.7,3.25.733,2.238.782,1.215,0,.17-1.5a1.216,1.216,0,0,0-1.7-.308,1.221,1.221,0,0,0-.308,1.7C-.32,2.068,1.374,3.173,3.206,3.173" transform="translate(2.052 2.03)" fill="#fff"></path>
        </g>
        <g id="Group_1167" data-name="Group 1167" transform="translate(1179.597 257.482)">
            <path id="Path_2503" data-name="Path 2503" d="M13.94,10.86a1.218,1.218,0,0,0-1.043-.589H7.951L9.717,5.248a1.22,1.22,0,0,0-2.3-.81l-2.337,6.65A1.218,1.218,0,0,0,6.229,12.71h4.649l-12.9,24.6h-.32L.051,15.565a1.213,1.213,0,0,0-.3-.948,1.214,1.214,0,0,0-.907-.4H-6.225L-2.65-4.51H10.563L9.976-2.837a1.217,1.217,0,0,0,.746,1.553,1.216,1.216,0,0,0,1.556-.746l1.158-3.3a1.223,1.223,0,0,0-.154-1.11,1.223,1.223,0,0,0-1-.515H-3.66a1.219,1.219,0,0,0-1.2.992L-8.9,15.2a1.229,1.229,0,0,0,.259,1.007,1.218,1.218,0,0,0,.94.443h5.176L-4.913,38.4a1.223,1.223,0,0,0,.3.948,1.233,1.233,0,0,0,.91.4h2.417A1.22,1.22,0,0,0-.2,39.095L13.976,12.059a1.22,1.22,0,0,0-.036-1.2" transform="translate(8.921 6.95)" fill="#fff"></path>
        </g>
    </g>
</svg>