<svg height="93.044" viewBox="0 0 89.926 93.044" width="89.926" xmlns="http://www.w3.org/2000/svg"><g fill="#fff"><path d="m22.5 23.058a9.354 9.354 0 0 1 -5.971 2.1 9.51 9.51 0 0 1 -8.535-5.258 12.712 12.712 0 0 1 .384-6 1.221 1.221 0 0 0 -2.3-.823 14.519 14.519 0 0 0 -.636 6.176 9.6 9.6 0 0 1 -10.279-9.553 9.477 9.477 0 0 1 .451-2.8l5.594-2.941a1.22 1.22 0 1 0 -1.136-2.159l-5.653 2.974a9.616 9.616 0 0 1 -6.376-8.995 9.55 9.55 0 0 1 1.6-5.294 6.655 6.655 0 0 1 6.357-2.722 1.23 1.23 0 0 0 1.384-1.033 1.223 1.223 0 0 0 -1.033-1.384 9.044 9.044 0 0 0 -8.751 3.809 11.968 11.968 0 0 0 -2 6.624 12.1 12.1 0 0 0 7.461 11.121 11.817 11.817 0 0 0 -.338 2.8 12.035 12.035 0 0 0 13.425 11.936 11.927 11.927 0 0 0 10.376 5.964 11.749 11.749 0 0 0 7.511-2.652 1.219 1.219 0 1 0 -1.54-1.891" transform="translate(17.088 65.442)"/><path d="m1.835 30.349a9.533 9.533 0 0 1 3.19-10.83h4.915a1.22 1.22 0 0 0 0-2.44h-4.731a9.5 9.5 0 0 1 -1.253-4.679 9.614 9.614 0 0 1 6.086-8.882 9.336 9.336 0 0 0 6.817 3.282 7.937 7.937 0 0 0 1.425-.128 1.219 1.219 0 1 0 -.425-2.4c-2.2.384-4.3-.51-6.24-2.642a9.568 9.568 0 0 1 -.543-3.149 9.578 9.578 0 0 1 10.971-9.461l1.681 2.606a1.218 1.218 0 0 0 1.025.559 1.225 1.225 0 0 0 .661-.195 1.219 1.219 0 0 0 .363-1.69l-1.6-2.486a9.487 9.487 0 0 1 8.264-4.8 9.56 9.56 0 0 1 9.459 9.636s0 .005 0 .008l.115 4.564a1.22 1.22 0 0 0 1.22 1.192.125.125 0 0 0 .031 0 1.22 1.22 0 0 0 1.189-1.251l-.115-4.597c0-.005-.005-.013-.005-.018a12 12 0 0 0 -11.9-11.97 11.92 11.92 0 0 0 -10.373 5.966 12.025 12.025 0 0 0 -13.426 11.936 11.817 11.817 0 0 0 .338 2.8 12.1 12.1 0 0 0 -7.457 11.12 11.953 11.953 0 0 0 1.42 5.663 12.053 12.053 0 0 0 -4.111 9.037 11.921 11.921 0 0 0 .715 4.08 1.221 1.221 0 0 0 1.145.807 1.26 1.26 0 0 0 .418-.074 1.22 1.22 0 0 0 .73-1.563" transform="translate(1.174 19.424)"/><path d="m.55 4.723a8.826 8.826 0 0 0 2.283.32c2.5 0 5.5-1.251 7.014-6.509a1.218 1.218 0 0 0 -.833-1.509 1.218 1.218 0 0 0 -1.514.833c-1.118 3.883-3.183 5.359-6.312 4.51a1.22 1.22 0 0 0 -.638 2.355" transform="translate(19.325 53.8)"/><path d="m27.825 2.319a12 12 0 0 0 -.349-2.875 1.219 1.219 0 0 0 -1.476-.892 1.22 1.22 0 0 0 -.891 1.476 9.519 9.519 0 0 1 .277 2.291 9.6 9.6 0 0 1 -3.621 7.465l-4.5-.62a1.221 1.221 0 0 0 -.333 2.419l4.431.61a9.513 9.513 0 0 1 1.337 4.826 9.632 9.632 0 0 1 -6.788 9.156c-.659.062-4.413.315-6.089-2.194a1.22 1.22 0 0 0 -2.03 1.356c1.93 2.888 5.379 3.319 7.26 3.319.077 0 .138 0 .21-.005a9.455 9.455 0 0 1 .318 2.288 9.591 9.591 0 0 1 -10.817 9.481l-1.927-4.4a1.221 1.221 0 0 0 -2.237.98l1.958 4.461a9.493 9.493 0 0 1 -8.344 4.939 9.59 9.59 0 0 1 -9.579-9.576l.02-5.235a1.223 1.223 0 0 0 -1.217-1.225h-.005a1.22 1.22 0 0 0 -1.22 1.215l-.021 5.241a12.035 12.035 0 0 0 12.022 12.021 11.927 11.927 0 0 0 10.376-5.966 12.042 12.042 0 0 0 13.426-11.936 11.818 11.818 0 0 0 -.338-2.8 12.1 12.1 0 0 0 7.457-11.117 11.953 11.953 0 0 0 -1.42-5.663 12.048 12.048 0 0 0 4.11-9.036" transform="translate(62.101 44.203)"/><path d="m1.181 2.6a9.572 9.572 0 0 1 13.551 2.4c-2.106 1.051-4.451 3.5-3.711 8.062a1.22 1.22 0 0 0 1.2 1.025 1.28 1.28 0 0 0 .2-.015 1.22 1.22 0 0 0 1.01-1.4c-.766-4.72 2.85-5.722 3.324-5.832a9.5 9.5 0 0 1 10.961 12.18l-6.67 4.08a4.615 4.615 0 0 0 -.546-.618c-2.173-2.022-5.569-1.225-5.712-1.192a1.22 1.22 0 0 0 .569 2.373c.63-.149 2.486-.325 3.488.612s.94 2.852.7 4.28a1.221 1.221 0 0 0 1 1.4 1.313 1.313 0 0 0 .2.015 1.218 1.218 0 0 0 1.2-1.02 10.308 10.308 0 0 0 .055-3.58.137.137 0 0 0 .028-.013l6.868-4.195a9.614 9.614 0 0 1 6.389 9 9.492 9.492 0 0 1 -1.55 5.225c-.264.343-2.7 3.3-7.419.9a1.219 1.219 0 1 0 -1.107 2.173 9.974 9.974 0 0 0 4.541 1.184 7.532 7.532 0 0 0 5.981-2.855 11.97 11.97 0 0 0 1.994-6.627 12.1 12.1 0 0 0 -7.457-11.117 11.78 11.78 0 0 0 .338-2.8 12.031 12.031 0 0 0 -13.432-11.94 11.925 11.925 0 0 0 -10.374-5.968 11.936 11.936 0 0 0 -7.052 2.286 1.22 1.22 0 0 0 1.433 1.977" transform="translate(49.517 1.663)"/><path d="m5.521 1.391a1.218 1.218 0 0 0 .456-1.663 1.216 1.216 0 0 0 -1.663-.457 5.819 5.819 0 0 0 -3.055 5.01h-3.572a1.219 1.219 0 0 0 -1.22 1.219 1.219 1.219 0 0 0 1.22 1.22h3.928c.028.079.044.164.072.243a6.013 6.013 0 0 0 5.576 4.069 5.852 5.852 0 0 0 1.2-.126 1.221 1.221 0 0 0 -.5-2.388 3.478 3.478 0 0 1 -3.995-2.418 3.688 3.688 0 0 1 1.553-4.709" transform="translate(54.614 61.702)"/><path d="m2.2.245a1.22 1.22 0 0 0 -1.722-.085c-1.948 1.766-2.478 5.63-1.161 8.44a6.585 6.585 0 0 0 6.358 3.7 11.1 11.1 0 0 0 1.591-.118 1.219 1.219 0 1 0 -.346-2.412c-2.668.384-4.533-.382-5.394-2.212-.926-1.958-.426-4.664.592-5.591a1.219 1.219 0 0 0 .082-1.722" transform="translate(16.098 31.649)"/><path d="m1.1.026a1.223 1.223 0 0 0 -1.5.856 7.04 7.04 0 0 0 .724 5.769c.769 1.184 2.37 2.7 5.627 3.193a1.488 1.488 0 0 0 .185.013 1.22 1.22 0 0 0 .179-2.427 5.4 5.4 0 0 1 -3.946-2.112 4.738 4.738 0 0 1 -.415-3.793 1.22 1.22 0 0 0 -.854-1.499" transform="translate(67.108 44.915)"/><path d="m1.34 2.525c1.107-1.479 2.311-2 3.575-1.54a3.711 3.711 0 0 1 2.375 2.886 1.222 1.222 0 0 0 1.158 1.278h.062a1.219 1.219 0 0 0 1.217-1.158c.102-2.058-1.727-4.484-3.987-5.302-2.289-.825-4.605.041-6.353 2.373a1.22 1.22 0 1 0 1.953 1.463" transform="translate(22.511 69.916)"/><path d="m3.206 3.173h.094c2.974-.064 4.937-3.106 5.019-3.237a1.22 1.22 0 0 0 -.379-1.684 1.221 1.221 0 0 0 -1.684.379c-.338.536-1.62 2.069-3.006 2.102-1.012.049-2.035-.733-3.08-2.233a1.216 1.216 0 0 0 -1.7-.308 1.221 1.221 0 0 0 -.308 1.7c1.518 2.176 3.212 3.281 5.044 3.281" transform="translate(23.721 18.737)"/><path d="m13.94 10.86a1.218 1.218 0 0 0 -1.043-.589h-4.946l1.766-5.023a1.22 1.22 0 0 0 -2.3-.81l-2.337 6.65a1.218 1.218 0 0 0 1.149 1.622h4.649l-12.9 24.6h-.32l2.393-21.745a1.213 1.213 0 0 0 -.3-.948 1.214 1.214 0 0 0 -.907-.4h-5.069l3.575-18.727h13.213l-.587 1.673a1.217 1.217 0 0 0 .746 1.553 1.216 1.216 0 0 0 1.556-.746l1.158-3.3a1.223 1.223 0 0 0 -.154-1.11 1.223 1.223 0 0 0 -1-.515h-15.942a1.219 1.219 0 0 0 -1.2.992l-4.04 21.163a1.229 1.229 0 0 0 .259 1.007 1.218 1.218 0 0 0 .94.443h5.176l-2.388 21.75a1.223 1.223 0 0 0 .3.948 1.233 1.233 0 0 0 .91.4h2.417a1.22 1.22 0 0 0 1.086-.653l14.176-27.036a1.22 1.22 0 0 0 -.036-1.2" transform="translate(42.938 30.124)"/></g></svg>