<svg xmlns="http://www.w3.org/2000/svg" width="103.334" height="92.72" viewBox="0 0 103.334 92.72">
  <path id="Union_40" data-name="Union 40" d="M80.425,91.72v0H10.133a2.251,2.251,0,0,1-2-3.3L42.506,22.409a2.129,2.129,0,0,1,.78-.876,1.229,1.229,0,0,1-.034-.288V1.227a1.227,1.227,0,1,1,2.453,0V6.635c1.564.7,6.637,2.267,16.188-.8.3-.111,8.723-3.242,13.7.654A1.227,1.227,0,0,1,75.36,8.56l-3.346,1.6,4.39,4.681a1.227,1.227,0,0,1-1.665,1.8c-.013-.01-3.68-2.581-14.435.229a20.481,20.481,0,0,1-8.275,1.685A19.2,19.2,0,0,1,45.706,17.5v3.747a1.23,1.23,0,0,1-.029.264,2.16,2.16,0,0,1,.793.849L71.24,67.839l7.641-14.679a2.22,2.22,0,0,1,1.933-1.214,2.381,2.381,0,0,1,2.054,1.178l19.177,35.244a2.3,2.3,0,0,1-.065,2.264,2.24,2.24,0,0,1-1.931,1.089Zm2.257-2.452h17.15l-4.753-8.593L80.887,54.618,72.653,70.433l.041.076,9.723,17.852a2.41,2.41,0,0,1,.2.508A2.325,2.325,0,0,1,82.682,89.267Zm-2.569,0L70.362,71.34l-.175-.318L46.722,27.943l1.047,5.8-4.936,9.433,5.955,8.428a5.937,5.937,0,1,1,1.768,11.146L35.11,73.319a5.927,5.927,0,0,1-.017,5.6L49.417,89.264Zm-69.66,0H45.226L33.5,80.8a5.938,5.938,0,1,1,.022-9.368L47.893,61.6a5.931,5.931,0,0,1-1.014-8.441l-6.915-9.79L45.2,33.357l-1.448-8.036ZM26.383,76.1a3.483,3.483,0,0,0,6.037,2.373,1.228,1.228,0,0,1,.124-.141,3.477,3.477,0,0,0,.01-4.448,1.244,1.244,0,0,1-.141-.16,3.483,3.483,0,0,0-6.03,2.377ZM51.5,60.375a3.485,3.485,0,1,0-2.17-6.21,1.238,1.238,0,0,1-.143.12,3.484,3.484,0,0,0,1.322,5.946,1.23,1.23,0,0,1,.218.057A3.48,3.48,0,0,0,51.5,60.375Zm29.22-6.054h.007l0-.006ZM59.463,14.569a34.36,34.36,0,0,1,12.054-1.358l-2.44-2.6a1.224,1.224,0,0,1,.369-1.946L72.1,7.4c-3.991-1.259-9.325.723-9.391.749-8.9,2.861-14.356,2.007-17,1.121v5.606C52.676,17.714,59.4,14.6,59.463,14.569ZM70.992,43.618a4.675,4.675,0,0,1-.147-9.348,6.314,6.314,0,0,1,6.263-5.694,6.068,6.068,0,0,1,2.813.683,6.292,6.292,0,0,1,11.534,5.009h.209a4.676,4.676,0,0,1,0,9.351Zm-2.24-4.69a2.266,2.266,0,0,0,2.24,2.236H91.664a2.223,2.223,0,0,0,0-4.445h-2.42a1.227,1.227,0,0,1-.883-2.077,3.743,3.743,0,0,0,1.063-2.649,3.838,3.838,0,0,0-7.635-.572,1.225,1.225,0,0,1-2.08.689,3.6,3.6,0,0,0-2.6-1.082A3.864,3.864,0,0,0,73.265,34.9a1.446,1.446,0,0,1-.17,1.2,1.326,1.326,0,0,1-.991.611H70.992A2.227,2.227,0,0,0,68.752,38.928ZM4.661,35.32a4.676,4.676,0,0,1,0-9.352h.206A6.293,6.293,0,0,1,16.4,20.96a6.069,6.069,0,0,1,2.813-.684,6.313,6.313,0,0,1,6.264,5.7,4.675,4.675,0,0,1-.148,9.348ZM2.453,30.629a2.221,2.221,0,0,0,2.208,2.237H25.333a2.269,2.269,0,0,0,2.241-2.237,2.227,2.227,0,0,0-2.241-2.208H24.222a1.225,1.225,0,0,1-1.165-1.613,3.909,3.909,0,0,0-3.84-4.079,3.6,3.6,0,0,0-2.6,1.083,1.226,1.226,0,0,1-2.081-.69,3.838,3.838,0,0,0-7.634.572,3.746,3.746,0,0,0,1.063,2.65,1.227,1.227,0,0,1-.884,2.077H4.661A2.209,2.209,0,0,0,2.453,30.629Z" transform="translate(0.5 0.5)" fill="#fff" stroke="rgba(0,0,0,0)" stroke-miterlimit="10" stroke-width="1"></path>
</svg>