<svg height="100.869" viewBox="0 0 113.012 100.869" width="113.012" xmlns="http://www.w3.org/2000/svg" xmlns:xlink="http://www.w3.org/1999/xlink"><clipPath id="a"><path d="m0 0h113.012v100.868h-113.012z"/></clipPath><g clip-path="url(#a)" fill="#fff"><path d="m13.954 78.264h-.09a1.846 1.846 0 0 1 -1.313-.592 1.836 1.836 0 0 1 .214-2.672c1.665-1.363 5.437-4.736 6.407-8.022a35.653 35.653 0 1 1 12.289 3.722c-3.523 2.489-11.429 7.56-17.507 7.56m.386-1.339-.017.013zm21.143-74.434a32.981 32.981 0 0 0 -14.347 62.68l.814.392-.123.9c-.475 3.476-3.473 6.869-5.949 9.136 5.51-.97 12.366-5.646 14.523-7.2l.4-.286.489.063a33.647 33.647 0 0 0 4.187.266 32.927 32.927 0 0 0 32.953-32.961 33.023 33.023 0 0 0 -32.947-32.99"/><path d="m66.86 85.034c-6.151 0-14.048-5.065-17.56-7.557a35.446 35.446 0 0 1 -35.41-18.783l2.21-1.157a32.969 32.969 0 0 0 33.372 17.408l.489-.06.4.289c2.15 1.545 8.98 6.215 14.519 7.192-2.723-2.483-5.48-5.766-5.94-9.133l-.126-.9.818-.4a32.957 32.957 0 0 0 -17.713-62.45l-.256-2.483a35.45 35.45 0 0 1 19.937 66.745c.7 2.346 2.988 5.221 6.421 8.039a1.832 1.832 0 0 1 -1.06 3.25zm-.429-1.326.013.013z" transform="translate(32.27 15.831)"/><path d="m20.865 49.933-.924-.532a1.4 1.4 0 0 1 -.512-1.582l4.344-13.373 2.37.774-3.317 10.207 9.3-6.756.921.5 8.617 6.264-3.564-10.955.778-.718 8.6-6.248h-11.532l-.429-.99-3.273-10.08-3.32 10.209-2.366-.771 4.622-14.233 1.06-.113a1.4 1.4 0 0 1 1.346.977l4.064 12.509h14.062l.439.97a1.418 1.418 0 0 1 -.505 1.582l-10.652 7.733 4.347 13.376-.794.718a1.412 1.412 0 0 1 -1.658 0l-10.648-7.736zm-.728-2.549h-.01zm13.137-34.11v.01z" transform="translate(44.973 26.802)"/><path d="m14.27 19.542a5.153 5.153 0 1 1 5.151-5.151 5.158 5.158 0 0 1 -5.151 5.151m0-7.813a2.66 2.66 0 1 0 2.659 2.662 2.663 2.663 0 0 0 -2.659-2.662" transform="translate(21.186 21.459)"/><path d="m9.277 19.542a5.153 5.153 0 1 1 5.151-5.151 5.158 5.158 0 0 1 -5.151 5.151m0-7.813a2.66 2.66 0 1 0 2.659 2.662 2.663 2.663 0 0 0 -2.659-2.662" transform="translate(9.586 21.459)"/><path d="m19.263 19.542a5.153 5.153 0 1 1 5.151-5.151 5.158 5.158 0 0 1 -5.151 5.151m0-7.813a2.66 2.66 0 1 0 2.659 2.662 2.663 2.663 0 0 0 -2.659-2.662" transform="translate(32.786 21.459)"/></g></svg>