<svg xmlns="http://www.w3.org/2000/svg"
    xmlns:xlink="http://www.w3.org/1999/xlink" id="Group_1801" data-name="Group 1801" width="113.012" height="100.869" viewBox="0 0 113.012 100.869">
    <defs>
        <clipPath id="clip-path">
            <rect id="Rectangle_1070" data-name="Rectangle 1070" width="113.012" height="100.868" fill="#fff"></rect>
        </clipPath>
    </defs>
    <g id="Group_1800" data-name="Group 1800" transform="translate(0 0)" clip-path="url(#clip-path)">
        <path id="Path_4175" data-name="Path 4175" d="M13.954,78.264h-.09a1.846,1.846,0,0,1-1.313-.592A1.836,1.836,0,0,1,12.765,75c1.665-1.363,5.437-4.736,6.407-8.022A35.653,35.653,0,1,1,31.461,70.7c-3.523,2.489-11.429,7.56-17.507,7.56m.386-1.339-.017.013.017-.013M35.483,2.487A32.981,32.981,0,0,0,21.136,65.167l.814.392-.123.9c-.475,3.476-3.473,6.869-5.949,9.136,5.51-.97,12.366-5.646,14.523-7.2l.4-.286.489.063a33.647,33.647,0,0,0,4.187.266A32.927,32.927,0,0,0,68.43,35.477,33.023,33.023,0,0,0,35.483,2.487" transform="translate(0 0)" fill="#fff"></path>
        <path id="Path_4176" data-name="Path 4176" d="M66.86,85.034c-6.151,0-14.048-5.065-17.56-7.557A35.446,35.446,0,0,1,13.89,58.694l2.21-1.157A32.969,32.969,0,0,0,49.472,74.945l.489-.06.4.289c2.15,1.545,8.98,6.215,14.519,7.192C62.157,79.883,59.4,76.6,58.94,73.233l-.126-.9.818-.4A32.957,32.957,0,0,0,41.919,9.483L41.663,7A35.45,35.45,0,0,1,61.6,73.745c.7,2.346,2.988,5.221,6.421,8.039a1.832,1.832,0,0,1-1.06,3.25Zm-.429-1.326.013.013-.013-.013" transform="translate(32.27 15.831)" fill="#fff"></path>
        <path id="Path_4177" data-name="Path 4177" d="M20.865,49.933l-.924-.532a1.4,1.4,0,0,1-.512-1.582l4.344-13.373,2.37.774L22.826,45.427l9.3-6.756.921.5,8.617,6.264L38.1,34.48l.778-.718,8.6-6.248H35.946l-.429-.99-3.273-10.08-3.32,10.209-2.366-.771L31.18,11.649l1.06-.113a1.4,1.4,0,0,1,1.346.977l4.064,12.509H51.712l.439.97a1.418,1.418,0,0,1-.505,1.582L40.994,35.307l4.347,13.376-.794.718a1.412,1.412,0,0,1-1.658,0L32.241,41.665Zm-.728-2.549-.01,0Zm13.137-34.11,0,.01Z" transform="translate(44.973 26.802)" fill="#fff"></path>
        <path id="Path_4178" data-name="Path 4178" d="M14.27,19.542a5.153,5.153,0,1,1,5.151-5.151,5.158,5.158,0,0,1-5.151,5.151m0-7.813a2.66,2.66,0,1,0,2.659,2.662,2.663,2.663,0,0,0-2.659-2.662" transform="translate(21.186 21.459)" fill="#fff"></path>
        <path id="Path_4179" data-name="Path 4179" d="M9.277,19.542a5.153,5.153,0,1,1,5.151-5.151,5.158,5.158,0,0,1-5.151,5.151m0-7.813a2.66,2.66,0,1,0,2.659,2.662,2.663,2.663,0,0,0-2.659-2.662" transform="translate(9.586 21.459)" fill="#fff"></path>
        <path id="Path_4180" data-name="Path 4180" d="M19.263,19.542a5.153,5.153,0,1,1,5.151-5.151,5.158,5.158,0,0,1-5.151,5.151m0-7.813a2.66,2.66,0,1,0,2.659,2.662,2.663,2.663,0,0,0-2.659-2.662" transform="translate(32.786 21.459)" fill="#fff"></path>
    </g>
</svg>