<svg xmlns="http://www.w3.org/2000/svg" width="113.359" height="90.348" viewBox="0 0 113.359 90.348">
    <path id="Union_41" data-name="Union 41" d="M3.336,89.348l-.351-.331C1.094,87.24-1.345,83.5.9,80.452l-.02-.061.228-.266,0,0,.269-.312,9.38-10.88V22.3a7.3,7.3,0,0,1,7.294-7.295h38.1a1.219,1.219,0,1,1,0,2.437h-38.1A4.862,4.862,0,0,0,13.194,22.3v2.8H56.087a1.219,1.219,0,1,1,0,2.437H13.194V68.161h9.932A21.975,21.975,0,0,1,38.653,53.846a10.384,10.384,0,1,1,10.566,0A21.966,21.966,0,0,1,64.732,68.161H98.058V51.328a1.219,1.219,0,0,1,2.437,0v17.6l9.311,10.77.367.422c1.875,2.18,1.423,5.179-1.241,8.22a2.952,2.952,0,0,1-2.245,1.007Zm1-2.436h102.35a.537.537,0,0,0,.41-.172c.773-.881,2.359-2.99,1.517-4.6H2.664C1.774,83.84,3.574,86.076,4.337,86.911ZM4.688,79.7h101.9l-7.87-9.1H12.531ZM25.651,68.161H62.208a19.556,19.556,0,0,0-36.557,0Zm10.341-23.2a7.944,7.944,0,1,0,7.944-7.944A7.949,7.949,0,0,0,35.992,44.96Zm41.334,8.028A2.414,2.414,0,0,1,75.8,50.737V44.414H69.8a6.294,6.294,0,0,1-6.286-6.287V6.286A6.3,6.3,0,0,1,69.8,0h36.1a6.3,6.3,0,0,1,6.287,6.286v31.84a6.294,6.294,0,0,1-6.287,6.287H87.982l-8.038,8.008a2.372,2.372,0,0,1-2.618.566ZM65.955,6.286v31.84a3.855,3.855,0,0,0,3.849,3.85h8.431l-.029,8.74,8.769-8.74H105.9a3.853,3.853,0,0,0,3.849-3.85V6.286A3.853,3.853,0,0,0,105.9,2.437H69.8A3.855,3.855,0,0,0,65.955,6.286ZM86.446,37c-2.811-2.661-12.119-11.833-13.977-18.224l-.02-.075a14.619,14.619,0,0,1-.355-2.472,8.484,8.484,0,0,1,15.774-4.383,8.484,8.484,0,0,1,15.774,4.383,14.908,14.908,0,0,1-.374,2.551,21.593,21.593,0,0,1-2.992,5.8A88.786,88.786,0,0,1,89.269,37.016a2.054,2.054,0,0,1-1.394.555A2.128,2.128,0,0,1,86.446,37ZM74.532,16.229a3.653,3.653,0,0,0,.029.412c.052.465.169,1.079.254,1.472A12.3,12.3,0,0,0,75.4,19.54c.131.289.205.555.357.854.322.62.732,1.27,1.147,1.92.117.183.2.355.321.536.526.789,1.111,1.586,1.722,2.379.04.049.068.1.108.146a82.658,82.658,0,0,0,5.6,6.4c.137.14.286.306.416.439.22.227.39.393.595.6.916.929,1.718,1.715,2.2,2.17A85.445,85.445,0,0,0,98.262,23.211a19.7,19.7,0,0,0,2.645-5.036,12.257,12.257,0,0,0,.3-1.946,6.052,6.052,0,0,0-11.765-2.038,6.254,6.254,0,0,0-.354,2.038,1.219,1.219,0,1,1-2.437,0A6.27,6.27,0,0,0,86.3,14.2a6.052,6.052,0,0,0-11.768,2.028Z" transform="translate(0.672 0.5)" fill="#fff" stroke="rgba(0,0,0,0)" stroke-miterlimit="10" stroke-width="1"></path>
</svg>