<svg xmlns="http://www.w3.org/2000/svg"
    xmlns:xlink="http://www.w3.org/1999/xlink" id="Group_1812" data-name="Group 1812" width="118.563" height="97.474" viewBox="0 0 118.563 97.474">
    <defs>
        <clipPath id="clip-path">
            <rect id="Rectangle_1079" data-name="Rectangle 1079" width="118.563" height="97.474" fill="#fff"></rect>
        </clipPath>
    </defs>
    <g id="Group_1811" data-name="Group 1811" transform="translate(0 0)" clip-path="url(#clip-path)">
        <path id="Path_4194" data-name="Path 4194" d="M.741,69.374,23.135,58.194A8.986,8.986,0,0,1,21.455,50.1,3.839,3.839,0,0,1,23.8,46.9a15.792,15.792,0,0,1-.763-6.335,7,7,0,0,1,3.426-5.13,10.241,10.241,0,0,1-.082-5.416,9.842,9.842,0,0,1,1.886-3.736,7.792,7.792,0,0,1-2.189-7.883,9.2,9.2,0,0,1,9.345-5.622l2.235.567,3.309-9.366A5.3,5.3,0,0,1,46.993.5l7.58,1.426L72.2.023a4.535,4.535,0,0,1,4.581,2.588l4.838,10.4,5.654-2.339.392-.1a7.213,7.213,0,0,1,6.389,3.23c2.207,3.12,1.554,7.077,1.03,9.017a7.435,7.435,0,0,1,2.777,4.97,8.531,8.531,0,0,1-.838,6.421c2.446,1.733,2.653,5.33,2.31,7.262a7.131,7.131,0,0,1-1.8,5.533,6.456,6.456,0,0,1,1.811,2.913,8.544,8.544,0,0,1-.8,7.6L117.9,68.915a1.337,1.337,0,0,1-.681,2.489,1.357,1.357,0,0,1-.677-.185L96.557,59.449a34.108,34.108,0,0,1-10.942,1.708,36.925,36.925,0,0,1-6.735-.578l-.488-.207A9.116,9.116,0,0,1,74.681,52.8a15.549,15.549,0,0,1-5.216-5.819,8.928,8.928,0,0,1,.21-5.18,7.966,7.966,0,0,1-1.95-5.394,14.077,14.077,0,0,1,.834-5.088c-2.688-1.708-3.234-5.419-3.219-5.433a6.745,6.745,0,0,1,2.182-7.031l11.63-4.817L74.36,3.738a1.855,1.855,0,0,0-1.868-1.055l-8.824.955,8.161,1.533.3.581a4.681,4.681,0,0,1,.021,3.776c-.955,2.378-3.587,4.321-7.829,5.776l-9.644.075.057,2.307,4.731,1.2a1.337,1.337,0,0,1-.656,2.592L38.18,16.213c-.039-.011-.075,0-.114-.018l-.036-.021L34.993,15.4a6.528,6.528,0,0,0-6.371,3.793,4.883,4.883,0,0,0,2.321,5.729l13.986,4.424a1.336,1.336,0,0,1-.4,2.61,1.3,1.3,0,0,1-.4-.061L30.714,27.654a6.853,6.853,0,0,0-1.736,3,7.319,7.319,0,0,0,.2,4.471l8.8,3.619a1.335,1.335,0,0,1-.51,2.571,1.269,1.269,0,0,1-.506-.1l-8.785-3.608a4.26,4.26,0,0,0-2.485,3.266,13.975,13.975,0,0,0,.881,5.872l6.157,2.581a1.337,1.337,0,0,1-.517,2.571,1.407,1.407,0,0,1-.517-.1L25.441,49.17c-1.166.321-1.312.955-1.316,1.052l0,.189-.043.182c-1.169,4.735,1.939,6.7,2.025,6.753L95.046,94.962a1.337,1.337,0,0,1-.642,2.51,1.3,1.3,0,0,1-.642-.164L57.568,77.557l-37.26,19.32a1.309,1.309,0,0,1-.613.15,1.336,1.336,0,0,1-.617-2.524l35.66-18.489L25.448,60.026,1.936,71.767A1.337,1.337,0,0,1,.741,69.374M95.235,28.231c0-.025-.3-2.439-1.85-3.291-3.33,1.166-17.423,6.047-22.169,6.892A12,12,0,0,0,70.4,36.2l.018.185-.018.164A5.459,5.459,0,0,0,71.74,40c3.152-.692,14.867-3.358,22.472-6.414a5.932,5.932,0,0,0,1.023-5.359M79.683,58.008c1.5.25,8.938,1.326,15.955-1.055a5.991,5.991,0,0,0,1.155-6.239c0-.014-.545-1.6-1.633-2-5.416,2.924-14.521,4.146-17.787,4.5a6.33,6.33,0,0,0,2.31,4.8m-7.772-12.1c.018.036,1.808,3.387,4.421,4.717,1.772-.175,9.651-1.052,15.256-3.216L94.5,46.036c.1-.046,2.392-1.169,2.189-4.681.007-.043.6-4.207-1.726-5.184-7.965,3.155-19.67,5.8-22.739,6.467a6.589,6.589,0,0,0-.31,3.273M67.946,25.322c0,.036.492,3.127,2.485,3.929,2.934-.371,14.372-4.139,21.976-6.8.389-1.291,1.173-4.7-.563-7.155a4.89,4.89,0,0,0-3.754-2.071L69.066,21.051a4.215,4.215,0,0,0-1.119,4.271M63.661,12.7c4.093-1.44,5.508-3.02,5.975-4.1a2.457,2.457,0,0,0,.217-1.087L46.5,3.128a2.653,2.653,0,0,0-3.009,1.736L40.262,14,52.042,17,51.935,12.7Z" transform="translate(0 -0.001)" fill="#fff"></path>
    </g>
</svg>