<svg height="55.747" viewBox="0 0 63.804 55.747" width="63.804" xmlns="http://www.w3.org/2000/svg"><g fill="#414042"><path d="m7.187 3.976h-1.774c-4.713 0-12.368-6.155-12.692-6.419a1.007 1.007 0 0 1 -.149-1.416 1.006 1.006 0 0 1 1.418-.149c2.052 1.66 8.1 5.969 11.424 5.969h1.773a1.007 1.007 0 1 1 0 2.015" transform="translate(44.862 22.22)"/><path d="m3.082 15.4a7.19 7.19 0 0 1 -6.19-3.266 1.007 1.007 0 0 1 -.029-1.082c1.737-2.887 9.463-16.262 9.537-16.397a1.022 1.022 0 0 1 .3-.322l15.072-10.552a1 1 0 0 1 .793-.159l5.674 1.247a1.006 1.006 0 0 1 .766 1.2 1.009 1.009 0 0 1 -1.2.768l-5.242-1.154-14.525 10.174c-.905 1.563-7.02 12.137-9.102 15.653 2.618 3.142 6.679 1.414 6.857 1.334a1.007 1.007 0 0 1 .818 1.84 8.965 8.965 0 0 1 -3.529.719" transform="translate(3.281 31.44)"/><path d="m.488 5.321a1.008 1.008 0 0 1 -.956-1.327l2.99-8.971a1.01 1.01 0 0 1 1.278-.638 1.01 1.01 0 0 1 .636 1.276l-2.222 6.664 9.913-4.957a1.006 1.006 0 0 1 1.352.45 1.007 1.007 0 0 1 -.452 1.352l-12.089 6.044a1 1 0 0 1 -.45.107" transform="translate(1.862 50.426)"/><path d="m.488 18.664a1.006 1.006 0 0 1 -.737-1.693l33.143-35.583a3.95 3.95 0 0 1 5.269-.465 3.962 3.962 0 0 1 1.563 2.777 3.977 3.977 0 0 1 -.985 3.031l-28.059 31.221a1.007 1.007 0 1 1 -1.5-1.346l28.058-31.223a1.932 1.932 0 0 0 .483-1.485 1.931 1.931 0 0 0 -.77-1.363 1.944 1.944 0 0 0 -2.587.229l-33.141 35.578a1 1 0 0 1 -.737.322" transform="translate(11.968 19.872)"/><path d="m16.341 12.035h-4.59a16.721 16.721 0 0 1 -10.929-4.03h-12.522a5.718 5.718 0 0 1 -5.7-5.705c0-3.537 4-5.709 6.873-5.709h11.663a3.818 3.818 0 0 0 3.813-3.814v-4.584a1.006 1.006 0 0 1 1.006-1.006 1.007 1.007 0 0 1 1.008 1.006v4.584a5.835 5.835 0 0 1 -5.827 5.823h-11.662c-1.712 0-4.858 1.4-4.858 3.694a3.653 3.653 0 0 0 3.684 3.697h12.9a1 1 0 0 1 .665.252 14.76 14.76 0 0 0 9.888 3.778h4.59a16.421 16.421 0 0 0 4.511-.632 18.334 18.334 0 0 1 5.065-.712h1.53a1.007 1.007 0 0 1 0 2.015h-1.53a16.421 16.421 0 0 0 -4.511.632 18.334 18.334 0 0 1 -5.065.712" transform="translate(24.603 39.682)"/><path d="m2.465 2.277a.352.352 0 0 1 -.064 0h-.029c-3.039-.027-5-1.365-5-3.427v-.268a1.007 1.007 0 0 1 1.011-1.006 1.006 1.006 0 0 1 1.007 1.006v.268c0 .968 1.524 1.406 3.044 1.412a3.642 3.642 0 0 0 2.853-.9 1.009 1.009 0 0 1 1.4-.268 1.007 1.007 0 0 1 .266 1.4c-.772 1.131-2.353 1.765-4.458 1.783z" transform="translate(22.772 49.441)"/><path d="m2.1 2.277a.4.4 0 0 1 -.068 0 .247.247 0 0 1 -.039 0c-2.575-.037-4.233-1.377-4.233-3.427v-.268a1.007 1.007 0 0 1 1.008-1.006 1.006 1.006 0 0 1 1.007 1.006v.268c0 1.21 1.419 1.406 2.294 1.412.605 0 2.409-.126 2.409-1.412v-.268a1.006 1.006 0 0 1 1.006-1.006 1.007 1.007 0 0 1 1.008 1.006v.268c0 2.054-1.7 3.392-4.35 3.425a.26.26 0 0 1 -.039 0" transform="translate(15.671 49.441)"/><path d="m5.693 14.638h-10.746a1.009 1.009 0 0 1 -1.008-1.008v-28.209a1.008 1.008 0 0 1 1.008-1.006h10.746a1.008 1.008 0 0 1 1.007 1.006v28.208a1.009 1.009 0 0 1 -1.008 1.008m-9.739-2.015h8.73v-26.192h-8.73z" transform="translate(57.103 37.08)"/><path d="m2.55 3.038a1 1 0 0 1 -.712-.295l-4.258-4.258a1.008 1.008 0 0 1 0-1.425 1.011 1.011 0 0 1 1.425 0l4.257 4.258a1.007 1.007 0 0 1 -.712 1.72" transform="translate(43.095 8.694)"/><path d="m.488 2.928a1.009 1.009 0 0 1 -1.008-1.009v-4.03a1.008 1.008 0 0 1 1.008-1.006 1.008 1.008 0 0 1 1.012 1.006v4.03a1.009 1.009 0 0 1 -1.012 1.009" transform="translate(56.934 44.76)"/></g></svg>