<?xml version="1.0" encoding="UTF-8"?>
<svg xmlns="http://www.w3.org/2000/svg" width="52.894" height="53.348" viewBox="0 0 52.894 53.348">
  <g id="Group_1646" data-name="Group 1646" transform="translate(-1646 -282.317)">
    <g id="Group_1187" data-name="Group 1187" transform="translate(1646 282.318)">
      <path id="Path_2527" data-name="Path 2527" d="M18.8,14.089h-1.23l1.23-.539A4.013,4.013,0,0,0,20.86,8.267L17.469.53a4.014,4.014,0,0,0-3.675-2.4,3.985,3.985,0,0,0-1.609.338l-.154.068.19-.2a4.015,4.015,0,0,0-.171-5.669L5.9-13.127a3.989,3.989,0,0,0-2.748-1.09A4.026,4.026,0,0,0,.228-12.954l-.5.531.278-.769a4.013,4.013,0,0,0-2.4-5.138l-7.941-2.882a4.024,4.024,0,0,0-1.368-.24,4,4,0,0,0-2.332.752,4.014,4.014,0,0,0-3.38-1.849l-8.447.015A3.985,3.985,0,0,0-28.7-21.356a3.988,3.988,0,0,0-1.17,2.839l.062,39.2-.036.1a3.984,3.984,0,0,0,.041,2.845,4.017,4.017,0,0,0,2.546,3.7,4.017,4.017,0,0,0,3.934,3.232h.57a4,4,0,0,0,1.365.24,3.985,3.985,0,0,0,1.365-.24H18.8a4.014,4.014,0,0,0,4.01-4.01V18.1a4.014,4.014,0,0,0-4.01-4.01m2.181,12.459A2.183,2.183,0,0,1,18.8,28.729h-2.09V15.919H18.8A2.183,2.183,0,0,1,20.979,18.1Zm-36.806,2.181.45-.2v.2Zm-12.212-47.25a2.165,2.165,0,0,1,.637-1.544,2.169,2.169,0,0,1,1.54-.642l8.452-.013a2.184,2.184,0,0,1,2.086,1.552,2.151,2.151,0,0,1,.094.626l0,1.727v.362l-.132,0h-.764l-.21,0-11.705.018Zm16.334-1.1a2.177,2.177,0,0,1,.744.132L-3.02-16.61a2.183,2.183,0,0,1,1.306,2.795l-.713,1.964-10.968-3.981,0-2.712c0-.086,0-.172-.01-.257a2.188,2.188,0,0,1,1.7-.822M4.644-11.794,10.8-6.005a2.183,2.183,0,0,1,.093,3.084L9.457-1.4.129-10.179,1.56-11.7a2.163,2.163,0,0,1,1.589-.686,2.169,2.169,0,0,1,1.495.593M15.794,1.264,19.185,9a2.183,2.183,0,0,1-1.121,2.873l-1.914.838L11.006.982,12.92.142a2.182,2.182,0,0,1,2.874,1.123M-25.792,26.521v-.744c-.049,0-.1,0-.143-.008a1.961,1.961,0,0,1-.3-.037c-.063-.013-.125-.029-.187-.047a2.2,2.2,0,0,1-.915-.546,2.113,2.113,0,0,1-.226-.27,2.136,2.136,0,0,1-.395-1,2.133,2.133,0,0,1-.019-.271v-.379l0-.639,0-.83,0-.746,0-2.65v-.019l0-1.313v-.385l0-.972v-.011h0l.973,0,.1,0h.876l.6,0h.224l.484,0h.551l1.735,0,1.719,0,1.469,0,1.2,0h.132l.318,0,1,0h1l.224,0h.206v.076l0,.21v.764l0,.284v.689l0,.569,0,.682v.577l0,1.709,0,2.054v.331a2.165,2.165,0,0,1-.214.939,2.164,2.164,0,0,1-.487.663,2.175,2.175,0,0,1-1.475.583l-5.156.008h-.767l-.952,0-.38,0h-.617l-.291,0h-.286v.13l0,.614,0,.171ZM-17-14.62l.973,0,.8,0v.478l.008,5.013-1.171,0h-.656l-.973,0-.973,0h0l-9.036.015-.008-5.49ZM8.2-.068,7.754.41l-1.6,1.7-.809.86-.79.84h0l-.112.122-.052-.049h0L3.666,3.2l-.725-.682h0L-3.5-3.54-2.4-6.551l.554-1.527.725-.769ZM2.987,5.476,1.6,6.951.753,6.157.261,5.692l-.725-.681-.723-.682L-5.036.707l.861-2.374,5.3,4.985L1.845,4l.723.681.119.112.5.471Zm-15.722,16.7-.154.164.1-.283.091-.252.164.154ZM-22.18,2.347l-.708,0h-.265l-4.853.008-.008-5.49,6.855-.011.973,0,.975,0h0l1.779,0,2.228,0,0,.812.006,4.678-3.2.006-2.67,0h-.141Zm8.834,13.572V15l0-.289h0v-.626l0-2.429v-.52l0-.479v-.132l.166.06.951.344.3.107h0l.379.136.689.25-.213.588-.049.136-.291.8-.413,1.137-.331.915-.333.915-.242.671-.6-.218Zm2.2-16.789.936.341.938.34,1,.362,1.313.476-.2.565-1.669,4.6-2.377-.863-2.151-.78v-.01l0-.908h0V2.824l0-1.332-.007-3.17Zm-1.045,7.409,2.172.788.559.2-.088.24-.1.266-.244.669-.187.517-.159.437-.018.049-.509-.185-1.246-.452h0l-1.352-.491,0-1.186,0-1.282Zm6.839,3.924L-7.027,8.887l-.024-.024-.7-.656L-7.756,8.2l.427-1.178h0l1.612-4.442,2.709,2.549h0l.725.681h0l.723.681h0l.788.743L.345,8.284-.1,8.758l-3.315,3.523ZM-6.177-3.48l.122.045.509.184-.08.219-.712,1.96-.957-.346-.613-.223-.936-.34-.938-.34h0l-3.594-1.3,0-.448h0l0-2.02L-8.05-4.159l.938.34Zm-5.1,24.112-.739-.694.678-1.865h0l.782-2.155.331-.915.154-.422.1-.263.728.686.613.575.361.34.218.206.541.509h0l-.45.478-.093.1-.588.626Zm5.05-5.367-.034.036-.317-.3-.972-.915L-8.809,12.9l-.487-.458.13-.356.325-.9v0l.406-1.118,1.56,1.467,1.7,1.6.5.474-.2.214-.247.262-.435.463L-5.98,15ZM-28,8.332l2.673,0h0l.973,0,.973,0,3.581-.006h.354l.9,0,1.259,0h.507l.416,0,1.168,0h0l0,.578v.525l0,.448v.6l0,1,0,1,0,1.342-1.23,0-1,0-.85,0H-18.4l-.127,0-1.332,0h-.679l-.653,0-1.259,0-.374,0h-.244l-.642,0-1.258,0h-.4l-.372,0h-.6l-.973,0-.673,0ZM-3.441-9.056h0l-.788,2.171L-4.923-4.97l-.825-.3-.936-.34-6.7-2.431V-8.22h0l-.008-5.664,10.34,3.752ZM-19.653-7.3l.973,0,.973,0,1,0,1.495,0,0,.546,0,1.773-1.9,0-1.436,0-.973,0H-20.5l-7.523.013,0-2.319ZM-23.818,4.179l.975,0,.973,0,3.155,0,2.67,0h.159l.692,0,0,.31V5.45l0,.647v.387l-.364,0h-.076l-1.181,0-1.259,0-1.05,0-2.67,0h-.921l-.975,0-.973,0h0L-28,6.5l0-2.319Zm10.271,21.534.247-.263.065.146-.312.136-.031.013ZM-11.937,24l1.365-1.449h0l2.515-2.674.21-.223.705,1.61.611,1.391-.611.266-.915.4-2.244.985-1.259.552Zm5.71-5.206-.257-.588.257-.273.671-.713a0,0,0,0,0,0,0l.8-.847.848,1.937.915,2.086.262.595-.262.114-.915.4-.947.416Zm4.148-.869-.881-2.008-.034-.078L-3.36,15l-.036-.078.682-.725h0l.106-.112L.7,10.58l1.537,3.51.4.915.4.915.375.858.561,1.275-.561.245L.29,19.666l-1.347.591h0Zm7.32-1.534-.208-.474L4.633,15l-.4-.915L2.058,9.132,2.3,8.87h0L3.785,7.3l2.978,6.793.4.915.395.9,0,.011.206.468-.211.093-1.912.838Zm4.205-.741h0L9.161,15l-.4-.915L5.148,5.848,8.831,1.936l.5-.219,5.144,11.731-1.462.642-.411.18L10.926,15ZM-13.547,28.729v-1l5.49-2.406v3.406Zm7.32-4.208,1.267-.556h0l1.051-.461v5.225H-6.227Zm4.148,4.208V22.7l4.632-2.031.858-.375v8.433Zm7.32-9.236.3-.133h0l2.015-.884V28.729H5.241Zm4.148,9.236V17.675l1.277-.561,2.73-1.2h1.483v12.81Z" transform="translate(30.085 22.549)" fill="#414042"></path>
    </g>
  </g>
</svg>
