<svg height="53.348" viewBox="0 0 52.894 53.348" width="52.894" xmlns="http://www.w3.org/2000/svg"><path d="m18.8 14.089h-1.23l1.23-.539a4.013 4.013 0 0 0 2.06-5.283l-3.391-7.737a4.014 4.014 0 0 0 -3.675-2.4 3.985 3.985 0 0 0 -1.609.338l-.154.068.19-.2a4.015 4.015 0 0 0 -.171-5.669l-6.15-5.794a3.989 3.989 0 0 0 -2.748-1.09 4.026 4.026 0 0 0 -2.924 1.263l-.5.531.278-.769a4.013 4.013 0 0 0 -2.4-5.138l-7.941-2.882a4.024 4.024 0 0 0 -1.368-.24 4 4 0 0 0 -2.332.752 4.014 4.014 0 0 0 -3.38-1.849l-8.447.015a3.985 3.985 0 0 0 -2.838 1.178 3.988 3.988 0 0 0 -1.17 2.839l.062 39.2-.036.1a3.984 3.984 0 0 0 .041 2.845 4.017 4.017 0 0 0 2.546 3.7 4.017 4.017 0 0 0 3.934 3.232h.57a4 4 0 0 0 1.365.24 3.985 3.985 0 0 0 1.365-.24h38.823a4.014 4.014 0 0 0 4.01-4.01v-8.45a4.014 4.014 0 0 0 -4.01-4.01m2.181 12.459a2.183 2.183 0 0 1 -2.181 2.18h-2.09v-12.81h2.09a2.183 2.183 0 0 1 2.179 2.181zm-36.806 2.181.45-.2v.2zm-12.212-47.25a2.165 2.165 0 0 1 .637-1.544 2.169 2.169 0 0 1 1.54-.642l8.452-.013a2.184 2.184 0 0 1 2.086 1.552 2.151 2.151 0 0 1 .094.626v1.727.362h-.132-.764-.21l-11.705.018zm16.334-1.1a2.177 2.177 0 0 1 .744.132l7.939 2.878a2.183 2.183 0 0 1 1.306 2.795l-.713 1.964-10.968-3.981v-2.712c0-.086 0-.172-.01-.257a2.188 2.188 0 0 1 1.7-.822m16.349 7.829 6.156 5.789a2.183 2.183 0 0 1 .093 3.084l-1.436 1.521-9.328-8.779 1.431-1.521a2.163 2.163 0 0 1 1.589-.686 2.169 2.169 0 0 1 1.495.593m11.15 13.057 3.391 7.736a2.183 2.183 0 0 1 -1.121 2.873l-1.914.838-5.144-11.729 1.914-.84a2.182 2.182 0 0 1 2.874 1.123m-41.586 25.256v-.744c-.049 0-.1 0-.143-.008a1.961 1.961 0 0 1 -.3-.037c-.063-.013-.125-.029-.187-.047a2.2 2.2 0 0 1 -.915-.546 2.113 2.113 0 0 1 -.226-.27 2.136 2.136 0 0 1 -.395-1 2.133 2.133 0 0 1 -.019-.271v-.379-.639-.83-.746-2.65-.019-1.313-.385-.972-.011h.973.1.876.6.224.484.551 1.735 1.719 1.469 1.2.132.318 1 1 .224.206v.076.21.764.284.689.569.682.577 1.709 2.054.331a2.165 2.165 0 0 1 -.214.939 2.164 2.164 0 0 1 -.487.663 2.175 2.175 0 0 1 -1.475.583l-5.156.008h-.767-.952-.38-.617-.291-.286v.13.614.171zm8.792-41.141h.973.8v.478l.008 5.013h-1.171-.656-.973-.973l-9.036.015-.008-5.49zm25.2 14.552-.446.478-1.6 1.7-.809.86-.79.84-.112.122-.052-.049-.725-.683-.725-.682-6.441-6.058 1.1-3.011.554-1.527.725-.769zm-5.213 5.544-1.387 1.475-.847-.794-.492-.465-.725-.681-.723-.682-3.849-3.622.861-2.374 5.3 4.985.72.682.723.681.119.112.5.471zm-15.722 16.7-.154.164.1-.283.091-.252.164.154zm-9.445-19.829h-.708-.265l-4.853.008-.008-5.49 6.855-.011h.973.975 1.779 2.228v.812l.006 4.678-3.2.006h-2.67-.141zm8.834 13.572v-.919-.289-.626-2.429-.52-.479-.132l.166.06.951.344.3.107.379.136.689.25-.213.588-.049.136-.291.8-.413 1.137-.331.915-.333.915-.242.671-.6-.218zm2.2-16.789.936.341.938.34 1 .362 1.313.476-.2.565-1.669 4.6-2.377-.863-2.151-.78v-.01-.908-.429-1.332l-.007-3.17zm-1.045 7.409 2.172.788.559.2-.088.24-.1.266-.244.669-.187.517-.159.437-.018.049-.509-.185-1.246-.452-1.352-.491v-1.186-1.282zm6.839 3.924-1.675-1.576-.024-.024-.7-.656-.005-.007.427-1.178 1.612-4.442 2.709 2.549.725.681.723.681.788.743 1.117 1.05-.445.474-3.315 3.523zm-.825-13.943.122.045.509.184-.08.219-.712 1.96-.957-.346-.613-.223-.936-.34-.938-.34-3.594-1.3v-.448-2.02l5.326 1.93.938.34zm-5.1 24.112-.739-.694.678-1.865.782-2.155.331-.915.154-.422.1-.263.728.686.613.575.361.34.218.206.541.509-.45.478-.093.1-.588.626zm5.05-5.367-.034.036-.317-.3-.972-.915-1.259-1.186-.487-.458.13-.356.325-.9.406-1.118 1.56 1.467 1.7 1.6.5.474-.2.214-.247.262-.435.463-.423.452zm-21.773-6.933h2.673.973.973l3.581-.006h.354.9 1.259.507.416 1.168v.578.525.448.6 1 1 1.342h-1.23-1-.85-.124-.127-1.332-.679-.653-1.259-.374-.244-.642-1.258-.4-.372-.6-.973-.673zm24.559-17.388-.788 2.171-.694 1.915-.825-.3-.936-.34-6.7-2.431v-.179l-.008-5.664 10.34 3.752zm-16.212 1.756h.973.973 1 1.495v.546 1.773h-1.9-1.436-.973-.979l-7.523.013v-2.319zm-4.165 11.479h.975.973 3.155 2.67.159.692v.31.961.647.387h-.364-.076-1.181-1.259-1.05-2.67-.921-.975-.973l-3.337.016v-2.319zm10.271 21.534.247-.263.065.146-.312.136-.031.013zm1.61-1.713 1.365-1.449 2.515-2.674.21-.223.705 1.61.611 1.391-.611.266-.915.4-2.244.985-1.259.552zm5.71-5.206-.257-.588.257-.273.671-.713a0 0 0 0 0 0 0l.8-.847.848 1.937.915 2.086.262.595-.262.114-.915.4-.947.416zm4.148-.869-.881-2.008-.034-.078-.366-.839-.036-.078.682-.725.106-.112 3.308-3.505 1.537 3.51.4.915.4.915.375.858.561 1.275-.561.245-3.122 1.368-1.347.591zm7.32-1.534-.208-.474-.4-.917-.4-.915-2.175-4.953.242-.262 1.485-1.57 2.978 6.793.4.915.395.9v.011l.206.468-.211.093-1.912.838zm4.205-.741-.285-.65-.4-.915-3.613-8.237 3.683-3.912.5-.219 5.144 11.731-1.462.642-.411.18-1.676.73zm-22.993 13.079v-1l5.49-2.406v3.406zm7.32-4.208 1.267-.556 1.051-.461v5.225h-2.318zm4.148 4.208v-6.029l4.632-2.031.858-.375v8.433zm7.32-9.236.3-.133 2.015-.884v10.253h-2.315zm4.148 9.236v-11.054l1.277-.561 2.73-1.2h1.483v12.81z" fill="#414042" transform="translate(30.085 22.55)"/></svg>