<?xml version="1.0" encoding="UTF-8"?>
<svg xmlns="http://www.w3.org/2000/svg" xmlns:xlink="http://www.w3.org/1999/xlink" width="73.577" height="47.234" viewBox="0 0 73.577 47.234">
  <defs>
    <clipPath id="clip-path">
      <rect width="73.577" height="47.234" fill="none"></rect>
    </clipPath>
    <clipPath id="clip-path-2">
      <path id="Path_2517" data-name="Path 2517" d="M0,20.55H73.577V-26.684H0Z" transform="translate(0 26.684)" fill="none"></path>
    </clipPath>
  </defs>
  <g id="Repeat_Grid_2" data-name="Repeat Grid 2" clip-path="url(#clip-path)">
    <g id="Group_1647" data-name="Group 1647" transform="translate(-24.789 26.684)">
      <g id="Group_1182" data-name="Group 1182" transform="translate(24.789 -26.684)" clip-path="url(#clip-path-2)">
        <g id="Group_1169" data-name="Group 1169" transform="translate(37.619 32.371)">
          <path id="Path_2504" data-name="Path 2504" d="M.6,1.208A1.391,1.391,0,0,1-.785-.181,1.39,1.39,0,0,1,.6-1.569,1.39,1.39,0,0,1,1.994-.181,1.391,1.391,0,0,1,.6,1.208" transform="translate(0.785 1.569)" fill="#414042"></path>
        </g>
        <g id="Group_1170" data-name="Group 1170" transform="translate(23.861 37.642)">
          <path id="Path_2505" data-name="Path 2505" d="M14.72.782H-18.215a.9.9,0,0,1-.9-.9.9.9,0,0,1,.9-.9H14.72a.9.9,0,0,1,.9.9.9.9,0,0,1-.9.9" transform="translate(19.114 1.016)" fill="#414042"></path>
        </g>
        <g id="Group_1171" data-name="Group 1171" transform="translate(11.901 0.001)">
          <path id="Path_2506" data-name="Path 2506" d="M23.2,8.945a.9.9,0,0,1-.9-.9V-7.545a2.275,2.275,0,0,0-2.273-2.273H-26.05a2.275,2.275,0,0,0-2.273,2.273V2.583a.9.9,0,0,1-.9.9.9.9,0,0,1-.9-.9V-7.545a4.073,4.073,0,0,1,4.07-4.07H20.024A4.075,4.075,0,0,1,24.1-7.545V8.046a.9.9,0,0,1-.9.9" transform="translate(30.12 11.615)" fill="#414042"></path>
        </g>
        <g id="Group_1172" data-name="Group 1172" transform="translate(31.436 37.803)">
          <path id="Path_2507" data-name="Path 2507" d="M6.225,4.1H-7.244a.841.841,0,0,1-.644-.3.842.842,0,0,1-.181-.689l1.434-7.755a.841.841,0,0,1,.827-.685h10.6a.841.841,0,0,1,.827.685L7.035,3.047a.817.817,0,0,1,.028.218.839.839,0,0,1-.839.839M-6.235,2.425H5.214L4.09-3.65h-9.2Z" transform="translate(8.083 5.328)" fill="#414042"></path>
        </g>
        <g id="Group_1173" data-name="Group 1173" transform="translate(29.133 45.556)">
          <path id="Path_2508" data-name="Path 2508" d="M8.228.73H-9.845a.839.839,0,0,1-.839-.839.839.839,0,0,1,.839-.839H8.228a.839.839,0,0,1,.839.839A.839.839,0,0,1,8.228.73" transform="translate(10.684 0.948)" fill="#414042"></path>
        </g>
        <g id="Group_1174" data-name="Group 1174" transform="translate(23.921 28.477)">
          <path id="Path_2509" data-name="Path 2509" d="M14.694.73H-18.241a.839.839,0,0,1-.839-.839.839.839,0,0,1,.839-.839H14.694a.839.839,0,0,1,.839.839.839.839,0,0,1-.839.839" transform="translate(19.08 0.948)" fill="#414042"></path>
        </g>
        <g id="Group_1175" data-name="Group 1175" transform="translate(0 13.361)">
          <path id="Path_2510" data-name="Path 2510" d="M9.8,14.737H-9.649a3.079,3.079,0,0,1-3.075-3.076V-16.061a3.078,3.078,0,0,1,3.075-3.075H9.8a3.079,3.079,0,0,1,3.076,3.075V11.661A3.081,3.081,0,0,1,9.8,14.737m-19.448-32.2a1.4,1.4,0,0,0-1.4,1.4V11.661a1.4,1.4,0,0,0,1.4,1.4H9.8a1.4,1.4,0,0,0,1.4-1.4V-16.061a1.4,1.4,0,0,0-1.4-1.4Z" transform="translate(12.724 19.136)" fill="#414042"></path>
        </g>
        <g id="Group_1176" data-name="Group 1176" transform="translate(56.856 18.824)">
          <path id="Path_2511" data-name="Path 2511" d="M5.94,12.361H-4.644A3.073,3.073,0,0,1-7.713,9.291V-12.981A3.073,3.073,0,0,1-4.644-16.05H5.94a3.073,3.073,0,0,1,3.069,3.069V9.291A3.073,3.073,0,0,1,5.94,12.361M-4.644-14.372a1.394,1.394,0,0,0-1.391,1.391V9.291a1.394,1.394,0,0,0,1.391,1.391H5.94A1.394,1.394,0,0,0,7.331,9.291V-12.981A1.394,1.394,0,0,0,5.94-14.372Z" transform="translate(7.713 16.05)" fill="#414042"></path>
        </g>
        <g id="Group_1177" data-name="Group 1177" transform="translate(64.371 43.15)">
          <path id="Path_2512" data-name="Path 2512" d="M.368.737A.847.847,0,0,1-.478-.109.848.848,0,0,1,.368-.957a.848.848,0,0,1,.846.848A.847.847,0,0,1,.368.737" transform="translate(0.478 0.957)" fill="#414042"></path>
        </g>
        <g id="Group_1178" data-name="Group 1178" transform="translate(11.84 42.522)">
          <path id="Path_2513" data-name="Path 2513" d="M.417.834A.96.96,0,0,1-.542-.125a.96.96,0,0,1,.959-.958.96.96,0,0,1,.959.958A.96.96,0,0,1,.417.834" transform="translate(0.542 1.083)" fill="#414042"></path>
        </g>
        <g id="Group_1179" data-name="Group 1179" transform="translate(62.636 21.95)">
          <path id="Path_2514" data-name="Path 2514" d="M1.787.73H-1.481A.84.84,0,0,1-2.32-.109a.84.84,0,0,1,.839-.839H1.787a.839.839,0,0,1,.839.839A.839.839,0,0,1,1.787.73" transform="translate(2.32 0.948)" fill="#414042"></path>
        </g>
        <g id="Group_1180" data-name="Group 1180" transform="translate(57.012 40.834)">
          <path id="Path_2515" data-name="Path 2515" d="M6.775.73H-7.958A.839.839,0,0,1-8.8-.109a.839.839,0,0,1,.839-.839H6.775a.839.839,0,0,1,.839.839A.839.839,0,0,1,6.775.73" transform="translate(8.797 0.948)" fill="#414042"></path>
        </g>
        <g id="Group_1181" data-name="Group 1181" transform="translate(0.247 39.869)">
          <path id="Path_2516" data-name="Path 2516" d="M10.558.73H-12.87a.839.839,0,0,1-.839-.839.839.839,0,0,1,.839-.839H10.558a.839.839,0,0,1,.839.839.839.839,0,0,1-.839.839" transform="translate(13.709 0.948)" fill="#414042"></path>
        </g>
      </g>
    </g>
  </g>
</svg>
