<svg height="47.234" viewBox="0 0 73.577 47.234" width="73.577" xmlns="http://www.w3.org/2000/svg" xmlns:xlink="http://www.w3.org/1999/xlink"><clipPath id="a"><path d="m0 0h73.577v47.234h-73.577z"/></clipPath><clipPath id="b"><path d="m0 20.55h73.577v-47.234h-73.577z" transform="translate(0 26.684)"/></clipPath><g clip-path="url(#a)"><g clip-path="url(#b)" fill="#414042"><path d="m.6 1.208a1.391 1.391 0 0 1 -1.385-1.389 1.39 1.39 0 0 1 1.385-1.388 1.39 1.39 0 0 1 1.394 1.388 1.391 1.391 0 0 1 -1.394 1.389" transform="translate(38.404 33.94)"/><path d="m14.72.782h-32.935a.9.9 0 0 1 -.9-.9.9.9 0 0 1 .9-.9h32.935a.9.9 0 0 1 .9.9.9.9 0 0 1 -.9.9" transform="translate(42.975 38.658)"/><path d="m23.2 8.945a.9.9 0 0 1 -.9-.9v-15.59a2.275 2.275 0 0 0 -2.273-2.273h-46.077a2.275 2.275 0 0 0 -2.273 2.273v10.128a.9.9 0 0 1 -.9.9.9.9 0 0 1 -.9-.9v-10.128a4.073 4.073 0 0 1 4.07-4.07h46.077a4.075 4.075 0 0 1 4.076 4.07v15.591a.9.9 0 0 1 -.9.9" transform="translate(42.021 11.616)"/><path d="m6.225 4.1h-13.469a.841.841 0 0 1 -.644-.3.842.842 0 0 1 -.181-.689l1.434-7.755a.841.841 0 0 1 .827-.685h10.6a.841.841 0 0 1 .827.685l1.416 7.691a.817.817 0 0 1 .028.218.839.839 0 0 1 -.839.839m-12.459-1.679h11.449l-1.124-6.075h-9.2z" transform="translate(39.519 43.131)"/><path d="m8.228.73h-18.073a.839.839 0 0 1 -.839-.839.839.839 0 0 1 .839-.839h18.073a.839.839 0 0 1 .839.839.839.839 0 0 1 -.839.839" transform="translate(39.817 46.504)"/><path d="m14.694.73h-32.935a.839.839 0 0 1 -.839-.839.839.839 0 0 1 .839-.839h32.935a.839.839 0 0 1 .839.839.839.839 0 0 1 -.839.839" transform="translate(43.001 29.425)"/><path d="m9.8 14.737h-19.449a3.079 3.079 0 0 1 -3.075-3.076v-27.722a3.078 3.078 0 0 1 3.075-3.075h19.449a3.079 3.079 0 0 1 3.076 3.075v27.722a3.081 3.081 0 0 1 -3.076 3.076m-19.448-32.2a1.4 1.4 0 0 0 -1.4 1.4v27.724a1.4 1.4 0 0 0 1.4 1.4h19.448a1.4 1.4 0 0 0 1.4-1.4v-27.722a1.4 1.4 0 0 0 -1.4-1.4z" transform="translate(12.724 32.497)"/><path d="m5.94 12.361h-10.584a3.073 3.073 0 0 1 -3.069-3.07v-22.272a3.073 3.073 0 0 1 3.069-3.069h10.584a3.073 3.073 0 0 1 3.069 3.069v22.272a3.073 3.073 0 0 1 -3.069 3.07m-10.584-26.733a1.394 1.394 0 0 0 -1.391 1.391v22.272a1.394 1.394 0 0 0 1.391 1.391h10.584a1.394 1.394 0 0 0 1.391-1.391v-22.272a1.394 1.394 0 0 0 -1.391-1.391z" transform="translate(64.569 34.874)"/><path d="m.368.737a.847.847 0 0 1 -.846-.846.848.848 0 0 1 .846-.848.848.848 0 0 1 .846.848.847.847 0 0 1 -.846.846" transform="translate(64.849 44.107)"/><path d="m.417.834a.96.96 0 0 1 -.959-.959.96.96 0 0 1 .959-.958.96.96 0 0 1 .959.958.96.96 0 0 1 -.959.959" transform="translate(12.382 43.605)"/><path d="m1.787.73h-3.268a.84.84 0 0 1 -.839-.839.84.84 0 0 1 .839-.839h3.268a.839.839 0 0 1 .839.839.839.839 0 0 1 -.839.839" transform="translate(64.956 22.898)"/><path d="m6.775.73h-14.733a.839.839 0 0 1 -.842-.839.839.839 0 0 1 .839-.839h14.736a.839.839 0 0 1 .839.839.839.839 0 0 1 -.839.839" transform="translate(65.809 41.782)"/><path d="m10.558.73h-23.428a.839.839 0 0 1 -.839-.839.839.839 0 0 1 .839-.839h23.428a.839.839 0 0 1 .839.839.839.839 0 0 1 -.839.839" transform="translate(13.956 40.817)"/></g></g></svg>