<svg height="65.83" viewBox="0 0 68.999 65.83" width="68.999" xmlns="http://www.w3.org/2000/svg"><path d="m35.49 65.83a3 3 0 0 1 -2.889-2.2 4.208 4.208 0 0 1 -2.06-.947 3.383 3.383 0 0 1 -1.232-2.583v-5.367a4.12 4.12 0 0 1 -2.573-3.369l-.868-7.664a6.557 6.557 0 0 0 -2.046-3.974 18.055 18.055 0 0 1 -4.741-7.582.856.856 0 0 1 1.632-.517 16.338 16.338 0 0 0 4.287 6.862 8.271 8.271 0 0 1 2.565 5.02l.868 7.664a2.41 2.41 0 0 0 2.4 2.141h10.816a2.41 2.41 0 0 0 2.4-2.14l.85-7.508a8.2 8.2 0 0 1 2.489-5.087 16.4 16.4 0 0 0 1.2-1.248.855.855 0 1 1 1.3 1.114 18.157 18.157 0 0 1 -1.327 1.382 6.49 6.49 0 0 0 -1.961 4.031l-.85 7.507a4.12 4.12 0 0 1 -2.571 3.368v5.367a3.382 3.382 0 0 1 -1.23 2.584 4.213 4.213 0 0 1 -2.061.947 3 3 0 0 1 -2.89 2.2zm0-1.711h1.5a1.283 1.283 0 0 0 .958-.429h-3.42a1.281 1.281 0 0 0 .962.429zm3.607-2.14h.072a2.137 2.137 0 0 0 2.3-1.881v-5.074h-10.448v5.076a2.136 2.136 0 0 0 2.3 1.881h5.779zm-32.497-5.929a10.836 10.836 0 1 1 4.2.849 10.741 10.741 0 0 1 -4.2-.849zm-2.227-16.376a9.088 9.088 0 0 0 12.853 12.853 9.088 9.088 0 1 0 -12.853-12.853zm2.032 10.494v-8.136a1.931 1.931 0 0 1 .595-1.408 1.953 1.953 0 0 1 1.357-.548 1.962 1.962 0 0 1 .976.264l7.045 4.067a1.955 1.955 0 0 1 0 3.386l-7.04 4.067a1.952 1.952 0 0 1 -2.932-1.692zm1.783-8.309a.226.226 0 0 0 -.072.173v8.136a.247.247 0 0 0 .246.245.243.243 0 0 0 .12-.034l7.045-4.068a.243.243 0 0 0 0-.421l-7.045-4.068a.235.235 0 0 0 -.121-.035.257.257 0 0 0 -.173.072zm39.012-5.683a2.6 2.6 0 0 1 -2.6-2.595v-13.536a2.6 2.6 0 0 1 2.6-2.594h19.2a2.6 2.6 0 0 1 2.6 2.594v13.536a2.6 2.6 0 0 1 -2.6 2.595zm-.884-16.131v13.536a.885.885 0 0 0 .884.884h19.2a.886.886 0 0 0 .885-.884v-13.536a.885.885 0 0 0 -.884-.883h-19.201a.885.885 0 0 0 -.889.883zm13.65 13.188-3.21-3.783-.03-.035-2.745-3.228-5.353 4.294a.855.855 0 0 1 -1.07-1.335l6-4.814a.855.855 0 0 1 1.187.113l2.76 3.245 3.5-2.81a.856.856 0 0 1 1.188.113l3.964 4.666a.856.856 0 0 1 -1.3 1.108l-3.425-4.032-2.817 2.265 2.656 3.131a.855.855 0 0 1 -1.3 1.107zm-28.388-1.21-5.859-2.723a22.557 22.557 0 0 1 -6.628.977 22.464 22.464 0 0 1 -7.221-1.167 19.408 19.408 0 0 1 -5.933-3.2 15.378 15.378 0 0 1 -4.046-4.81 12.581 12.581 0 0 1 0-11.92 15.388 15.388 0 0 1 4.046-4.809 19.406 19.406 0 0 1 5.933-3.2 22.9 22.9 0 0 1 14.441 0 19.406 19.406 0 0 1 5.933 3.2 15.388 15.388 0 0 1 4.046 4.809 12.643 12.643 0 0 1 1.5 5.96c0 4.365-2.291 8.469-6.307 11.344l1.279 4.531a.856.856 0 0 1 -1.184 1.009zm-5.438-4.412 4.47 2.075-.939-3.326a.856.856 0 0 1 .349-.945c3.851-2.564 6.06-6.309 6.06-10.275 0-7.4-7.622-13.429-16.989-13.429s-16.991 6.025-16.991 13.429 7.622 13.429 16.99 13.429a20.788 20.788 0 0 0 6.424-1 .862.862 0 0 1 .625.039zm21.109-5.1a2.512 2.512 0 1 1 2.511 2.509 2.515 2.515 0 0 1 -2.512-2.512zm1.711 0a.8.8 0 1 0 .8-.8.8.8 0 0 0 -.801.797zm-25.533-6.451a3.038 3.038 0 1 1 3.038 3.04 3.042 3.042 0 0 1 -3.038-3.04zm1.711 0a1.327 1.327 0 1 0 1.327-1.327 1.329 1.329 0 0 0 -1.327 1.327zm-9.086 0a3.038 3.038 0 1 1 3.039 3.04 3.042 3.042 0 0 1 -3.039-3.04zm1.711 0a1.327 1.327 0 1 0 1.328-1.327 1.329 1.329 0 0 0 -1.328 1.327zm-9.085 0a3.038 3.038 0 1 1 3.038 3.04 3.042 3.042 0 0 1 -3.037-3.04zm1.711 0a1.327 1.327 0 1 0 1.327-1.327 1.329 1.329 0 0 0 -1.326 1.327zm38.395.228a16.291 16.291 0 0 0 -9.7-5.639.856.856 0 1 1 .3-1.686 18.006 18.006 0 0 1 10.716 6.231.855.855 0 1 1 -1.316 1.094z" fill="#414042"/></svg>