<svg height="60.872" viewBox="0 0 54.199 60.872" width="54.199" xmlns="http://www.w3.org/2000/svg" xmlns:xlink="http://www.w3.org/1999/xlink"><clipPath id="a"><path d="m0 0h54.199v60.872h-54.199z"/></clipPath><g clip-path="url(#a)"><path d="m5 60.872a5.007 5.007 0 0 1 -5-5v-50.872a5.006 5.006 0 0 1 5-5h24.834a5.006 5.006 0 0 1 5 5v5.842a.935.935 0 1 1 -1.869 0v-5.842a3.134 3.134 0 0 0 -3.131-3.13h-24.834a3.134 3.134 0 0 0 -3.13 3.13v50.87a3.134 3.134 0 0 0 3.13 3.13h24.834a3.134 3.134 0 0 0 3.131-3.131v-16.889a.935.935 0 1 1 1.869 0v16.89a5.006 5.006 0 0 1 -5 5zm10.254-3.245a.935.935 0 1 1 0-1.869h4.326a.935.935 0 1 1 0 1.869zm3.246-10.797v-.006l-4.515-11.824-.951-.073a4.268 4.268 0 0 1 -3.892-3.609l-.68-4.452a4.266 4.266 0 0 1 2.638-4.607l14.92-5.959 11.154-5.151a1.934 1.934 0 0 1 .859-.357 1.971 1.971 0 0 1 .283-.021 2.875 2.875 0 0 1 2.161 1.282 12.019 12.019 0 0 1 1.574 2.786 37.984 37.984 0 0 1 2.339 8.809 37.43 37.43 0 0 1 .38 9.3c-.328 2.981-1.186 4.616-2.55 4.863a.929.929 0 0 1 -.112.017 1.862 1.862 0 0 1 -.225.014 1.986 1.986 0 0 1 -.619-.1l-12.196-1.588-5.768-.441 1.549 6.248a0 0 0 0 0 0 0 7.15 7.15 0 0 1 .135.732.1.1 0 0 0 0 .016 4.965 4.965 0 0 1 -4.045 5.691 2.088 2.088 0 0 1 -.248.015 2.408 2.408 0 0 1 -2.191-1.585zm1.742-.677c.1.25.3.417.48.4h.006a2.565 2.565 0 0 0 1.823-1.155 3.7 3.7 0 0 0 .582-2.463 5.026 5.026 0 0 0 -.1-.52l-1.7-6.846-5.294-.405zm21.69-10.213a1.728 1.728 0 0 0 .423-.679 9.909 9.909 0 0 0 .565-2.612 35.8 35.8 0 0 0 -.38-8.716 36.053 36.053 0 0 0 -2.21-8.357c-.946-2.215-1.705-2.827-1.956-2.92l-.179.082a2.128 2.128 0 0 0 -.354.613 9.857 9.857 0 0 0 -.565 2.611 28.656 28.656 0 0 0 -.067 4.5c2.707.128 4.785 1.52 5.089 3.509a3.816 3.816 0 0 1 -1.212 3.254 7.1 7.1 0 0 1 -2.6 1.614 28.915 28.915 0 0 0 1.376 4.2c.854 2 1.557 2.695 1.869 2.878zm-14.756-18.112a20.469 20.469 0 0 0 2.524 16.523l9.337 1.213a15.364 15.364 0 0 1 -.893-1.793 32.4 32.4 0 0 1 -1.673-5.322v-.016c0-.018-.008-.035-.012-.053-.252-1.1-.47-2.244-.65-3.419s-.316-2.352-.4-3.478c0-.01 0-.02 0-.031a31.824 31.824 0 0 1 .026-5.787 14.929 14.929 0 0 1 .3-1.788zm.23 16.323a22.31 22.31 0 0 1 -2.362-15.446l-13.254 5.29a2.387 2.387 0 0 0 -1.48 2.588l.68 4.452a2.388 2.388 0 0 0 2.186 2.028l1.463.112a.93.93 0 0 1 .155.012l7.294.558a.927.927 0 0 1 .133.01zm10.25-9.471c.12.789.259 1.564.413 2.316 1.533-.631 2.534-1.737 2.38-2.744s-1.44-1.762-3.091-1.906c.078.764.177 1.545.298 2.334zm15.1 9.792-5.742-3.752a.935.935 0 1 1 1.023-1.565l5.738 3.753a.935.935 0 1 1 -1.023 1.564zm-7.166-11.005a.934.934 0 0 1 .783-1.066l4.181-.64a.935.935 0 0 1 .283 1.849l-4.181.639a.848.848 0 0 1 -.142.011.935.935 0 0 1 -.924-.793zm-.68-6.032a.935.935 0 0 1 -.129-1.317l4.354-5.3a.935.935 0 0 1 1.445 1.192l-4.354 5.3a.935.935 0 0 1 -1.316.129zm-31.642-10.803a3.175 3.175 0 0 1 -2.7-1.508.935.935 0 0 1 1.6-.973 1.278 1.278 0 0 0 1.1.611h8.464a1.287 1.287 0 0 0 1.105-.615.935.935 0 1 1 1.592.98 3.144 3.144 0 0 1 -2.7 1.5z" fill="#414042"/></g></svg>