<?xml version="1.0" encoding="UTF-8"?>
<svg xmlns="http://www.w3.org/2000/svg" id="Group_1648" data-name="Group 1648" width="60.229" height="60.229" viewBox="0 0 60.229 60.229">
  <g id="Group_1186" data-name="Group 1186" transform="translate(0 0)">
    <path id="Path_2526" data-name="Path 2526" d="M17.946,12.509,26.972,3.5l.127.127a1,1,0,0,0,1.422,0l4.5-4.5a1,1,0,0,0,0-1.422L33.022-2.3,36-5.269a4.831,4.831,0,0,0,1.426-3.438A4.837,4.837,0,0,0,36-12.149l-2.318-2.319A4.831,4.831,0,0,0,30.244-15.9a4.835,4.835,0,0,0-3.438,1.422l-2.973,2.968-.005,0a1,1,0,0,0-.711-.3h0a1.013,1.013,0,0,0-.711.295l-4.5,4.5a1.007,1.007,0,0,0,0,1.424l.127.127L8.994,3.557-8.849-14.286a5.463,5.463,0,0,0-3.888-1.61h0a5.466,5.466,0,0,0-3.888,1.61l-4.567,4.569a5.458,5.458,0,0,0-1.612,3.888,5.463,5.463,0,0,0,1.61,3.888L-3.361,15.892-17.978,30.486a1,1,0,0,0-.248.409l-.011.021-4.5,12.008a1.009,1.009,0,0,0,.231,1.065,1,1,0,0,0,.711.295,1.024,1.024,0,0,0,.356-.064L-9.462,39.7l.023-.011a.991.991,0,0,0,.406-.247l14.624-14.6L23.469,42.723a5.5,5.5,0,0,0,7.777,0l4.569-4.569a5.506,5.506,0,0,0,0-7.775ZM24.892,41.3,22.331,38.74l1.7-1.707-.711-.711-.711-.711-1.7,1.707-6.2-6.2,1.7-1.707L15.7,28.7l-.711-.711-1.707,1.7-6.2-6.2,1.707-1.7-.068-.068,2.336-2.332L31.4,39.728,29.824,41.3a3.486,3.486,0,0,1-4.932,0m-41.827-.931L-18.9,38.4l1.994-5.316,5.273,5.282Zm-3.143,1.185.406-1.079.672.674ZM-6.458,6.539-7.881,5.117l-1.707,1.7-6.2-6.2,1.7-1.7-1.422-1.424L-17.21-.8l-2.562-2.561a3.47,3.47,0,0,1-1.02-2.466,3.464,3.464,0,0,1,1.022-2.466L-18.2-9.867l20.3,20.3L-.231,12.766l-.027-.027-1.707,1.707-6.2-6.2Zm-3.813-19.4.656.656-1.707,1.7L-9.9-9.081l1.707-1.7L-5.8-8.4l-1.707,1.7.711.711.711.713,1.707-1.707,2.389,2.389L-3.7-2.878l.711.711.711.711,1.7-1.707L1.819-.773.114.933l.711.711.711.711,1.7-1.7L5.631,3.04l-1.7,1.7.711.711.711.711,1.707-1.7.515.515L3.527,9.014l-20.3-20.3,1.574-1.574a3.463,3.463,0,0,1,2.464-1.02,3.464,3.464,0,0,1,2.466,1.02M-1.228,16.6l.711-.709,4.042-4.037.713-.711.711-.709L8.992,6.4,9.7,5.69l.713-.711,9.031-9.017,1.031,1.033L11.454,6.017l-.543.541-.168.17-.711.711-1.707,1.7L5.991,11.478l-.711.711-.711.711L.529,16.939l-.711.711-.711.711-13.9,13.893L-15.847,31.2-1.939,17.314ZM30.244-13.884a2.829,2.829,0,0,1,2.017.836l2.318,2.321a2.84,2.84,0,0,1,.835,2.017,2.837,2.837,0,0,1-.838,2.016L31.6-3.723l-6.349-6.358,2.975-2.968a2.833,2.833,0,0,1,2.016-.834M23.83-8.659,30.178-2.3l.711.711.005.005-.579.577L28.628.676l-.817.817-.127-.129L26.974.653,26.924.6l-6-6.009-.05-.052-.711-.711L20.033-6.3l.817-.815L22.535-8.8l.579-.579.005.005ZM13.28,9.266l-.711.711-4.04,4.038-.711.711-.711.711-4.04,4.038-.711.711-.711.711-13.9,13.9-1.115-1.115,13.9-13.9.711-.711.711-.711,4.04-4.038.711-.711.711-.711,4.04-4.038.711-.711.711-.711L21.9-1.581,23.014-.466l-9.022,9.02ZM-9.743,37.312l-1.092-1.094,13.9-13.9.711-.711L4.49,20.9,8.529,16.86l.711-.711.711-.711L12.285,13.1l1.707-1.7.711-.711.17-.17.541-.541L24.436.958l1.113,1.115-9.026,9.013-.711.711-.713.709-4.042,4.037-.711.711-.713.709L5.593,22l-.713.709-.711.711Zm42.561.994L12.48,17.966l4.042-4.037.545.545L15.36,16.181l.713.711.711.711,1.7-1.707,2.389,2.391-1.7,1.7.711.711.711.711,1.7-1.7L24.69,22.1l-1.7,1.7.711.711.711.711,1.707-1.7L28.5,25.911l-1.707,1.7,1.422,1.422,1.707-1.7,2.389,2.389-1.707,1.7.711.711.711.711,1.707-1.7.654.656a3.489,3.489,0,0,1,0,4.93Z" transform="translate(22.805 15.896)" fill="#414042"></path>
  </g>
</svg>
