<svg height="60.229" viewBox="0 0 60.229 60.229" width="60.229" xmlns="http://www.w3.org/2000/svg"><path d="m17.946 12.509 9.026-9.009.127.127a1 1 0 0 0 1.422 0l4.5-4.5a1 1 0 0 0 0-1.422l.001-.005 2.978-2.969a4.831 4.831 0 0 0 1.426-3.438 4.837 4.837 0 0 0 -1.426-3.442l-2.318-2.319a4.831 4.831 0 0 0 -3.438-1.432 4.835 4.835 0 0 0 -3.438 1.422l-2.973 2.968h-.005a1 1 0 0 0 -.711-.3 1.013 1.013 0 0 0 -.711.295l-4.5 4.5a1.007 1.007 0 0 0 0 1.424l.127.127-9.039 9.021-17.843-17.843a5.463 5.463 0 0 0 -3.888-1.61 5.466 5.466 0 0 0 -3.888 1.61l-4.567 4.569a5.458 5.458 0 0 0 -1.612 3.888 5.463 5.463 0 0 0 1.61 3.888l17.833 17.833-14.617 14.594a1 1 0 0 0 -.248.409l-.011.021-4.5 12.008a1.009 1.009 0 0 0 .231 1.065 1 1 0 0 0 .711.295 1.024 1.024 0 0 0 .356-.064l11.977-4.52.023-.011a.991.991 0 0 0 .406-.247l14.624-14.6 17.878 17.881a5.5 5.5 0 0 0 7.777 0l4.569-4.569a5.506 5.506 0 0 0 0-7.775zm6.946 28.791-2.561-2.56 1.7-1.707-.711-.711-.711-.711-1.7 1.707-6.2-6.2 1.7-1.707-.709-.711-.711-.711-1.707 1.7-6.2-6.2 1.707-1.7-.068-.068 2.336-2.332 20.343 20.339-1.576 1.572a3.486 3.486 0 0 1 -4.932 0m-41.827-.931-1.965-1.969 1.994-5.316 5.273 5.282zm-3.143 1.185.406-1.079.672.674zm13.62-35.015-1.423-1.422-1.707 1.7-6.2-6.2 1.7-1.7-1.422-1.424-1.7 1.707-2.562-2.561a3.47 3.47 0 0 1 -1.02-2.466 3.464 3.464 0 0 1 1.022-2.466l1.57-1.574 20.3 20.3-2.331 2.333-.027-.027-1.707 1.707-6.2-6.2zm-3.813-19.4.656.656-1.707 1.7 1.422 1.424 1.707-1.7 2.393 2.381-1.707 1.7.711.711.711.713 1.707-1.707 2.389 2.389-1.711 1.716.711.711.711.711 1.7-1.707 2.397 2.39-1.705 1.706.711.711.711.711 1.7-1.7 2.395 2.385-1.7 1.7.711.711.711.711 1.707-1.7.515.515-4.048 4.037-20.3-20.3 1.574-1.574a3.463 3.463 0 0 1 2.464-1.02 3.464 3.464 0 0 1 2.466 1.02m9.041 29.46.711-.709 4.042-4.037.713-.711.711-.709 4.043-4.034.708-.71.713-.711 9.031-9.017 1.031 1.033-9.021 9.022-.543.541-.168.17-.711.711-1.707 1.7-2.334 2.339-.711.711-.711.711-4.04 4.039-.711.711-.711.711-13.9 13.893-1.054-1.054 13.908-13.886zm31.472-30.484a2.829 2.829 0 0 1 2.017.836l2.318 2.321a2.84 2.84 0 0 1 .835 2.017 2.837 2.837 0 0 1 -.838 2.016l-2.976 2.971-6.349-6.358 2.975-2.968a2.833 2.833 0 0 1 2.016-.834m-6.412 5.224 6.348 6.359.711.711.005.005-.579.577-1.687 1.683-.817.817-.127-.129-.71-.711-.05-.053-6-6.009-.05-.052-.711-.711-.13-.128.817-.815 1.685-1.685.579-.579.005.005zm-10.55 17.925-.711.711-4.04 4.038-.711.711-.711.711-4.04 4.038-.711.711-.711.711-13.9 13.9-1.115-1.115 13.9-13.9.711-.711.711-.711 4.04-4.038.711-.711.711-.711 4.04-4.038.711-.711.711-.711 9.024-9.021 1.114 1.115-9.022 9.02zm-23.023 28.046-1.092-1.094 13.9-13.9.711-.711.714-.707 4.039-4.04.711-.711.711-.711 2.334-2.338 1.707-1.7.711-.711.17-.17.541-.541 9.022-9.02 1.113 1.115-9.026 9.013-.711.711-.713.709-4.042 4.037-.711.711-.713.709-4.04 4.037-.713.709-.711.711zm42.561.994-20.338-20.34 4.042-4.037.545.545-1.707 1.707.713.711.711.711 1.7-1.707 2.389 2.391-1.7 1.7.711.711.711.711 1.7-1.7 2.395 2.391-1.7 1.7.711.711.711.711 1.707-1.7 2.381 2.389-1.707 1.7 1.422 1.422 1.707-1.7 2.389 2.389-1.707 1.7.711.711.711.711 1.707-1.7.654.656a3.489 3.489 0 0 1 0 4.93z" fill="#414042" transform="translate(22.805 15.896)"/></svg>