<svg height="63.824" viewBox="0 0 89.333 63.824" width="89.333" xmlns="http://www.w3.org/2000/svg"><path d="m63.563 28.593c-2.121-15.964-15.863-28.546-31.843-28.582a26.349 26.349 0 0 0 -5.858.608c-19.277 3.772-31.283 26.146-23.42 44.223 7.078 16.278 17.626 30.229 28.622 43.91.789.978 1.228.58 1.808-.157 1.731-2.2 3.543-4.34 5.246-6.559 8.459-11 16.568-22.241 22.289-35 2.633-5.87 4.03-11.877 3.157-18.448m-31.7 12.646c-5.834-.016-10.613-5.061-10.653-11.233-.035-6.107 4.789-11.201 10.642-11.22a10.993 10.993 0 0 1 10.747 11.112c.044 6.233-4.815 11.366-10.738 11.346" fill="#414042" transform="matrix(0 1 -1 0 89.333 0)"/></svg>