<svg xmlns="http://www.w3.org/2000/svg" width="89.333" height="63.824" viewBox="0 0 89.333 63.824">
  <path id="Path_2327" data-name="Path 2327" d="M63.563,28.593C61.442,12.629,47.7.047,31.72.011a26.349,26.349,0,0,0-5.858.608C6.585,4.391-5.421,26.765,2.442,44.842,9.52,61.12,20.068,75.071,31.064,88.752c.789.978,1.228.58,1.808-.157,1.731-2.2,3.543-4.34,5.246-6.559,8.459-11,16.568-22.241,22.289-35,2.633-5.87,4.03-11.877,3.157-18.448m-31.7,12.646c-5.834-.016-10.613-5.061-10.653-11.233C21.176,23.894,26,18.8,31.853,18.781A10.993,10.993,0,0,1,42.6,29.893c.044,6.233-4.815,11.366-10.738,11.346" transform="translate(89.333 0) rotate(90)" fill="#414042"></path>
</svg>