<svg viewBox="0 0 536.11 535.71" xmlns="http://www.w3.org/2000/svg"><g fill="none" stroke="#fff" stroke-miterlimit="10"><circle cx="268.05" cy="267.86" r="263.33"/><circle cx="268.05" cy="267.86" r="17.82"/><rect height="70" rx="14.15" transform="matrix(0 1 -1 0 728.65 -192.93)" width="58.9" x="431.34" y="232.86"/><rect height="70" rx="14.15" transform="matrix(0 1 -1 0 343.18 192.54)" width="58.9" x="45.87" y="232.86"/><rect height="70" rx="14.15" transform="matrix(.43365908 .90107702 -.90107702 .43365908 416.21 -293.66)" width="58.9" x="412.27" y="149.28"/><rect height="70" rx="14.15" transform="matrix(.43365908 .90107702 -.90107702 .43365908 370.13 113.98)" width="58.9" x="64.94" y="316.44"/><rect height="70" rx="14.15" transform="matrix(.78152047 .6238796 -.6238796 .78152047 157.97 -216.64)" width="58.9" x="358.85" y="82.23"/><rect height="70" rx="14.15" transform="matrix(.78152047 .6238796 -.6238796 .78152047 293.38 -.79)" width="58.9" x="118.36" y="383.48"/><rect height="70" rx="14.15" transform="matrix(.97476119 .22325012 -.22325012 .97476119 25.71 -67.43)" width="58.9" x="281.63" y="44.99"/><rect height="70" rx="14.15" transform="matrix(.97476119 .22325012 -.22325012 .97476119 107.42 -38.74)" width="58.9" x="195.58" y="420.73"/><rect height="70" rx="14.15" transform="matrix(.97514935 -.2215485 .2215485 .97514935 -12.1 51.91)" width="58.9" x="195.91" y="44.91"/><rect height="70" rx="14.15" transform="matrix(.97514935 -.2215485 .2215485 .97514935 -93.26 80.17)" width="58.9" x="281.31" y="420.8"/><rect height="70" rx="14.15" transform="matrix(.78260816 -.62251464 .62251464 .78260816 -40.66 117.62)" width="58.9" x="118.63" y="82.02"/><rect height="70" rx="14.15" transform="matrix(.78260816 -.62251464 .62251464 .78260816 -176.29 332.58)" width="58.9" x="358.59" y="383.69"/><rect height="70" rx="14.15" transform="matrix(.4352311 -.90031877 .90031877 .4352311 -112.25 189.01)" width="58.9" x="65.08" y="148.97"/><rect height="70" rx="14.15" transform="matrix(.4352311 -.90031877 .90031877 .4352311 -67.29 596.21)" width="58.9" x="412.13" y="316.74"/><path d="m260.62 16.48h14.87v28.97h-14.87z"/><path d="m75.23 105.9h14.87v28.97h-14.87z" transform="matrix(.62251464 -.78260816 .78260816 .62251464 -63.01 110.14)"/><path d="m29.8 306.66h14.87v28.97h-14.87z" transform="matrix(-.22495105 -.97437006 .97437006 -.22495105 -267.31 429.67)"/><path d="m158.64 467.19h14.87v28.97h-14.87z" transform="matrix(-.90258528 -.4305111 .4305111 -.90258528 108.6 987.92)"/><path d="m364.47 466.29h14.87v28.97h-14.87z" transform="matrix(-.89879405 .43837115 -.43837115 -.89879405 916.92 749.86)"/><path d="m491.9 304.64h14.87v28.97h-14.87z" transform="matrix(-.21643961 .97629601 -.97629601 -.21643961 918.97 -99.29)"/><path d="m444.72 104.29h14.87v28.97h-14.87z" transform="matrix(.62932039 .77714596 -.77714596 .62932039 259.91 -307.36)"/></g></svg>