<svg id="BACKGROUND"
    xmlns="http://www.w3.org/2000/svg" viewBox="0 0 536.11 535.71">
    <circle cx="268.05" cy="267.86" r="263.33" fill="none" stroke="#fff" stroke-miterlimit="10"></circle>
    <circle cx="268.05" cy="267.86" r="17.82" fill="none" stroke="#fff" stroke-miterlimit="10"></circle>
    <rect x="431.34" y="232.86" width="58.9" height="70" rx="14.15" ry="14.15" transform="translate(728.65 -192.93) rotate(90)" fill="none" stroke="#fff" stroke-miterlimit="10"></rect>
    <rect x="45.87" y="232.86" width="58.9" height="70" rx="14.15" ry="14.15" transform="translate(343.18 192.54) rotate(90)" fill="none" stroke="#fff" stroke-miterlimit="10"></rect>
    <rect x="412.27" y="149.28" width="58.9" height="70" rx="14.15" ry="14.15" transform="translate(416.21 -293.66) rotate(64.3)" fill="none" stroke="#fff" stroke-miterlimit="10"></rect>
    <rect x="64.94" y="316.44" width="58.9" height="70" rx="14.15" ry="14.15" transform="translate(370.13 113.98) rotate(64.3)" fill="none" stroke="#fff" stroke-miterlimit="10"></rect>
    <rect x="358.85" y="82.23" width="58.9" height="70" rx="14.15" ry="14.15" transform="translate(157.97 -216.64) rotate(38.6)" fill="none" stroke="#fff" stroke-miterlimit="10"></rect>
    <rect x="118.36" y="383.48" width="58.9" height="70" rx="14.15" ry="14.15" transform="translate(293.38 -.79) rotate(38.6)" fill="none" stroke="#fff" stroke-miterlimit="10"></rect>
    <rect x="281.63" y="44.99" width="58.9" height="70" rx="14.15" ry="14.15" transform="translate(25.71 -67.43) rotate(12.9)" fill="none" stroke="#fff" stroke-miterlimit="10"></rect>
    <rect x="195.58" y="420.73" width="58.9" height="70" rx="14.15" ry="14.15" transform="translate(107.42 -38.74) rotate(12.9)" fill="none" stroke="#fff" stroke-miterlimit="10"></rect>
    <rect x="195.91" y="44.91" width="58.9" height="70" rx="14.15" ry="14.15" transform="translate(-12.1 51.91) rotate(-12.8)" fill="none" stroke="#fff" stroke-miterlimit="10"></rect>
    <rect x="281.31" y="420.8" width="58.9" height="70" rx="14.15" ry="14.15" transform="translate(-93.26 80.17) rotate(-12.8)" fill="none" stroke="#fff" stroke-miterlimit="10"></rect>
    <rect x="118.63" y="82.02" width="58.9" height="70" rx="14.15" ry="14.15" transform="translate(-40.66 117.62) rotate(-38.5)" fill="none" stroke="#fff" stroke-miterlimit="10"></rect>
    <rect x="358.59" y="383.69" width="58.9" height="70" rx="14.15" ry="14.15" transform="translate(-176.29 332.58) rotate(-38.5)" fill="none" stroke="#fff" stroke-miterlimit="10"></rect>
    <rect x="65.08" y="148.97" width="58.9" height="70" rx="14.15" ry="14.15" transform="translate(-112.25 189.01) rotate(-64.2)" fill="none" stroke="#fff" stroke-miterlimit="10"></rect>
    <rect x="412.13" y="316.74" width="58.9" height="70" rx="14.15" ry="14.15" transform="translate(-67.29 596.21) rotate(-64.2)" fill="none" stroke="#fff" stroke-miterlimit="10"></rect>
    <rect x="260.62" y="16.48" width="14.87" height="28.97" fill="none" stroke="#fff" stroke-miterlimit="10"></rect>
    <rect x="75.23" y="105.9" width="14.87" height="28.97" transform="translate(-63.01 110.14) rotate(-51.5)" fill="none" stroke="#fff" stroke-miterlimit="10"></rect>
    <rect x="29.8" y="306.66" width="14.87" height="28.97" transform="translate(-267.31 429.67) rotate(-103)" fill="none" stroke="#fff" stroke-miterlimit="10"></rect>
    <rect x="158.64" y="467.19" width="14.87" height="28.97" transform="translate(108.6 987.92) rotate(-154.5)" fill="none" stroke="#fff" stroke-miterlimit="10"></rect>
    <rect x="364.47" y="466.29" width="14.87" height="28.97" transform="translate(916.92 749.86) rotate(154)" fill="none" stroke="#fff" stroke-miterlimit="10"></rect>
    <rect x="491.9" y="304.64" width="14.87" height="28.97" transform="translate(918.97 -99.29) rotate(102.5)" fill="none" stroke="#fff" stroke-miterlimit="10"></rect>
    <rect x="444.72" y="104.29" width="14.87" height="28.97" transform="translate(259.91 -307.36) rotate(51)" fill="none" stroke="#fff" stroke-miterlimit="10"></rect>
</svg>