<svg height="53" viewBox="0 0 67.957 53" width="67.957" xmlns="http://www.w3.org/2000/svg"><path d="m133.289 1820.338c0 .042 0 .085-.007.123a5.124 5.124 0 0 1 -1.344.014v-.271c0-.908.006-1.817-.005-2.725a2.949 2.949 0 0 0 -.1-.742 1.007 1.007 0 0 0 -.88-.773 1.5 1.5 0 0 0 -.84.092 1.278 1.278 0 0 0 -.752 1.155c-.011.111-.007.225-.007.337q0 1.324 0 2.648v.3h-1.234v-.291c0-.874.005-1.748 0-2.622a3.563 3.563 0 0 0 -.075-.771 1.035 1.035 0 0 0 -.93-.849 1.6 1.6 0 0 0 -.792.079 1.175 1.175 0 0 0 -.754 1.032 3.329 3.329 0 0 0 -.023.466q0 1.324 0 2.648v.3a3.5 3.5 0 0 1 -.6.021c-.2 0-.395 0-.611 0v-5.609h1.208v.623a4.671 4.671 0 0 1 .545-.447 2.138 2.138 0 0 1 .62-.25 2.444 2.444 0 0 1 .67-.04 2.254 2.254 0 0 1 .633.121 2.212 2.212 0 0 1 .585.324 4.683 4.683 0 0 1 .479.493c.042-.045.089-.091.131-.141a2.226 2.226 0 0 1 1.553-.794 2.7 2.7 0 0 1 1.253.143 1.917 1.917 0 0 1 1.243 1.6 2.942 2.942 0 0 1 .039.465v3.349" transform="translate(-121.102 -1767.646)"/><path d="m2276.218 1734v2.877c-.093-.089-.148-.14-.2-.192a1.886 1.886 0 0 0 -.893-.5 2.755 2.755 0 0 0 -2.08.29 3.062 3.062 0 0 0 -.864 4.322 2.709 2.709 0 0 0 2.209 1.173 2.04 2.04 0 0 0 1.743-.7c.013-.015.041-.017.092-.037v.591h1.219v-7.824zm-.354 6.3a1.56 1.56 0 0 1 -1.628.482 1.6 1.6 0 0 1 -1.226-1.215 1.9 1.9 0 0 1 .343-1.766 1.6 1.6 0 0 1 1.687-.537 1.574 1.574 0 0 1 1.221 1.213 4.756 4.756 0 0 1 .088.561 1.9 1.9 0 0 1 -.487 1.262" transform="translate(-2212.655 -1688.974)"/><path d="m1841.492 1814.534h-1.2v.636c-.172-.15-.293-.275-.432-.373a2.378 2.378 0 0 0 -2.112-.288 2.662 2.662 0 0 0 -1.943 2.068 2.881 2.881 0 0 0 2.464 3.674 2.08 2.08 0 0 0 1.909-.656 1.266 1.266 0 0 1 .117-.095v.638h.63.578c.055-.434.036-5.424-.015-5.6m-2.163 4.495a1.7 1.7 0 0 1 -2.25-1.191 1.921 1.921 0 0 1 .387-1.781 1.6 1.6 0 0 1 1.679-.49 1.574 1.574 0 0 1 1.194 1.21 4.824 4.824 0 0 1 .086.562 1.818 1.818 0 0 1 -1.1 1.689" transform="translate(-1788.052 -1767.273)"/><path d="m516.492 1814.369v.615a5.189 5.189 0 0 0 -.6-.452 2.514 2.514 0 0 0 -2.325-.051 3.029 3.029 0 0 0 -1.109 4.469 2.7 2.7 0 0 0 2.115 1.151 2.087 2.087 0 0 0 1.806-.671.887.887 0 0 1 .112-.084v.613h1.214v-5.589zm-.233 3.822a1.531 1.531 0 0 1 -1.56.772 1.617 1.617 0 0 1 -1.447-1.165 5.041 5.041 0 0 1 -.126-.632 1.932 1.932 0 0 1 .6-1.4 1.683 1.683 0 0 1 2.642.563 1.919 1.919 0 0 1 -.113 1.865" transform="translate(-498.618 -1767.111)"/><path d="m1215.115 1816.777a2.507 2.507 0 0 0 -1.195-1.743 2.654 2.654 0 0 0 -1.682-.3 2.574 2.574 0 0 0 -2.221 1.673 3.255 3.255 0 0 0 -.176 1.836 2.617 2.617 0 0 0 2.012 2.231 3.591 3.591 0 0 0 2.431-.245 2.136 2.136 0 0 0 .664-.431l-.576-.864-.224.143a2.634 2.634 0 0 1 -1.059.405 1.906 1.906 0 0 1 -1.483-.308 1.522 1.522 0 0 1 -.576-1.008h4.154a5.618 5.618 0 0 0 -.068-1.387m-4 .317a1.445 1.445 0 0 1 1.543-1.329 1.318 1.318 0 0 1 1.324 1.329z" transform="translate(-1178.368 -1767.585)"/><path d="m783.544 1819.891a2.274 2.274 0 0 1 -1.028.579 4.41 4.41 0 0 1 -3.059-.282 3.166 3.166 0 0 1 -.316-.178 1.533 1.533 0 0 1 -.141-.114l.571-.917.231.134a3.147 3.147 0 0 0 2.225.378 1.3 1.3 0 0 0 .451-.185.445.445 0 0 0 -.068-.84 5.067 5.067 0 0 0 -.876-.215c-.313-.063-.631-.1-.944-.162a2.331 2.331 0 0 1 -.414-.147 1.555 1.555 0 0 1 -.321-2.691 2.414 2.414 0 0 1 1.22-.467 4.676 4.676 0 0 1 2.2.247c.2.077.385.186.6.291l-.531 1c-.088-.036-.165-.066-.242-.1a3.672 3.672 0 0 0 -1.607-.354 2.251 2.251 0 0 0 -.556.106.667.667 0 0 0 -.275.185.418.418 0 0 0 .148.716 5.352 5.352 0 0 0 .833.174c.323.058.653.086.968.17a2.612 2.612 0 0 1 .684.3 1.545 1.545 0 0 1 .252 2.367" transform="translate(-758.772 -1767.626)"/><path d="m1008.947 1761.208c-.027.033-.039.061-.059.072a2.957 2.957 0 0 1 -2.26.268 1.375 1.375 0 0 1 -.98-.953 3.16 3.16 0 0 1 -.138-.813c-.019-.813-.009-1.627-.01-2.44 0-.093 0-.187 0-.31h-1.114c-.014-.385-.01-.74 0-1.123h1.115v-1.687h1.223v1.681h1.984v1.113h-1.952c-.009.107-.021.181-.021.256q0 1.1 0 2.207a2.1 2.1 0 0 0 .034.413.689.689 0 0 0 .692.586 2.016 2.016 0 0 0 .936-.172l.213-.1.339 1" transform="translate(-978.297 -1708.67)"/><path d="m1625.794 1818.922.575.973a2.674 2.674 0 0 1 -.238.19 3.232 3.232 0 0 1 -2.419.408 2.759 2.759 0 0 1 -2.321-2.9 2.8 2.8 0 0 1 1.023-2.26 2.723 2.723 0 0 1 1.39-.593 3.434 3.434 0 0 1 2 .241c.191.093.366.219.574.345l-.588 1-.229-.142a2.212 2.212 0 0 0 -1.224-.373 1.73 1.73 0 0 0 -1.721 1.85 1.837 1.837 0 0 0 .457 1.264 1.711 1.711 0 0 0 1.594.485 2.215 2.215 0 0 0 .866-.331c.08-.05.161-.1.256-.154" transform="translate(-1579.289 -1767.567)"/><path d="m2126.8 1814.963c-.094.424-.219.8-.342 1.179-.069-.007-.127-.009-.185-.018-.137-.021-.272-.052-.41-.068a1.1 1.1 0 0 0 -1.3.976 3.6 3.6 0 0 0 -.045.594v2.726.31h-1.218v-5.6h1.21v.589c.238-.192.435-.378.658-.525a1.358 1.358 0 0 1 .771-.194c.274 0 .549.016.859.026" transform="translate(-2068.166 -1767.81)"/><path d="m1474.084 1814.811-.349 1.169c-.172-.028-.323-.065-.476-.075a2.772 2.772 0 0 0 -.566.006.936.936 0 0 0 -.739.585 2.08 2.08 0 0 0 -.156.887q0 1.4 0 2.8v.317h-1.219v-5.613h1.209v.57l.046.031a1.761 1.761 0 0 1 1-.678 3.993 3.993 0 0 1 1.25 0" transform="translate(-1432.394 -1767.639)"/><path d="m1018.128 190.722a20.928 20.928 0 0 1 -7.954 16.441 20.968 20.968 0 0 1 0-32.882 20.928 20.928 0 0 1 7.954 16.441" fill="#fc5f01" opacity=".8" transform="translate(-976.196 -169.756)"/><path d="m33.978 37.407a20.966 20.966 0 1 1 0-32.882 20.968 20.968 0 0 0 0 32.882" fill="#ea001b"/><path d="m1342.529 20.966a20.967 20.967 0 0 1 -33.979 16.441 20.968 20.968 0 0 0 0-32.882 20.967 20.967 0 0 1 33.979 16.441" fill="#f79f1a" opacity=".6" transform="translate(-1274.572)"/></svg>