<svg height="43.838" viewBox="0 0 158.986 43.838" width="158.986" xmlns="http://www.w3.org/2000/svg"><g fill="#414042"><path d="m10.371 60.332 2.613 6.379h-5.226zm-1.939-5.2-8.432 19.814h4.413l1.8-4.413h8.317l1.8 4.413h4.526l-8.434-19.814z" transform="translate(0 -43.12)"/><path d="m131.786 66.216a6.163 6.163 0 0 0 1.167-3.892v-.056a6.079 6.079 0 0 0 -1.687-4.5 7.764 7.764 0 0 0 -5.733-2h-8.994v19.681h4.328v-6.3h3.4l4.216 6.3h5.059l-4.806-7.026a6.75 6.75 0 0 0 3.049-2.207m-3.218-3.666a2.568 2.568 0 0 1 -.858 2.022 3.593 3.593 0 0 1 -2.459.759h-4.384v-5.649h4.3a3.969 3.969 0 0 1 2.5.7 2.508 2.508 0 0 1 .9 2.107z" transform="translate(-91.148 -43.624)"/><path d="m236.6 66.216a6.163 6.163 0 0 0 1.167-3.892v-.056a6.083 6.083 0 0 0 -1.686-4.5 7.765 7.765 0 0 0 -5.733-2h-8.998v19.681h4.328v-6.3h3.4l4.216 6.3h5.06l-4.806-7.026a6.752 6.752 0 0 0 3.049-2.207m-3.218-3.666a2.57 2.57 0 0 1 -.857 2.022 3.594 3.594 0 0 1 -2.459.759h-4.385v-5.649h4.3a3.972 3.972 0 0 1 2.5.7 2.509 2.509 0 0 1 .9 2.107z" transform="translate(-173.124 -43.624)"/><path d="m325.667 55.132-8.431 19.814h4.413l1.8-4.413h8.319l1.8 4.413h4.525l-8.432-19.814zm-.674 11.579 2.614-6.379 2.614 6.379z" transform="translate(-248.119 -43.12)"/><path d="m428.969 55.776-4.778 7.9-4.693-7.9h-5.059l7.561 11.917v7.757h4.329v-7.842l7.56-11.832z" transform="translate(-324.144 -43.624)"/></g></svg>