<svg preserveAspectRatio="none" xmlns="http://www.w3.org/2000/svg" xmlns:xlink="http://www.w3.org/1999/xlink" width="1522" height="439" viewBox="0 0 1522 439">
  <defs>
    <clipPath id="clip-path">
      <rect id="Rectangle_857" data-name="Rectangle 857" width="439" height="1522" transform="translate(0 -1141)" fill="#fff" stroke="#fff" stroke-width="1"></rect>
    </clipPath>
  </defs>
  <g id="Mask_Group_41" data-name="Mask Group 41" transform="translate(381) rotate(90)" opacity="0.15" clip-path="url(#clip-path)">
    <g id="Group_1365" data-name="Group 1365" transform="translate(188.144 -1430.565) rotate(45)">
      <path id="Path_2674" data-name="Path 2674" d="M0,1437.158,27.03,0" transform="translate(0 27.825)" fill="none" stroke="#fff" stroke-width="1"></path>
      <path id="Path_2675" data-name="Path 2675" d="M0,1437.158,27.03,0" transform="translate(739.717 13.913)" fill="none" stroke="#fff" stroke-width="1"></path>
      <path id="Path_2676" data-name="Path 2676" d="M0,1437.158,27.03,0" transform="translate(375.729 20.758)" fill="none" stroke="#fff" stroke-width="1"></path>
      <path id="Path_2677" data-name="Path 2677" d="M0,1437.158,27.03,0" transform="translate(1115.446 6.846)" fill="none" stroke="#fff" stroke-width="1"></path>
      <path id="Path_2678" data-name="Path 2678" d="M0,1437.158,27.03,0" transform="translate(187.865 24.292)" fill="none" stroke="#fff" stroke-width="1"></path>
      <path id="Path_2679" data-name="Path 2679" d="M0,1437.158,27.03,0" transform="translate(927.581 10.379)" fill="none" stroke="#fff" stroke-width="1"></path>
      <path id="Path_2680" data-name="Path 2680" d="M0,1437.158,27.03,0" transform="translate(563.594 17.225)" fill="none" stroke="#fff" stroke-width="1"></path>
      <path id="Path_2681" data-name="Path 2681" d="M0,1437.158,27.03,0" transform="translate(1303.31 3.313)" fill="none" stroke="#fff" stroke-width="1"></path>
      <path id="Path_2682" data-name="Path 2682" d="M0,1437.158,27.03,0" transform="translate(93.932 26.058)" fill="none" stroke="#fff" stroke-width="1"></path>
      <path id="Path_2683" data-name="Path 2683" d="M0,1437.158,27.03,0" transform="translate(833.649 12.146)" fill="none" stroke="#fff" stroke-width="1"></path>
      <path id="Path_2684" data-name="Path 2684" d="M0,1437.158,27.03,0" transform="translate(469.661 18.992)" fill="none" stroke="#fff" stroke-width="1"></path>
      <path id="Path_2685" data-name="Path 2685" d="M0,1437.158,27.03,0" transform="translate(1209.378 5.079)" fill="none" stroke="#fff" stroke-width="1"></path>
      <path id="Path_2686" data-name="Path 2686" d="M0,1437.158,27.03,0" transform="translate(281.797 22.525)" fill="none" stroke="#fff" stroke-width="1"></path>
      <path id="Path_2687" data-name="Path 2687" d="M0,1437.158,27.03,0" transform="translate(1021.513 8.613)" fill="none" stroke="#fff" stroke-width="1"></path>
      <path id="Path_2688" data-name="Path 2688" d="M0,1437.158,27.03,0" transform="translate(657.526 15.458)" fill="none" stroke="#fff" stroke-width="1"></path>
      <path id="Path_2689" data-name="Path 2689" d="M0,1437.158,27.03,0" transform="translate(1397.243 1.546)" fill="none" stroke="#fff" stroke-width="1"></path>
      <path id="Path_2690" data-name="Path 2690" d="M0,1437.158,27.03,0" transform="translate(46.966 26.942)" fill="none" stroke="#fff" stroke-width="1"></path>
      <path id="Path_2691" data-name="Path 2691" d="M0,1437.158,27.03,0" transform="translate(786.683 13.029)" fill="none" stroke="#fff" stroke-width="1"></path>
      <path id="Path_2692" data-name="Path 2692" d="M0,1437.158,27.03,0" transform="translate(422.695 19.875)" fill="none" stroke="#fff" stroke-width="1"></path>
      <path id="Path_2693" data-name="Path 2693" d="M0,1437.158,27.03,0" transform="translate(1162.412 5.963)" fill="none" stroke="#fff" stroke-width="1"></path>
      <path id="Path_2694" data-name="Path 2694" d="M0,1437.158,27.03,0" transform="translate(234.831 23.408)" fill="none" stroke="#fff" stroke-width="1"></path>
      <path id="Path_2695" data-name="Path 2695" d="M0,1437.158,27.03,0" transform="translate(974.547 9.496)" fill="none" stroke="#fff" stroke-width="1"></path>
      <path id="Path_2696" data-name="Path 2696" d="M0,1437.158,27.03,0" transform="translate(610.56 16.342)" fill="none" stroke="#fff" stroke-width="1"></path>
      <path id="Path_2697" data-name="Path 2697" d="M0,1437.158,27.03,0" transform="translate(1350.276 2.429)" fill="none" stroke="#fff" stroke-width="1"></path>
      <path id="Path_2698" data-name="Path 2698" d="M0,1437.158,27.03,0" transform="translate(140.898 25.175)" fill="none" stroke="#fff" stroke-width="1"></path>
      <path id="Path_2699" data-name="Path 2699" d="M0,1437.158,27.03,0" transform="translate(880.615 11.263)" fill="none" stroke="#fff" stroke-width="1"></path>
      <path id="Path_2700" data-name="Path 2700" d="M0,1437.158,27.03,0" transform="translate(516.627 18.108)" fill="none" stroke="#fff" stroke-width="1"></path>
      <path id="Path_2701" data-name="Path 2701" d="M0,1437.158,27.03,0" transform="translate(1256.344 4.196)" fill="none" stroke="#fff" stroke-width="1"></path>
      <path id="Path_2702" data-name="Path 2702" d="M0,1437.158,27.03,0" transform="translate(328.763 21.642)" fill="none" stroke="#fff" stroke-width="1"></path>
      <path id="Path_2703" data-name="Path 2703" d="M0,1437.158,27.03,0" transform="translate(1068.48 7.729)" fill="none" stroke="#fff" stroke-width="1"></path>
      <path id="Path_2704" data-name="Path 2704" d="M0,1437.158,27.03,0" transform="translate(704.492 14.575)" fill="none" stroke="#fff" stroke-width="1"></path>
      <path id="Path_2705" data-name="Path 2705" d="M0,1437.158,27.03,0" transform="translate(1444.209 0.663)" fill="none" stroke="#fff" stroke-width="1"></path>
      <path id="Path_2706" data-name="Path 2706" d="M0,1437.158,27.03,0" transform="translate(23.483 27.384)" fill="none" stroke="#fff" stroke-width="1"></path>
      <path id="Path_2707" data-name="Path 2707" d="M0,1437.158,27.03,0" transform="translate(763.2 13.471)" fill="none" stroke="#fff" stroke-width="1"></path>
      <path id="Path_2708" data-name="Path 2708" d="M0,1437.158,27.03,0" transform="translate(399.212 20.317)" fill="none" stroke="#fff" stroke-width="1"></path>
      <path id="Path_2709" data-name="Path 2709" d="M0,1437.158,27.03,0" transform="translate(1138.929 6.404)" fill="none" stroke="#fff" stroke-width="1"></path>
      <path id="Path_2710" data-name="Path 2710" d="M0,1437.158,27.03,0" transform="translate(211.348 23.85)" fill="none" stroke="#fff" stroke-width="1"></path>
      <path id="Path_2711" data-name="Path 2711" d="M0,1437.158,27.03,0" transform="translate(951.064 9.938)" fill="none" stroke="#fff" stroke-width="1"></path>
      <path id="Path_2712" data-name="Path 2712" d="M0,1437.158,27.03,0" transform="translate(587.077 16.783)" fill="none" stroke="#fff" stroke-width="1"></path>
      <path id="Path_2713" data-name="Path 2713" d="M0,1437.158,27.03,0" transform="translate(1326.793 2.871)" fill="none" stroke="#fff" stroke-width="1"></path>
      <path id="Path_2714" data-name="Path 2714" d="M0,1437.158,27.03,0" transform="translate(117.415 25.617)" fill="none" stroke="#fff" stroke-width="1"></path>
      <path id="Path_2715" data-name="Path 2715" d="M0,1437.158,27.03,0" transform="translate(857.132 11.704)" fill="none" stroke="#fff" stroke-width="1"></path>
      <path id="Path_2716" data-name="Path 2716" d="M0,1437.158,27.03,0" transform="translate(493.144 18.55)" fill="none" stroke="#fff" stroke-width="1"></path>
      <path id="Path_2717" data-name="Path 2717" d="M0,1437.158,27.03,0" transform="translate(1232.861 4.638)" fill="none" stroke="#fff" stroke-width="1"></path>
      <path id="Path_2718" data-name="Path 2718" d="M0,1437.158,27.03,0" transform="translate(305.28 22.083)" fill="none" stroke="#fff" stroke-width="1"></path>
      <path id="Path_2719" data-name="Path 2719" d="M0,1437.158,27.03,0" transform="translate(1044.997 8.171)" fill="none" stroke="#fff" stroke-width="1"></path>
      <path id="Path_2720" data-name="Path 2720" d="M0,1437.158,27.03,0" transform="translate(681.009 15.017)" fill="none" stroke="#fff" stroke-width="1"></path>
      <path id="Path_2721" data-name="Path 2721" d="M0,1437.158,27.03,0" transform="translate(1420.726 1.104)" fill="none" stroke="#fff" stroke-width="1"></path>
      <path id="Path_2722" data-name="Path 2722" d="M0,1437.158,27.03,0" transform="translate(70.449 26.5)" fill="none" stroke="#fff" stroke-width="1"></path>
      <path id="Path_2723" data-name="Path 2723" d="M0,1437.158,27.03,0" transform="translate(810.166 12.588)" fill="none" stroke="#fff" stroke-width="1"></path>
      <path id="Path_2724" data-name="Path 2724" d="M0,1437.158,27.03,0" transform="translate(446.178 19.433)" fill="none" stroke="#fff" stroke-width="1"></path>
      <path id="Path_2725" data-name="Path 2725" d="M0,1437.158,27.03,0" transform="translate(1185.895 5.521)" fill="none" stroke="#fff" stroke-width="1"></path>
      <path id="Path_2726" data-name="Path 2726" d="M0,1437.158,27.03,0" transform="translate(258.314 22.967)" fill="none" stroke="#fff" stroke-width="1"></path>
      <path id="Path_2727" data-name="Path 2727" d="M0,1437.158,27.03,0" transform="translate(998.03 9.054)" fill="none" stroke="#fff" stroke-width="1"></path>
      <path id="Path_2728" data-name="Path 2728" d="M0,1437.158,27.03,0" transform="translate(634.043 15.9)" fill="none" stroke="#fff" stroke-width="1"></path>
      <path id="Path_2729" data-name="Path 2729" d="M0,1437.158,27.03,0" transform="translate(1373.76 1.988)" fill="none" stroke="#fff" stroke-width="1"></path>
      <path id="Path_2730" data-name="Path 2730" d="M0,1437.158,27.03,0" transform="translate(164.381 24.733)" fill="none" stroke="#fff" stroke-width="1"></path>
      <path id="Path_2731" data-name="Path 2731" d="M0,1437.158,27.03,0" transform="translate(904.098 10.821)" fill="none" stroke="#fff" stroke-width="1"></path>
      <path id="Path_2732" data-name="Path 2732" d="M0,1437.158,27.03,0" transform="translate(540.111 17.667)" fill="none" stroke="#fff" stroke-width="1"></path>
      <path id="Path_2733" data-name="Path 2733" d="M0,1437.158,27.03,0" transform="translate(1279.827 3.754)" fill="none" stroke="#fff" stroke-width="1"></path>
      <path id="Path_2734" data-name="Path 2734" d="M0,1437.158,27.03,0" transform="translate(352.246 21.2)" fill="none" stroke="#fff" stroke-width="1"></path>
      <path id="Path_2735" data-name="Path 2735" d="M0,1437.158,27.03,0" transform="translate(1091.963 7.288)" fill="none" stroke="#fff" stroke-width="1"></path>
      <path id="Path_2736" data-name="Path 2736" d="M0,1437.158,27.03,0" transform="translate(727.975 14.133)" fill="none" stroke="#fff" stroke-width="1"></path>
      <path id="Path_2737" data-name="Path 2737" d="M0,1437.158,27.03,0" transform="translate(1467.692 0.221)" fill="none" stroke="#fff" stroke-width="1"></path>
      <path id="Path_2738" data-name="Path 2738" d="M0,1437.158,27.03,0" transform="translate(11.742 27.604)" fill="none" stroke="#fff" stroke-width="1"></path>
      <path id="Path_2739" data-name="Path 2739" d="M0,1437.158,27.03,0" transform="translate(751.458 13.692)" fill="none" stroke="#fff" stroke-width="1"></path>
      <path id="Path_2740" data-name="Path 2740" d="M0,1437.158,27.03,0" transform="translate(387.471 20.538)" fill="none" stroke="#fff" stroke-width="1"></path>
      <path id="Path_2741" data-name="Path 2741" d="M0,1437.158,27.03,0" transform="translate(1127.187 6.625)" fill="none" stroke="#fff" stroke-width="1"></path>
      <path id="Path_2742" data-name="Path 2742" d="M0,1437.158,27.03,0" transform="translate(199.606 24.071)" fill="none" stroke="#fff" stroke-width="1"></path>
      <path id="Path_2743" data-name="Path 2743" d="M0,1437.158,27.03,0" transform="translate(939.323 10.158)" fill="none" stroke="#fff" stroke-width="1"></path>
      <path id="Path_2744" data-name="Path 2744" d="M0,1437.158,27.03,0" transform="translate(575.335 17.004)" fill="none" stroke="#fff" stroke-width="1"></path>
      <path id="Path_2745" data-name="Path 2745" d="M0,1437.158,27.03,0" transform="translate(1315.052 3.092)" fill="none" stroke="#fff" stroke-width="1"></path>
      <path id="Path_2746" data-name="Path 2746" d="M0,1437.158,27.03,0" transform="translate(105.674 25.838)" fill="none" stroke="#fff" stroke-width="1"></path>
      <path id="Path_2747" data-name="Path 2747" d="M0,1437.158,27.03,0" transform="translate(845.39 11.925)" fill="none" stroke="#fff" stroke-width="1"></path>
      <path id="Path_2748" data-name="Path 2748" d="M0,1437.158,27.03,0" transform="translate(481.403 18.771)" fill="none" stroke="#fff" stroke-width="1"></path>
      <path id="Path_2749" data-name="Path 2749" d="M0,1437.158,27.03,0" transform="translate(1221.12 4.858)" fill="none" stroke="#fff" stroke-width="1"></path>
      <path id="Path_2750" data-name="Path 2750" d="M0,1437.158,27.03,0" transform="translate(293.538 22.304)" fill="none" stroke="#fff" stroke-width="1"></path>
      <path id="Path_2751" data-name="Path 2751" d="M0,1437.158,27.03,0" transform="translate(1033.255 8.392)" fill="none" stroke="#fff" stroke-width="1"></path>
      <path id="Path_2752" data-name="Path 2752" d="M0,1437.158,27.03,0" transform="translate(669.267 15.238)" fill="none" stroke="#fff" stroke-width="1"></path>
      <path id="Path_2753" data-name="Path 2753" d="M0,1437.158,27.03,0" transform="translate(1408.984 1.325)" fill="none" stroke="#fff" stroke-width="1"></path>
      <path id="Path_2754" data-name="Path 2754" d="M0,1437.158,27.03,0" transform="translate(58.708 26.721)" fill="none" stroke="#fff" stroke-width="1"></path>
      <path id="Path_2755" data-name="Path 2755" d="M0,1437.158,27.03,0" transform="translate(798.424 12.808)" fill="none" stroke="#fff" stroke-width="1"></path>
      <path id="Path_2756" data-name="Path 2756" d="M0,1437.158,27.03,0" transform="translate(434.437 19.654)" fill="none" stroke="#fff" stroke-width="1"></path>
      <path id="Path_2757" data-name="Path 2757" d="M0,1437.158,27.03,0" transform="translate(1174.154 5.742)" fill="none" stroke="#fff" stroke-width="1"></path>
      <path id="Path_2758" data-name="Path 2758" d="M0,1437.158,27.03,0" transform="translate(246.572 23.188)" fill="none" stroke="#fff" stroke-width="1"></path>
      <path id="Path_2759" data-name="Path 2759" d="M0,1437.158,27.03,0" transform="translate(986.289 9.275)" fill="none" stroke="#fff" stroke-width="1"></path>
      <path id="Path_2760" data-name="Path 2760" d="M0,1437.158,27.03,0" transform="translate(622.301 16.121)" fill="none" stroke="#fff" stroke-width="1"></path>
      <path id="Path_2761" data-name="Path 2761" d="M0,1437.158,27.03,0" transform="translate(1362.018 2.208)" fill="none" stroke="#fff" stroke-width="1"></path>
      <path id="Path_2762" data-name="Path 2762" d="M0,1437.158,27.03,0" transform="translate(152.64 24.954)" fill="none" stroke="#fff" stroke-width="1"></path>
      <path id="Path_2763" data-name="Path 2763" d="M0,1437.158,27.03,0" transform="translate(892.357 11.042)" fill="none" stroke="#fff" stroke-width="1"></path>
      <path id="Path_2764" data-name="Path 2764" d="M0,1437.158,27.03,0" transform="translate(528.369 17.888)" fill="none" stroke="#fff" stroke-width="1"></path>
      <path id="Path_2765" data-name="Path 2765" d="M0,1437.158,27.03,0" transform="translate(1268.086 3.975)" fill="none" stroke="#fff" stroke-width="1"></path>
      <path id="Path_2766" data-name="Path 2766" d="M0,1437.158,27.03,0" transform="translate(340.504 21.421)" fill="none" stroke="#fff" stroke-width="1"></path>
      <path id="Path_2767" data-name="Path 2767" d="M0,1437.158,27.03,0" transform="translate(1080.221 7.508)" fill="none" stroke="#fff" stroke-width="1"></path>
      <path id="Path_2768" data-name="Path 2768" d="M0,1437.158,27.03,0" transform="translate(716.234 14.354)" fill="none" stroke="#fff" stroke-width="1"></path>
      <path id="Path_2769" data-name="Path 2769" d="M0,1437.158,27.03,0" transform="translate(1455.95 0.442)" fill="none" stroke="#fff" stroke-width="1"></path>
      <path id="Path_2770" data-name="Path 2770" d="M0,1437.158,27.03,0" transform="translate(35.225 27.163)" fill="none" stroke="#fff" stroke-width="1"></path>
      <path id="Path_2771" data-name="Path 2771" d="M0,1437.158,27.03,0" transform="translate(774.941 13.25)" fill="none" stroke="#fff" stroke-width="1"></path>
      <path id="Path_2772" data-name="Path 2772" d="M0,1437.158,27.03,0" transform="translate(410.954 20.096)" fill="none" stroke="#fff" stroke-width="1"></path>
      <path id="Path_2773" data-name="Path 2773" d="M0,1437.158,27.03,0" transform="translate(1150.67 6.183)" fill="none" stroke="#fff" stroke-width="1"></path>
      <path id="Path_2774" data-name="Path 2774" d="M0,1437.158,27.03,0" transform="translate(223.089 23.629)" fill="none" stroke="#fff" stroke-width="1"></path>
      <path id="Path_2775" data-name="Path 2775" d="M0,1437.158,27.03,0" transform="translate(962.806 9.717)" fill="none" stroke="#fff" stroke-width="1"></path>
      <path id="Path_2776" data-name="Path 2776" d="M0,1437.158,27.03,0" transform="translate(598.818 16.563)" fill="none" stroke="#fff" stroke-width="1"></path>
      <path id="Path_2777" data-name="Path 2777" d="M0,1437.158,27.03,0" transform="translate(1338.535 2.65)" fill="none" stroke="#fff" stroke-width="1"></path>
      <path id="Path_2778" data-name="Path 2778" d="M0,1437.158,27.03,0" transform="translate(129.157 25.396)" fill="none" stroke="#fff" stroke-width="1"></path>
      <path id="Path_2779" data-name="Path 2779" d="M0,1437.158,27.03,0" transform="translate(868.873 11.483)" fill="none" stroke="#fff" stroke-width="1"></path>
      <path id="Path_2780" data-name="Path 2780" d="M0,1437.158,27.03,0" transform="translate(504.886 18.329)" fill="none" stroke="#fff" stroke-width="1"></path>
      <path id="Path_2781" data-name="Path 2781" d="M0,1437.158,27.03,0" transform="translate(1244.603 4.417)" fill="none" stroke="#fff" stroke-width="1"></path>
      <path id="Path_2782" data-name="Path 2782" d="M0,1437.158,27.03,0" transform="translate(317.021 21.863)" fill="none" stroke="#fff" stroke-width="1"></path>
      <path id="Path_2783" data-name="Path 2783" d="M0,1437.158,27.03,0" transform="translate(1056.738 7.95)" fill="none" stroke="#fff" stroke-width="1"></path>
      <path id="Path_2784" data-name="Path 2784" d="M0,1437.158,27.03,0" transform="translate(692.751 14.796)" fill="none" stroke="#fff" stroke-width="1"></path>
      <path id="Path_2785" data-name="Path 2785" d="M0,1437.158,27.03,0" transform="translate(1432.467 0.883)" fill="none" stroke="#fff" stroke-width="1"></path>
      <path id="Path_2786" data-name="Path 2786" d="M0,1437.158,27.03,0" transform="translate(82.191 26.279)" fill="none" stroke="#fff" stroke-width="1"></path>
      <path id="Path_2787" data-name="Path 2787" d="M0,1437.158,27.03,0" transform="translate(821.907 12.367)" fill="none" stroke="#fff" stroke-width="1"></path>
      <path id="Path_2788" data-name="Path 2788" d="M0,1437.158,27.03,0" transform="translate(457.92 19.213)" fill="none" stroke="#fff" stroke-width="1"></path>
      <path id="Path_2789" data-name="Path 2789" d="M0,1437.158,27.03,0" transform="translate(1197.636 5.3)" fill="none" stroke="#fff" stroke-width="1"></path>
      <path id="Path_2790" data-name="Path 2790" d="M0,1437.158,27.03,0" transform="translate(270.055 22.746)" fill="none" stroke="#fff" stroke-width="1"></path>
      <path id="Path_2791" data-name="Path 2791" d="M0,1437.158,27.03,0" transform="translate(1009.772 8.833)" fill="none" stroke="#fff" stroke-width="1"></path>
      <path id="Path_2792" data-name="Path 2792" d="M0,1437.158,27.03,0" transform="translate(645.784 15.679)" fill="none" stroke="#fff" stroke-width="1"></path>
      <path id="Path_2793" data-name="Path 2793" d="M0,1437.158,27.03,0" transform="translate(1385.501 1.767)" fill="none" stroke="#fff" stroke-width="1"></path>
      <path id="Path_2794" data-name="Path 2794" d="M0,1437.158,27.03,0" transform="translate(176.123 24.513)" fill="none" stroke="#fff" stroke-width="1"></path>
      <path id="Path_2795" data-name="Path 2795" d="M0,1437.158,27.03,0" transform="translate(915.84 10.6)" fill="none" stroke="#fff" stroke-width="1"></path>
      <path id="Path_2796" data-name="Path 2796" d="M0,1437.158,27.03,0" transform="translate(551.852 17.446)" fill="none" stroke="#fff" stroke-width="1"></path>
      <path id="Path_2797" data-name="Path 2797" d="M0,1437.158,27.03,0" transform="translate(1291.569 3.533)" fill="none" stroke="#fff" stroke-width="1"></path>
      <path id="Path_2798" data-name="Path 2798" d="M0,1437.158,27.03,0" transform="translate(363.988 20.979)" fill="none" stroke="#fff" stroke-width="1"></path>
      <path id="Path_2799" data-name="Path 2799" d="M0,1437.158,27.03,0" transform="translate(1103.704 7.067)" fill="none" stroke="#fff" stroke-width="1"></path>
      <path id="Path_2800" data-name="Path 2800" d="M0,1437.158,27.03,0" transform="translate(739.717 13.913)" fill="none" stroke="#fff" stroke-width="1"></path>
      <path id="Path_2801" data-name="Path 2801" d="M0,1437.158,27.03,0" transform="translate(1479.433 0)" fill="none" stroke="#fff" stroke-width="1"></path>
    </g>
  </g>
</svg>