<svg height="439" preserveAspectRatio="none" viewBox="0 0 1522 439" width="1522" xmlns="http://www.w3.org/2000/svg" xmlns:xlink="http://www.w3.org/1999/xlink"><clipPath id="a"><path d="m0-1141h439v1522h-439z"/></clipPath><g clip-path="url(#a)" fill="none" opacity=".15" stroke="#fff" transform="matrix(0 1 -1 0 381 0)"><path d="m0 1437.158 27.03-1437.158" transform="matrix(.70710678 .70710678 -.70710678 .70710678 168.468754 -1410.889754)"/><path d="m0 1437.158 27.03-1437.158" transform="matrix(.70710678 .70710678 -.70710678 .70710678 701.364929 -897.668117)"/><path d="m0 1437.158 27.03-1437.158" transform="matrix(.70710678 .70710678 -.70710678 .70710678 439.146401 -1150.206354)"/><path d="m0 1437.158 27.03-1437.158" transform="matrix(.70710678 .70710678 -.70710678 .70710678 972.042576 -636.984718)"/><path d="m0 1437.158 27.03-1437.158" transform="matrix(.70710678 .70710678 -.70710678 .70710678 303.807577 -1280.547347)"/><path d="m0 1437.158 27.03-1437.158" transform="matrix(.70710678 .70710678 -.70710678 .70710678 836.703753 -767.327125)"/><path d="m0 1437.158 27.03-1437.158" transform="matrix(.70710678 .70710678 -.70710678 .70710678 574.485224 -1019.863947)"/><path d="m0 1437.158 27.03-1437.158" transform="matrix(.70710678 .70710678 -.70710678 .70710678 1107.380693 -506.643018)"/><path d="m0 1437.158 27.03-1437.158" transform="matrix(.70710678 .70710678 -.70710678 .70710678 236.138166 -1345.719257)"/><path d="m0 1437.158 27.03-1437.158" transform="matrix(.70710678 .70710678 -.70710678 .70710678 769.034341 -832.497621)"/><path d="m0 1437.158 27.03-1437.158" transform="matrix(.70710678 .70710678 -.70710678 .70710678 506.815105 -1085.035151)"/><path d="m0 1437.158 27.03-1437.158" transform="matrix(.70710678 .70710678 -.70710678 .70710678 1039.711988 -571.814221)"/><path d="m0 1437.158 27.03-1437.158" transform="matrix(.70710678 .70710678 -.70710678 .70710678 371.476989 -1215.37685)"/><path d="m0 1437.158 27.03-1437.158" transform="matrix(.70710678 .70710678 -.70710678 .70710678 904.372457 -702.155921)"/><path d="m0 1437.158 27.03-1437.158" transform="matrix(.70710678 .70710678 -.70710678 .70710678 642.154636 -954.693451)"/><path d="m0 1437.158 27.03-1437.158" transform="matrix(.70710678 .70710678 -.70710678 .70710678 1175.050812 -441.471814)"/><path d="m0 1437.158 27.03-1437.158" transform="matrix(.70710678 .70710678 -.70710678 .70710678 202.303106 -1378.304152)"/><path d="m0 1437.158 27.03-1437.158" transform="matrix(.70710678 .70710678 -.70710678 .70710678 735.199989 -865.083223)"/><path d="m0 1437.158 27.03-1437.158" transform="matrix(.70710678 .70710678 -.70710678 .70710678 472.980753 -1117.620752)"/><path d="m0 1437.158 27.03-1437.158" transform="matrix(.70710678 .70710678 -.70710678 .70710678 1005.876929 -604.399116)"/><path d="m0 1437.158 27.03-1437.158" transform="matrix(.70710678 .70710678 -.70710678 .70710678 337.642637 -1247.962452)"/><path d="m0 1437.158 27.03-1437.158" transform="matrix(.70710678 .70710678 -.70710678 .70710678 870.538105 -734.741523)"/><path d="m0 1437.158 27.03-1437.158" transform="matrix(.70710678 .70710678 -.70710678 .70710678 608.319577 -987.278345)"/><path d="m0 1437.158 27.03-1437.158" transform="matrix(.70710678 .70710678 -.70710678 .70710678 1141.215752 -474.058123)"/><path d="m0 1437.158 27.03-1437.158" transform="matrix(.70710678 .70710678 -.70710678 .70710678 269.972518 -1313.133656)"/><path d="m0 1437.158 27.03-1437.158" transform="matrix(.70710678 .70710678 -.70710678 .70710678 802.868693 -799.912019)"/><path d="m0 1437.158 27.03-1437.158" transform="matrix(.70710678 .70710678 -.70710678 .70710678 540.650165 -1052.450256)"/><path d="m0 1437.158 27.03-1437.158" transform="matrix(.70710678 .70710678 -.70710678 .70710678 1073.54634 -539.22862)"/><path d="m0 1437.158 27.03-1437.158" transform="matrix(.70710678 .70710678 -.70710678 .70710678 405.311341 -1182.791249)"/><path d="m0 1437.158 27.03-1437.158" transform="matrix(.70710678 .70710678 -.70710678 .70710678 938.208224 -669.570319)"/><path d="m0 1437.158 27.03-1437.158" transform="matrix(.70710678 .70710678 -.70710678 .70710678 675.988988 -922.107849)"/><path d="m0 1437.158 27.03-1437.158" transform="matrix(.70710678 .70710678 -.70710678 .70710678 1208.885164 -408.886213)"/><path d="m0 1437.158 27.03-1437.158" transform="matrix(.70710678 .70710678 -.70710678 .70710678 185.385576 -1394.596599)"/><path d="m0 1437.158 27.03-1437.158" transform="matrix(.70710678 .70710678 -.70710678 .70710678 718.282459 -881.37567)"/><path d="m0 1437.158 27.03-1437.158" transform="matrix(.70710678 .70710678 -.70710678 .70710678 456.063223 -1133.9132)"/><path d="m0 1437.158 27.03-1437.158" transform="matrix(.70710678 .70710678 -.70710678 .70710678 988.960106 -620.69227)"/><path d="m0 1437.158 27.03-1437.158" transform="matrix(.70710678 .70710678 -.70710678 .70710678 320.725107 -1264.2549)"/><path d="m0 1437.158 27.03-1437.158" transform="matrix(.70710678 .70710678 -.70710678 .70710678 853.620575 -751.03397)"/><path d="m0 1437.158 27.03-1437.158" transform="matrix(.70710678 .70710678 -.70710678 .70710678 591.402754 -1003.5715)"/><path d="m0 1437.158 27.03-1437.158" transform="matrix(.70710678 .70710678 -.70710678 .70710678 1124.298222 -490.35057)"/><path d="m0 1437.158 27.03-1437.158" transform="matrix(.70710678 .70710678 -.70710678 .70710678 253.054988 -1329.426103)"/><path d="m0 1437.158 27.03-1437.158" transform="matrix(.70710678 .70710678 -.70710678 .70710678 785.951871 -816.205174)"/><path d="m0 1437.158 27.03-1437.158" transform="matrix(.70710678 .70710678 -.70710678 .70710678 523.732635 -1068.742703)"/><path d="m0 1437.158 27.03-1437.158" transform="matrix(.70710678 .70710678 -.70710678 .70710678 1056.628811 -555.521067)"/><path d="m0 1437.158 27.03-1437.158" transform="matrix(.70710678 .70710678 -.70710678 .70710678 388.394519 -1199.084403)"/><path d="m0 1437.158 27.03-1437.158" transform="matrix(.70710678 .70710678 -.70710678 .70710678 921.290694 -685.862767)"/><path d="m0 1437.158 27.03-1437.158" transform="matrix(.70710678 .70710678 -.70710678 .70710678 659.071459 -938.400296)"/><path d="m0 1437.158 27.03-1437.158" transform="matrix(.70710678 .70710678 -.70710678 .70710678 1191.968341 -425.179367)"/><path d="m0 1437.158 27.03-1437.158" transform="matrix(.70710678 .70710678 -.70710678 .70710678 219.220636 -1362.011705)"/><path d="m0 1437.158 27.03-1437.158" transform="matrix(.70710678 .70710678 -.70710678 .70710678 752.116811 -848.790068)"/><path d="m0 1437.158 27.03-1437.158" transform="matrix(.70710678 .70710678 -.70710678 .70710678 489.898283 -1101.328305)"/><path d="m0 1437.158 27.03-1437.158" transform="matrix(.70710678 .70710678 -.70710678 .70710678 1022.794458 -588.106669)"/><path d="m0 1437.158 27.03-1437.158" transform="matrix(.70710678 .70710678 -.70710678 .70710678 354.559459 -1231.669298)"/><path d="m0 1437.158 27.03-1437.158" transform="matrix(.70710678 .70710678 -.70710678 .70710678 887.455635 -718.449076)"/><path d="m0 1437.158 27.03-1437.158" transform="matrix(.70710678 .70710678 -.70710678 .70710678 625.237106 -970.985898)"/><path d="m0 1437.158 27.03-1437.158" transform="matrix(.70710678 .70710678 -.70710678 .70710678 1158.133282 -457.764262)"/><path d="m0 1437.158 27.03-1437.158" transform="matrix(.70710678 .70710678 -.70710678 .70710678 286.890048 -1296.841208)"/><path d="m0 1437.158 27.03-1437.158" transform="matrix(.70710678 .70710678 -.70710678 .70710678 819.786223 -783.619572)"/><path d="m0 1437.158 27.03-1437.158" transform="matrix(.70710678 .70710678 -.70710678 .70710678 557.567695 -1036.156394)"/><path d="m0 1437.158 27.03-1437.158" transform="matrix(.70710678 .70710678 -.70710678 .70710678 1090.46387 -522.936172)"/><path d="m0 1437.158 27.03-1437.158" transform="matrix(.70710678 .70710678 -.70710678 .70710678 422.228871 -1166.498801)"/><path d="m0 1437.158 27.03-1437.158" transform="matrix(.70710678 .70710678 -.70710678 .70710678 955.125047 -653.277165)"/><path d="m0 1437.158 27.03-1437.158" transform="matrix(.70710678 .70710678 -.70710678 .70710678 692.906518 -905.815402)"/><path d="m0 1437.158 27.03-1437.158" transform="matrix(.70710678 .70710678 -.70710678 .70710678 1225.802694 -392.593765)"/><path d="m0 1437.158 27.03-1437.158" transform="matrix(.70710678 .70710678 -.70710678 .70710678 176.927872 -1402.743177)"/><path d="m0 1437.158 27.03-1437.158" transform="matrix(.70710678 .70710678 -.70710678 .70710678 709.823341 -889.522247)"/><path d="m0 1437.158 27.03-1437.158" transform="matrix(.70710678 .70710678 -.70710678 .70710678 447.604812 -1142.05907)"/><path d="m0 1437.158 27.03-1437.158" transform="matrix(.70710678 .70710678 -.70710678 .70710678 980.500988 -628.838848)"/><path d="m0 1437.158 27.03-1437.158" transform="matrix(.70710678 .70710678 -.70710678 .70710678 312.265989 -1272.401477)"/><path d="m0 1437.158 27.03-1437.158" transform="matrix(.70710678 .70710678 -.70710678 .70710678 845.162871 -759.180547)"/><path d="m0 1437.158 27.03-1437.158" transform="matrix(.70710678 .70710678 -.70710678 .70710678 582.943636 -1011.718077)"/><path d="m0 1437.158 27.03-1437.158" transform="matrix(.70710678 .70710678 -.70710678 .70710678 1115.839811 -498.496441)"/><path d="m0 1437.158 27.03-1437.158" transform="matrix(.70710678 .70710678 -.70710678 .70710678 244.596577 -1337.571973)"/><path d="m0 1437.158 27.03-1437.158" transform="matrix(.70710678 .70710678 -.70710678 .70710678 777.492752 -824.351751)"/><path d="m0 1437.158 27.03-1437.158" transform="matrix(.70710678 .70710678 -.70710678 .70710678 515.274224 -1076.888573)"/><path d="m0 1437.158 27.03-1437.158" transform="matrix(.70710678 .70710678 -.70710678 .70710678 1048.171106 -563.667644)"/><path d="m0 1437.158 27.03-1437.158" transform="matrix(.70710678 .70710678 -.70710678 .70710678 379.9354 -1207.23098)"/><path d="m0 1437.158 27.03-1437.158" transform="matrix(.70710678 .70710678 -.70710678 .70710678 912.831576 -694.009344)"/><path d="m0 1437.158 27.03-1437.158" transform="matrix(.70710678 .70710678 -.70710678 .70710678 650.61234 -946.546874)"/><path d="m0 1437.158 27.03-1437.158" transform="matrix(.70710678 .70710678 -.70710678 .70710678 1183.509223 -433.325944)"/><path d="m0 1437.158 27.03-1437.158" transform="matrix(.70710678 .70710678 -.70710678 .70710678 210.762225 -1370.157575)"/><path d="m0 1437.158 27.03-1437.158" transform="matrix(.70710678 .70710678 -.70710678 .70710678 743.6584 -856.937353)"/><path d="m0 1437.158 27.03-1437.158" transform="matrix(.70710678 .70710678 -.70710678 .70710678 481.439872 -1109.474175)"/><path d="m0 1437.158 27.03-1437.158" transform="matrix(.70710678 .70710678 -.70710678 .70710678 1014.336047 -596.252539)"/><path d="m0 1437.158 27.03-1437.158" transform="matrix(.70710678 .70710678 -.70710678 .70710678 346.100341 -1239.815875)"/><path d="m0 1437.158 27.03-1437.158" transform="matrix(.70710678 .70710678 -.70710678 .70710678 878.997224 -726.594946)"/><path d="m0 1437.158 27.03-1437.158" transform="matrix(.70710678 .70710678 -.70710678 .70710678 616.777988 -979.132475)"/><path d="m0 1437.158 27.03-1437.158" transform="matrix(.70710678 .70710678 -.70710678 .70710678 1149.674871 -465.911546)"/><path d="m0 1437.158 27.03-1437.158" transform="matrix(.70710678 .70710678 -.70710678 .70710678 278.431636 -1304.987079)"/><path d="m0 1437.158 27.03-1437.158" transform="matrix(.70710678 .70710678 -.70710678 .70710678 811.327812 -791.765442)"/><path d="m0 1437.158 27.03-1437.158" transform="matrix(.70710678 .70710678 -.70710678 .70710678 549.108576 -1044.302972)"/><path d="m0 1437.158 27.03-1437.158" transform="matrix(.70710678 .70710678 -.70710678 .70710678 1082.005459 -531.082042)"/><path d="m0 1437.158 27.03-1437.158" transform="matrix(.70710678 .70710678 -.70710678 .70710678 413.769753 -1174.645379)"/><path d="m0 1437.158 27.03-1437.158" transform="matrix(.70710678 .70710678 -.70710678 .70710678 946.666635 -661.424449)"/><path d="m0 1437.158 27.03-1437.158" transform="matrix(.70710678 .70710678 -.70710678 .70710678 684.448107 -913.961272)"/><path d="m0 1437.158 27.03-1437.158" transform="matrix(.70710678 .70710678 -.70710678 .70710678 1217.343575 -400.740342)"/><path d="m0 1437.158 27.03-1437.158" transform="matrix(.70710678 .70710678 -.70710678 .70710678 193.844695 -1386.450022)"/><path d="m0 1437.158 27.03-1437.158" transform="matrix(.70710678 .70710678 -.70710678 .70710678 726.74087 -873.2298)"/><path d="m0 1437.158 27.03-1437.158" transform="matrix(.70710678 .70710678 -.70710678 .70710678 464.522342 -1125.766622)"/><path d="m0 1437.158 27.03-1437.158" transform="matrix(.70710678 .70710678 -.70710678 .70710678 997.418517 -612.5464)"/><path d="m0 1437.158 27.03-1437.158" transform="matrix(.70710678 .70710678 -.70710678 .70710678 329.183518 -1256.109029)"/><path d="m0 1437.158 27.03-1437.158" transform="matrix(.70710678 .70710678 -.70710678 .70710678 862.079694 -742.887393)"/><path d="m0 1437.158 27.03-1437.158" transform="matrix(.70710678 .70710678 -.70710678 .70710678 599.860458 -995.424923)"/><path d="m0 1437.158 27.03-1437.158" transform="matrix(.70710678 .70710678 -.70710678 .70710678 1132.757341 -482.203993)"/><path d="m0 1437.158 27.03-1437.158" transform="matrix(.70710678 .70710678 -.70710678 .70710678 261.514107 -1321.279526)"/><path d="m0 1437.158 27.03-1437.158" transform="matrix(.70710678 .70710678 -.70710678 .70710678 794.410282 -808.059304)"/><path d="m0 1437.158 27.03-1437.158" transform="matrix(.70710678 .70710678 -.70710678 .70710678 532.191754 -1060.596126)"/><path d="m0 1437.158 27.03-1437.158" transform="matrix(.70710678 .70710678 -.70710678 .70710678 1065.087929 -547.37449)"/><path d="m0 1437.158 27.03-1437.158" transform="matrix(.70710678 .70710678 -.70710678 .70710678 396.852223 -1190.937826)"/><path d="m0 1437.158 27.03-1437.158" transform="matrix(.70710678 .70710678 -.70710678 .70710678 929.749106 -677.716897)"/><path d="m0 1437.158 27.03-1437.158" transform="matrix(.70710678 .70710678 -.70710678 .70710678 667.530577 -930.253719)"/><path d="m0 1437.158 27.03-1437.158" transform="matrix(.70710678 .70710678 -.70710678 .70710678 1200.426753 -417.033497)"/><path d="m0 1437.158 27.03-1437.158" transform="matrix(.70710678 .70710678 -.70710678 .70710678 227.679754 -1353.865128)"/><path d="m0 1437.158 27.03-1437.158" transform="matrix(.70710678 .70710678 -.70710678 .70710678 760.575223 -840.644198)"/><path d="m0 1437.158 27.03-1437.158" transform="matrix(.70710678 .70710678 -.70710678 .70710678 498.356694 -1093.181021)"/><path d="m0 1437.158 27.03-1437.158" transform="matrix(.70710678 .70710678 -.70710678 .70710678 1031.25287 -579.960798)"/><path d="m0 1437.158 27.03-1437.158" transform="matrix(.70710678 .70710678 -.70710678 .70710678 363.017871 -1223.523428)"/><path d="m0 1437.158 27.03-1437.158" transform="matrix(.70710678 .70710678 -.70710678 .70710678 895.914753 -710.302498)"/><path d="m0 1437.158 27.03-1437.158" transform="matrix(.70710678 .70710678 -.70710678 .70710678 633.695518 -962.840028)"/><path d="m0 1437.158 27.03-1437.158" transform="matrix(.70710678 .70710678 -.70710678 .70710678 1166.591693 -449.618392)"/><path d="m0 1437.158 27.03-1437.158" transform="matrix(.70710678 .70710678 -.70710678 .70710678 295.348459 -1288.693924)"/><path d="m0 1437.158 27.03-1437.158" transform="matrix(.70710678 .70710678 -.70710678 .70710678 828.245342 -775.472995)"/><path d="m0 1437.158 27.03-1437.158" transform="matrix(.70710678 .70710678 -.70710678 .70710678 566.026106 -1028.010524)"/><path d="m0 1437.158 27.03-1437.158" transform="matrix(.70710678 .70710678 -.70710678 .70710678 1098.922988 -514.789595)"/><path d="m0 1437.158 27.03-1437.158" transform="matrix(.70710678 .70710678 -.70710678 .70710678 430.68799 -1158.352224)"/><path d="m0 1437.158 27.03-1437.158" transform="matrix(.70710678 .70710678 -.70710678 .70710678 963.583458 -645.131295)"/><path d="m0 1437.158 27.03-1437.158" transform="matrix(.70710678 .70710678 -.70710678 .70710678 701.364929 -897.668117)"/><path d="m0 1437.158 27.03-1437.158" transform="matrix(.70710678 .70710678 -.70710678 .70710678 1234.261105 -384.447895)"/></g></svg>