<svg height="205.084" viewBox="0 0 205.109 205.084" width="205.109" xmlns="http://www.w3.org/2000/svg"><g fill="#fff"><path d="m65.26 0 1.34.1 2.215 8.188.834 3.086.083.008 1.264-2.925 3.461-7.737 1.338.107-1.063 13.559-.926-.072.694-8.914c.046-.562.106-1.169.185-1.819s.153-1.26.226-1.835l-.081-.007-1.305 2.9-3.538 7.881-.842-.067-2.283-8.331-.835-3.068h-.083q-.027.865-.062 1.846c-.024.655-.057 1.263-.1 1.825l-.7 8.909-.884-.068z" transform="translate(40.136)"/><path d="m76.936 1.29 7.248 1.723-.19.8-6.325-1.5-1.188 5 5.3 1.258-.19.8-5.3-1.26-1.383 5.829 6.527 1.549-.192.8-7.45-1.768z" transform="translate(46.136 .806)"/><path d="m85.672 3.5 6.954 2.673-.294.77-6.07-2.332-1.843 4.8 5.081 1.952-.294.77-5.083-1.953-2.147 5.587 6.262 2.405-.3.772-7.145-2.744z" transform="translate(50.512 2.189)"/><path d="m95.222 9.171-3.8-2.084.4-.725 8.435 4.624-.4.723-3.8-2.084-6.142 11.2-.832-.455z" transform="translate(55.693 3.978)"/><path d="m104.821 23.475-4.126-3.463-4.233 2.538-.728-.609 12.412-7.341.728.611-5.076 13.5-.759-.635zm.312-.788.967-2.5q.466-1.2.9-2.29t.972-2.283l-.063-.054q-1.077.741-2.079 1.354t-2.1 1.282l-2.295 1.39z" transform="translate(59.853 9.127)"/><path d="m107.188 33.86 2.168-6.933-1.936-2.145-4.643 4.19-.637-.705 10.1-9.111 2.613 2.9a8.091 8.091 0 0 1 1.086 1.5 3.769 3.769 0 0 1 .471 1.464 2.929 2.929 0 0 1 -.226 1.414 3.88 3.88 0 0 1 -1.013 1.344 3.438 3.438 0 0 1 -2.529 1.016 4.264 4.264 0 0 1 -2.55-1.133l-2.175 7.021zm2.626-7.6a4.5 4.5 0 0 0 2.4 1.572 2.637 2.637 0 0 0 2.3-.788 2.375 2.375 0 0 0 .952-2.165 5.09 5.09 0 0 0 -1.385-2.475l-1.801-2.004-4.28 3.857z" transform="translate(63.858 11.976)"/><path d="m111.4 39.869 3.13-6.554-1.612-2.4-5.189 3.488-.531-.787 11.289-7.59 2.178 3.237a8.01 8.01 0 0 1 .861 1.635 3.736 3.736 0 0 1 .26 1.516 2.938 2.938 0 0 1 -.424 1.365 3.869 3.869 0 0 1 -1.191 1.188 3.439 3.439 0 0 1 -2.647.648 4.272 4.272 0 0 1 -2.365-1.482l-3.146 6.641zm3.678-7.146a4.5 4.5 0 0 0 2.157 1.895 2.642 2.642 0 0 0 2.394-.452 2.377 2.377 0 0 0 1.248-2.01 5.058 5.058 0 0 0 -1.021-2.646l-1.508-2.243-4.78 3.211z" transform="translate(67.019 16.273)"/><path d="m118.5 41.95-2.365-4.838-4.9.6-.416-.855 14.325-1.666.416.853-10.12 10.273-.434-.891zm.606-.593 1.9-1.893q.914-.9 1.75-1.729t1.817-1.69l-.037-.073c-.858.158-1.672.288-2.448.392s-1.593.211-2.443.319l-2.66.336z" transform="translate(69.285 22.001)"/><path d="m119.943 46.482 6.338-6.467.328.957-3.354 3.328c-.393.384-.78.759-1.164 1.131s-.762.765-1.143 1.186l.028.078c.554.088 1.1.169 1.633.247s1.074.141 1.614.19l4.692.575.314.918-8.979-1.245-5.214 1.784-.307-.9z" transform="translate(71.729 25.017)"/><path d="m131.69 64.319-.088 1.338-8.155 2.326-3.077.874-.007.083 2.942 1.225 7.786 3.359-.091 1.34-13.572-.882.06-.926 8.918.579q.846.056 1.82.161t1.838.2v-.083l-2.917-1.264-7.926-3.431.055-.845 8.306-2.4 3.054-.879v-.081q-.865-.015-1.846-.037c-.657-.016-1.264-.041-1.827-.078l-8.919-.579.057-.886z" transform="translate(73.419 39.661)"/><path d="m130.811 75.981-1.619 7.273-.806-.18 1.414-6.345-5.017-1.118-1.183 5.318-.808-.179 1.185-5.319-5.843-1.3-1.458 6.55-.8-.18 1.663-7.474z" transform="translate(72.444 45.655)"/><path d="m128.884 84.788-2.578 6.992-.775-.286 2.249-6.1-4.822-1.778-1.885 5.113-.774-.286 1.885-5.111-5.617-2.072-2.321 6.293-.774-.286 2.647-7.183z" transform="translate(70.944 50.067)"/><path d="m123.009 94.392 2.032-3.827.73.387-4.508 8.495-.728-.387 2.031-3.827-11.287-5.989.445-.839z" transform="translate(69.572 55.27)"/><path d="m108.656 104.223 3.406-4.172-2.594-4.2.6-.735 7.508 12.311-.6.735-13.566-4.892.629-.767zm.795.3 2.514.933c.8.3 1.572.59 2.3.868s1.5.593 2.3.941l.052-.063c-.5-.712-.964-1.4-1.38-2.061s-.858-1.355-1.312-2.082l-1.419-2.279z" transform="translate(64.652 59.469)"/><path d="m98.859 106.72 6.959 2.077 2.121-1.965-4.253-4.588.7-.645 9.247 9.977-2.862 2.651a7.972 7.972 0 0 1 -1.481 1.105 3.74 3.74 0 0 1 -1.458.492 2.933 2.933 0 0 1 -1.417-.206 3.873 3.873 0 0 1 -1.357-.993 3.442 3.442 0 0 1 -1.05-2.516 4.278 4.278 0 0 1 1.1-2.566l-7.047-2.079zm7.629 2.526a4.513 4.513 0 0 0 -1.537 2.423 2.637 2.637 0 0 0 .819 2.295 2.375 2.375 0 0 0 2.176.925 5.1 5.1 0 0 0 2.457-1.419l1.983-1.838-3.913-4.224z" transform="translate(61.305 63.52)"/><path d="m92.6 111.031 6.6 3.042 2.378-1.643-3.558-5.144.782-.54 7.736 11.186-3.208 2.218a7.935 7.935 0 0 1 -1.624.884 3.774 3.774 0 0 1 -1.511.281 2.933 2.933 0 0 1 -1.373-.406 3.876 3.876 0 0 1 -1.2-1.177 3.438 3.438 0 0 1 -.683-2.639 4.276 4.276 0 0 1 1.451-2.383l-6.69-3.056zm7.195 3.582a4.5 4.5 0 0 0 -1.866 2.183 2.634 2.634 0 0 0 .483 2.387 2.371 2.371 0 0 0 2.027 1.221 5.077 5.077 0 0 0 2.633-1.055l2.223-1.537-3.276-4.736z" transform="translate(57.331 66.739)"/><path d="m89.243 118.179 4.809-2.431-.67-4.889.848-.429 1.861 14.3-.847.427-10.408-9.979.884-.447zm.6.6 1.919 1.874q.919.9 1.75 1.729c.559.551 1.128 1.149 1.715 1.791l.073-.036q-.251-1.282-.423-2.444t-.354-2.436l-.372-2.657z" transform="translate(53.04 69.041)"/><path d="m83.981 119.654 6.553 6.251-.952.341-3.376-3.309c-.385-.39-.769-.772-1.144-1.149s-.777-.751-1.2-1.126l-.078.029c-.08.554-.156 1.1-.228 1.637s-.127 1.076-.166 1.615l-.514 4.7-.913.327 1.125-8.994-1.854-5.189.894-.32z" transform="translate(50.787 71.564)"/><path d="m67.1 131.626-1.339-.068-2.431-8.124-.917-3.067h-.083l-1.186 2.956-3.259 7.829-1.339-.068.7-13.583.928.047-.462 8.926c-.031.564-.075 1.17-.137 1.822s-.122 1.266-.179 1.841h.083l1.231-2.937 3.327-7.97.845.044 2.506 8.272.918 3.044h.083c0-.577 0-1.195.011-1.849s.024-1.263.054-1.827l.463-8.914.886.047z" transform="translate(35.352 73.459)"/><path d="m54.971 130.919-7.293-1.519.167-.808 6.364 1.328 1.052-5.032-5.334-1.112.167-.809 5.334 1.113 1.224-5.859-6.567-1.37.169-.808 7.5 1.563z" transform="translate(29.808 72.549)"/><path d="m46.738 129.119-7.024-2.48.275-.778 6.13 2.165 1.711-4.846-5.139-1.814.275-.778 5.134 1.812 1.991-5.644-6.324-2.233.275-.778 7.221 2.548z" transform="translate(24.829 71.114)"/><path d="m36.808 123.407 3.857 1.979-.377.735-8.558-4.391.377-.735 3.857 1.978 5.836-11.366.845.434z" transform="translate(19.837 69.777)"/><path d="m27.53 109.147 4.217 3.351 4.162-2.652.743.592-12.209 7.671-.744-.59 4.711-13.629.775.616zm-.291.8-.9 2.527q-.434 1.209-.837 2.314t-.91 2.306l.065.052q1.058-.768 2.041-1.409t2.064-1.339l2.259-1.448z" transform="translate(14.817 64.952)"/><path d="m25.38 99.391-1.98 6.989 1.993 2.093 4.529-4.312.655.687-9.852 9.379-2.69-2.826a7.978 7.978 0 0 1 -1.125-1.466 3.762 3.762 0 0 1 -.512-1.45 2.931 2.931 0 0 1 .189-1.419 3.872 3.872 0 0 1 .975-1.37 3.438 3.438 0 0 1 2.5-1.086 4.285 4.285 0 0 1 2.581 1.063l1.983-7.073zm-2.422 7.664a4.511 4.511 0 0 0 -2.444-1.507 2.643 2.643 0 0 0 -2.283.85 2.375 2.375 0 0 0 -.894 2.189 5.075 5.075 0 0 0 1.451 2.438l1.864 1.958 4.17-3.97z" transform="translate(10.24 61.645)"/><path d="m21.12 93.2-2.953 6.636 1.676 2.355 5.1-3.626.551.772-11.082 7.889-2.262-3.179a7.918 7.918 0 0 1 -.905-1.611 3.763 3.763 0 0 1 -.3-1.508 2.924 2.924 0 0 1 .387-1.378 3.916 3.916 0 0 1 1.16-1.219 3.434 3.434 0 0 1 2.63-.718 4.279 4.279 0 0 1 2.4 1.419l2.968-6.723zm-3.484 7.242a4.524 4.524 0 0 0 -2.207-1.842 2.638 2.638 0 0 0 -2.381.517 2.371 2.371 0 0 0 -1.195 2.04 5.074 5.074 0 0 0 1.091 2.62l1.568 2.2 4.69-3.34z" transform="translate(6.838 57.711)"/><path d="m13.98 89.947 2.5 4.775 4.879-.735.44.842-14.276 2.059-.439-.843 9.834-10.545.46.878zm-.588.611-1.848 1.942q-.887.931-1.7 1.776t-1.773 1.741l.039.075q1.277-.273 2.438-.46t2.43-.385l2.651-.408z" transform="translate(4.429 53.455)"/><path d="m12.4 84.738-6.16 6.639-.353-.948 3.263-3.421 1.131-1.159q.558-.573 1.11-1.219l-.029-.078q-.834-.107-1.64-.2t-1.622-.152l-4.7-.449-.34-.907 9.01 1 5.163-1.926.332.887z" transform="translate(1.912 51.219)"/><path d="m0 67.94.052-1.34 8.09-2.54 3.058-.96v-.081l-2.973-1.146-7.873-3.153.052-1.341 13.594.521-.036.93-8.93-.343q-.846-.034-1.823-.114c-.652-.052-1.268-.1-1.843-.151v.081l2.95 1.188 8.014 3.22-.033.847-8.244 2.615-3.033.959v.083c.579-.006 1.2-.01 1.849-.013s1.263.008 1.827.029l8.93.343-.034.886z" transform="translate(0 35.874)"/><path d="m.853 55.784 1.425-7.314.809.158-1.243 6.381 5.045.983 1.042-5.349.811.159-1.042 5.349 5.875 1.149 1.282-6.584.811.158-1.468 7.512z" transform="translate(.533 30.304)"/><path d="m2.738 47.517 2.387-7.058.783.265-2.084 6.157 4.869 1.648 1.745-5.162.783.265-1.746 5.162 5.67 1.919 2.15-6.355.782.265-2.454 7.253z" transform="translate(1.712 25.295)"/><path d="m7.974 37.54-1.927 3.884-.739-.369 4.277-8.615.739.367-1.924 3.884 11.443 5.68-.423.85z" transform="translate(3.318 20.281)"/><path d="m22.042 28.049-3.3 4.261 2.706 4.126-.582.752-7.826-12.107.58-.752 13.689 4.533-.6.783zm-.8-.281-2.542-.868q-1.216-.417-2.326-.806t-2.319-.881l-.05.067q.783 1.046 1.437 2.023t1.364 2.046l1.479 2.24z" transform="translate(8.153 15.211)"/><path d="m32.277 25.806-7.014-1.887-2.063 2.02 4.372 4.471-.678.663-9.514-9.724 2.789-2.729a7.935 7.935 0 0 1 1.451-1.144 3.735 3.735 0 0 1 1.443-.53 2.926 2.926 0 0 1 1.42.167 3.878 3.878 0 0 1 1.385.957 3.432 3.432 0 0 1 1.117 2.487 4.276 4.276 0 0 1 -1.027 2.594l7.1 1.888zm-7.7-2.319a4.5 4.5 0 0 0 1.472-2.465 2.636 2.636 0 0 0 -.879-2.272 2.374 2.374 0 0 0 -2.2-.863 5.067 5.067 0 0 0 -2.417 1.484l-1.934 1.89 4.027 4.117z" transform="translate(10.866 10.579)"/><path d="m38.141 21.468-6.676-2.868-2.331 1.708 3.694 5.046-.765.561-8.035-10.972 3.146-2.3a7.957 7.957 0 0 1 1.6-.926 3.77 3.77 0 0 1 1.5-.322 2.931 2.931 0 0 1 1.383.369 3.86 3.86 0 0 1 1.236 1.136 3.442 3.442 0 0 1 .754 2.621 4.281 4.281 0 0 1 -1.386 2.422l6.762 2.877zm-7.289-3.387a4.5 4.5 0 0 0 1.807-2.231 2.637 2.637 0 0 0 -.549-2.374 2.377 2.377 0 0 0 -2.056-1.167 5.083 5.083 0 0 0 -2.6 1.126l-2.183 1.6 3.4 4.645z" transform="translate(15.022 7.12)"/><path d="m39.951 14.276-4.741 2.561.8 4.869-.837.452-2.249-14.245.835-.45 10.679 9.691-.873.47zm-.619-.58-1.97-1.822q-.941-.873-1.8-1.679t-1.762-1.745l-.073.041q.29 1.273.492 2.431t.419 2.423l.445 2.646z" transform="translate(20.584 4.666)"/><path d="m44.413 12.662-6.713-6.072.943-.366 3.457 3.219q.6.563 1.175 1.115t1.234 1.094l.075-.031c.067-.554.127-1.1.184-1.641s.1-1.078.124-1.62l.385-4.711.905-.351-.882 9.02 1.993 5.137-.884.345z" transform="translate(23.568 2.06)"/></g></svg>