<svg xmlns="http://www.w3.org/2000/svg" width="104.169" height="104.156" viewBox="0 0 104.169 104.156">
    <g id="Group_1647" data-name="Group 1647" transform="translate(0.442 0.438)">
        <path id="Path_2317" data-name="Path 2317" d="M131.253,30.647l36.505,36.506,0-.008-15.118-36.5Z" transform="translate(-64.479 -15.515)" fill="none" stroke="#fff" stroke-miterlimit="10" stroke-width="0.75"></path>
        <path id="Path_2318" data-name="Path 2318" d="M72.289,16.305h51.627l0-.009L87.415,1.18Z" transform="translate(-35.785 -1.176)" fill="none" stroke="#fff" stroke-miterlimit="10" stroke-width="0.75"></path>
        <path id="Path_2319" data-name="Path 2319" d="M30.635,37.68,67.141,1.175l-.008,0-36.5,15.118Z" transform="translate(-15.514 -1.172)" fill="none" stroke="#fff" stroke-miterlimit="10" stroke-width="0.75"></path>
        <path id="Path_2320" data-name="Path 2320" d="M16.305,82.243V30.615l-.009,0L1.18,67.117Z" transform="translate(-1.18 -15.5)" fill="none" stroke="#fff" stroke-miterlimit="10" stroke-width="0.75"></path>
        <path id="Path_2321" data-name="Path 2321" d="M37.726,138.272,1.22,101.766l0,.009,15.118,36.5Z" transform="translate(-1.198 -50.125)" fill="none" stroke="#fff" stroke-miterlimit="10" stroke-width="0.75"></path>
        <path id="Path_2322" data-name="Path 2322" d="M82.3,172.884H30.67l0,.009,36.5,15.118Z" transform="translate(-15.531 -84.734)" fill="none" stroke="#fff" stroke-miterlimit="10" stroke-width="0.75"></path>
        <path id="Path_2323" data-name="Path 2323" d="M138.3,131.216l-36.506,36.5.009,0,36.5-15.118Z" transform="translate(-50.142 -64.457)" fill="none" stroke="#fff" stroke-miterlimit="10" stroke-width="0.75"></path>
        <path id="Path_2324" data-name="Path 2324" d="M172.909,72.313V123.94l.009,0,15.117-36.5Z" transform="translate(-84.75 -35.793)" fill="none" stroke="#fff" stroke-miterlimit="10" stroke-width="0.75"></path>
    </g>
</svg>