<svg height="104.156" viewBox="0 0 104.169 104.156" width="104.169" xmlns="http://www.w3.org/2000/svg"><g fill="none" stroke="#fff" stroke-miterlimit="10" stroke-width=".75"><path d="m131.253 30.647 36.505 36.506v-.008l-15.118-36.5z" transform="translate(-64.037 -15.077)"/><path d="m72.289 16.305h51.627v-.009l-36.501-15.116z" transform="translate(-35.343 -.738)"/><path d="m30.635 37.68 36.506-36.505h-.008l-36.5 15.118z" transform="translate(-15.072 -.734)"/><path d="m16.305 82.243v-51.628h-.009l-15.116 36.502z" transform="translate(-.738 -15.062)"/><path d="m37.726 138.272-36.506-36.506v.009l15.118 36.5z" transform="translate(-.756 -49.687)"/><path d="m82.3 172.884h-51.63v.009l36.5 15.118z" transform="translate(-15.089 -84.296)"/><path d="m138.3 131.216-36.506 36.5h.009l36.5-15.118z" transform="translate(-49.7 -64.019)"/><path d="m172.909 72.313v51.627h.009l15.117-36.5z" transform="translate(-84.308 -35.355)"/></g></svg>